<svg width="132" height="39" viewBox="0 0 132 39" fill="none" xmlns="http://www.w3.org/2000/svg">
<path d="M5.32816 0.980469H126.908C128.259 0.980469 129.554 1.48069 130.509 2.37109C131.464 3.26149 132.001 4.46914 132.001 5.72835V33.589C132.001 34.8482 131.464 36.0559 130.509 36.9463C129.554 37.8367 128.259 38.3369 126.908 38.3369H5.32729C4.65848 38.3369 3.99622 38.2141 3.37831 37.9755C2.76041 37.7369 2.19898 37.3872 1.72606 36.9463C1.25313 36.5054 0.877993 35.982 0.62205 35.406C0.366107 34.8299 0.234375 34.2125 0.234375 33.589L0.234375 5.72917C0.234375 4.46974 0.77104 3.26188 1.72631 2.37133C2.68158 1.48078 3.97721 0.980469 5.32816 0.980469Z" fill="white"/>
<path d="M11.4053 16.284C9.41046 19.7359 10.6786 24.975 12.8842 28.1516C13.9849 29.7391 15.0995 31.1653 16.6257 31.1653H16.7131C17.43 31.1368 17.9485 30.9169 18.4491 30.7043C19.0117 30.4648 19.5923 30.2156 20.5069 30.2156C21.3749 30.2156 21.9293 30.4551 22.4666 30.6864C23.0039 30.9177 23.5388 31.1507 24.3448 31.1352C26.0645 31.1034 27.1211 29.5648 28.0512 28.2078C28.7489 27.1849 29.2959 26.0674 29.6753 24.8894L29.6819 24.8691C29.6971 24.8239 29.695 24.7746 29.676 24.7309C29.657 24.6871 29.6225 24.6519 29.579 24.632L29.5651 24.6263C29.2622 24.5025 26.6058 23.3231 26.5781 20.1236C26.5528 17.5212 28.5705 16.1431 28.9755 15.893L28.9943 15.8808C29.0155 15.8668 29.0337 15.8487 29.0477 15.8276C29.0618 15.8065 29.0714 15.7827 29.076 15.7578C29.0813 15.7325 29.0813 15.7063 29.0761 15.681C29.0709 15.6556 29.0606 15.6316 29.0458 15.6104C27.6527 13.5741 25.5174 13.2702 24.6575 13.2336C24.5305 13.2207 24.403 13.2145 24.2753 13.2149C23.2652 13.2149 22.2976 13.5952 21.5202 13.9007C20.9846 14.1116 20.5207 14.2941 20.2015 14.2941C19.8422 14.2941 19.3759 14.1092 18.837 13.8958C18.1151 13.6107 17.2969 13.2865 16.4314 13.2865H16.3701C14.3581 13.3159 12.4538 14.4651 11.4053 16.284Z" fill="#2E2E33"/>
<path d="M24.6608 7.62905C23.4425 7.67874 21.9792 8.42728 21.1054 9.4487C20.3623 10.3064 19.6356 11.7383 19.8283 13.1809C19.8348 13.2239 19.8559 13.2635 19.8879 13.2931C19.92 13.3227 19.9611 13.3406 20.0047 13.3438C20.0863 13.3503 20.168 13.3535 20.2546 13.3535C21.4468 13.3535 22.7329 12.6954 23.6107 11.6365C24.535 10.5182 24.9988 9.08217 24.8617 7.79685C24.855 7.74901 24.8308 7.70533 24.7936 7.67432C24.7565 7.64331 24.7092 7.62718 24.6608 7.62905Z" fill="#2E2E33"/>
<path d="M50.9115 22.365H45.9198L44.9399 24.6701H43.0234L47.5146 14.7109H49.3404L53.8471 24.6701H51.9078L50.9115 22.365ZM50.2983 20.9135L48.4202 16.5607L46.551 20.9135H50.2983Z" fill="#2E2E33"/>
<path d="M61.1594 17.4689C61.7394 17.7848 62.2179 18.2581 62.5394 18.834C62.8721 19.4221 63.0384 20.1009 63.0384 20.8703C63.0521 21.5826 62.8802 22.2862 62.5394 22.9123C62.2202 23.4908 61.7428 23.9667 61.1627 24.2848C60.552 24.6139 59.8667 24.7805 59.1727 24.7686C58.146 24.7686 57.3332 24.4271 56.7344 23.744V27.4289H54.9453V17.0698H56.643V18.0659C56.9326 17.7077 57.3077 17.4276 57.7339 17.2514C58.1888 17.067 58.676 16.9751 59.167 16.981C59.8622 16.9699 60.5484 17.138 61.1594 17.4689ZM60.5878 22.5906C61.0108 22.1562 61.2226 21.5822 61.2231 20.8687C61.2237 20.1552 61.0119 19.5815 60.5878 19.1476C60.1648 18.7132 59.6254 18.496 58.9694 18.496C58.5652 18.4902 58.1667 18.5908 57.8139 18.7876C57.4691 18.9835 57.1862 19.2719 56.9974 19.62C56.7922 20.005 56.6893 20.436 56.6985 20.872C56.6891 21.3079 56.792 21.739 56.9974 22.1239C57.1859 22.4722 57.4689 22.7607 57.8139 22.9563C58.1665 23.1535 58.5652 23.2541 58.9694 23.2479C59.6259 23.2457 60.1657 23.0266 60.5886 22.5906H60.5878Z" fill="#2E2E33"/>
<path d="M70.9421 17.4688C71.5209 17.7853 71.9982 18.2585 72.3189 18.834C72.651 19.4221 72.8173 20.1008 72.8178 20.8703C72.8315 21.5826 72.6596 22.2862 72.3189 22.9123C71.9997 23.4907 71.5222 23.9667 70.9421 24.2848C70.3315 24.6138 69.6461 24.7805 68.9522 24.7686C67.926 24.7686 67.1132 24.4271 66.5139 23.7439V27.4288H64.7305V17.0697H66.4281V18.0659C66.7177 17.7076 67.0928 17.4276 67.5191 17.2514C67.974 17.067 68.4612 16.975 68.9522 16.9809C69.6465 16.9703 70.3319 17.1384 70.9421 17.4688ZM70.3705 22.5906C70.7935 22.1562 71.0053 21.5822 71.0058 20.8687C71.0064 20.1551 70.7946 19.5814 70.3705 19.1476C69.9476 18.7132 69.4081 18.496 68.7521 18.496C68.3479 18.4901 67.9494 18.5907 67.5966 18.7876C67.2518 18.9835 66.9689 19.2718 66.7801 19.62C66.5749 20.005 66.472 20.436 66.4812 20.8719C66.4718 21.3079 66.5747 21.7389 66.7801 22.1238C66.9686 22.4722 67.2516 22.7607 67.5966 22.9563C67.9492 23.1535 68.3479 23.2541 68.7521 23.2479C69.4086 23.2457 69.9484 23.0266 70.3714 22.5906H70.3705Z" fill="#2E2E33"/>
<path d="M79.4854 24.4832C78.7679 24.266 78.1999 23.9766 77.7812 23.615L78.4231 22.1781C78.8763 22.5244 79.3852 22.7912 79.928 22.9674C80.5033 23.1686 81.1083 23.2721 81.7179 23.2737C82.4594 23.2737 83.0133 23.155 83.3797 22.9177C83.746 22.6804 83.929 22.3674 83.9284 21.9786C83.9319 21.846 83.9062 21.7143 83.8532 21.5927C83.8001 21.4711 83.721 21.3626 83.6214 21.2748C83.3958 21.0776 83.1312 20.9297 82.8448 20.8407C82.5307 20.7364 82.1028 20.6181 81.5612 20.4856C80.9345 20.3447 80.3176 20.1641 79.7141 19.9447C79.2459 19.7667 78.8293 19.4756 78.5015 19.0976C78.1634 18.7137 77.9946 18.1946 77.9952 17.5402C77.9902 17.0062 78.1468 16.4831 78.4443 16.0391C78.7443 15.5889 79.1958 15.2308 79.799 14.9647C80.4022 14.6986 81.1417 14.5659 82.0176 14.5664C82.6237 14.5664 83.2273 14.643 83.8141 14.7945C84.3559 14.9247 84.8718 15.145 85.3403 15.4461L84.7556 16.8829C84.326 16.6309 83.8658 16.4349 83.3862 16.2997C82.9364 16.1707 82.471 16.1038 82.0029 16.101C81.2702 16.101 80.7258 16.2242 80.3698 16.4708C80.0138 16.7173 79.8355 17.0431 79.8349 17.4482C79.8309 17.5799 79.8564 17.7108 79.9095 17.8314C79.9626 17.952 80.0421 18.0593 80.142 18.1454C80.3695 18.3387 80.6339 18.4839 80.9193 18.5722C81.2329 18.6765 81.6608 18.7951 82.203 18.9282C82.8232 19.0628 83.4331 19.2411 84.028 19.4617C84.4969 19.642 84.9153 19.9323 85.248 20.308C85.5855 20.6881 85.7543 21.2002 85.7543 21.8442C85.7596 22.376 85.603 22.8969 85.3052 23.338C85.0057 23.7844 84.5515 24.1401 83.9423 24.405C83.3331 24.67 82.5917 24.8028 81.7179 24.8034C80.962 24.8074 80.2096 24.6996 79.4854 24.4832Z" fill="#2E2E33"/>
<path d="M92.0012 24.2575C91.7761 24.4365 91.5165 24.5674 91.2385 24.642C90.9298 24.7287 90.6104 24.7717 90.2897 24.7699C89.453 24.7699 88.8065 24.5527 88.3503 24.1183C87.8941 23.6838 87.6658 23.0482 87.6652 22.2115V18.5551H86.4102V17.1264H87.6652V15.3906H89.4486V17.1264H91.4901V18.5494H89.4486V22.1634C89.4486 22.5332 89.5387 22.8153 89.7189 23.0097C89.8991 23.2041 90.1607 23.3013 90.5036 23.3013C90.8623 23.3149 91.2148 23.2054 91.5023 22.991L92.0012 24.2575Z" fill="#2E2E33"/>
<path d="M94.5567 24.2715C93.9537 23.9543 93.452 23.4745 93.1089 22.8868C92.7574 22.2742 92.5783 21.5783 92.5904 20.8725C92.5785 20.169 92.7586 19.4756 93.1114 18.8663C93.4558 18.281 93.9573 17.8031 94.5592 17.4865C95.2005 17.1493 95.9165 16.9782 96.6414 16.9889C97.3712 16.9771 98.0922 17.1482 98.7384 17.4865C99.3394 17.803 99.8402 18.2803 100.185 18.8647C100.537 19.474 100.717 20.1674 100.706 20.8709C100.717 21.5766 100.537 22.2722 100.185 22.8844C99.8416 23.4718 99.3402 23.9516 98.7376 24.2691C98.0914 24.6074 97.3703 24.7786 96.6406 24.7668C95.9154 24.7785 95.1988 24.6082 94.5567 24.2715ZM98.2648 22.5928C98.6927 22.1584 98.9066 21.5844 98.9066 20.8709C98.9066 20.1574 98.6927 19.5837 98.2648 19.1498C97.8369 18.7154 97.295 18.4982 96.639 18.4982C95.983 18.4982 95.4433 18.7154 95.0197 19.1498C94.5967 19.5842 94.3852 20.1579 94.3852 20.8709C94.3852 21.5839 94.5967 22.1578 95.0197 22.5928C95.4427 23.0272 95.9825 23.2444 96.639 23.2444C97.2955 23.2444 97.8374 23.0272 98.2648 22.5928Z" fill="#2E2E33"/>
<path d="M106.821 16.9844V18.6769C106.685 18.6501 106.546 18.636 106.407 18.6346C105.713 18.6346 105.171 18.8361 104.781 19.239C104.392 19.6419 104.197 20.2229 104.197 20.9821V24.667H102.414V17.0691H104.111V18.1817C104.625 17.3835 105.528 16.9844 106.821 16.9844Z" fill="#2E2E33"/>
<path d="M115.392 21.4425H109.415C109.503 21.9753 109.796 22.4526 110.232 22.7727C110.674 23.0985 111.224 23.2614 111.88 23.2614C112.716 23.2614 113.405 22.9863 113.947 22.4363L114.903 23.5318C114.556 23.9442 114.109 24.2624 113.605 24.4571C113.041 24.6731 112.441 24.7793 111.836 24.7699C111 24.7699 110.263 24.604 109.626 24.2722C109.011 23.9613 108.499 23.4806 108.15 22.8875C107.798 22.2753 107.618 21.5796 107.629 20.874C107.619 20.1749 107.793 19.4854 108.136 18.8752C108.465 18.2918 108.952 17.8121 109.54 17.4905C110.161 17.1534 110.859 16.9819 111.566 16.9928C112.26 16.9807 112.946 17.1492 113.555 17.4815C114.134 17.8039 114.609 18.2842 114.925 18.8662C115.251 19.4581 115.415 20.1431 115.415 20.9212C115.42 21.0353 115.411 21.212 115.392 21.4425ZM110.122 18.9175C109.722 19.261 109.466 19.7404 109.401 20.2623H113.723C113.664 19.7455 113.415 19.2688 113.024 18.9248C112.634 18.5833 112.15 18.4125 111.569 18.4125C111.041 18.3977 110.526 18.5775 110.122 18.9175Z" fill="#2E2E33"/>
</svg>
