<svg width="132" height="39" viewBox="0 0 132 39" fill="none" xmlns="http://www.w3.org/2000/svg">
<path d="M5.09288 0.660156H126.673C128.024 0.660156 129.319 1.16045 130.274 2.05099C131.23 2.94152 131.766 4.14935 131.766 5.40875V33.268C131.766 34.5274 131.23 35.7352 130.274 36.6258C129.319 37.5163 128.024 38.0166 126.673 38.0166H5.09288C4.424 38.0166 3.76167 37.8938 3.14372 37.6551C2.52576 37.4165 1.96429 37.0667 1.49136 36.6257C1.01843 36.1847 0.643311 35.6613 0.387421 35.0851C0.131532 34.509 -0.000114872 33.8915 7.52102e-08 33.268V5.40794C7.52102e-08 4.14875 0.53657 2.94113 1.49167 2.05075C2.44677 1.16037 3.74216 0.660156 5.09288 0.660156Z" fill="white"/>
<path d="M45.3906 18.2233H47.1054V22.1028C46.5815 22.5132 45.9864 22.8241 45.3498 23.02C44.6828 23.233 43.9866 23.341 43.2863 23.3401C42.3494 23.354 41.4242 23.1315 40.5965 22.6934C39.8185 22.2805 39.1689 21.6627 38.7184 20.9071C38.258 20.1286 38.0218 19.2386 38.0357 18.3348C38.0218 17.4311 38.258 16.5411 38.7184 15.7626C39.1712 15.005 39.8248 14.3866 40.6071 13.9755C41.4422 13.5368 42.3744 13.3145 43.3182 13.3288C44.0811 13.3199 44.8386 13.4582 45.549 13.736C46.1973 13.9904 46.7753 14.3953 47.2352 14.9171L46.092 16.0297C45.7435 15.6698 45.3245 15.385 44.8611 15.1931C44.3978 15.0011 43.8998 14.9061 43.3982 14.9138C42.7605 14.9019 42.13 15.0504 41.565 15.3455C41.0409 15.6227 40.6061 16.042 40.3107 16.5551C40.0025 17.0971 39.846 17.7118 39.8575 18.3348C39.8486 18.9488 40.0051 19.5539 40.3107 20.0869C40.6083 20.6014 41.0423 21.0241 41.565 21.3087C42.1227 21.6112 42.7495 21.7644 43.3843 21.7534C44.1464 21.7534 44.8155 21.5864 45.3914 21.2525L45.3906 18.2233Z" fill="#2E2E33"/>
<path d="M50.6331 22.8164C50.0433 22.5058 49.553 22.0362 49.2179 21.461C48.8733 20.8632 48.697 20.1835 48.7076 19.4939C48.6959 18.8065 48.8717 18.1288 49.2163 17.5334C49.5529 16.9611 50.043 16.4939 50.6314 16.1845C51.2579 15.854 51.9577 15.6859 52.6663 15.6958C53.3795 15.6848 54.0841 15.8529 54.7151 16.1845C55.3038 16.493 55.7945 16.9593 56.1319 17.5309C56.4764 18.1264 56.6523 18.8041 56.6406 19.4915C56.6517 20.1809 56.4759 20.8606 56.1319 21.4586C55.7968 22.0337 55.3064 22.5033 54.7167 22.8139C54.0858 23.1459 53.3812 23.314 52.668 23.3027C51.9595 23.3137 51.2596 23.1464 50.6331 22.8164ZM54.257 21.1759C54.6751 20.7497 54.8841 20.189 54.8841 19.4939C54.8841 18.7989 54.6751 18.238 54.257 17.8111C53.8389 17.3849 53.3092 17.1717 52.668 17.1717C52.0267 17.1717 51.4994 17.3849 51.0863 17.8111C50.672 18.238 50.4651 18.7989 50.4657 19.4939C50.4662 20.189 50.6731 20.7497 51.0863 21.1759C51.4994 21.6028 52.0267 21.8159 52.668 21.8153C53.3092 21.8148 53.84 21.6017 54.2603 21.1759H54.257Z" fill="#2E2E33"/>
<path d="M59.6236 22.8164C59.0339 22.5058 58.5436 22.0362 58.2085 21.461C57.8644 20.863 57.6887 20.1834 57.6998 19.4939C57.6881 18.8065 57.8639 18.1288 58.2085 17.5334C58.545 16.9611 59.0352 16.4939 59.6236 16.1845C60.2501 15.854 60.9499 15.6859 61.6585 15.6958C62.3717 15.6848 63.0762 15.8529 63.7073 16.1845C64.2948 16.4935 64.7843 16.9598 65.1208 17.5309C65.4653 18.1264 65.6412 18.8041 65.6295 19.4915C65.6406 20.1809 65.4648 20.8606 65.1208 21.4586C64.7857 22.0337 64.2954 22.5033 63.7057 22.8139C63.0747 23.1459 62.3701 23.314 61.6569 23.3027C60.9489 23.3134 60.2497 23.1462 59.6236 22.8164ZM63.2476 21.1759C63.6656 20.7497 63.8747 20.189 63.8747 19.4939C63.8747 18.7989 63.6656 18.238 63.2476 17.8111C62.8295 17.3849 62.2998 17.1717 61.6585 17.1717C61.0172 17.1717 60.49 17.3849 60.0768 17.8111C59.6625 18.238 59.4557 18.7989 59.4562 19.4939C59.4568 20.189 59.6636 20.7497 60.0768 21.1759C60.49 21.6028 61.0172 21.8159 61.6585 21.8153C62.2998 21.8148 62.8295 21.6017 63.2476 21.1759Z" fill="#2E2E33"/>
<path d="M74.6906 15.7803V22.079C74.6906 24.693 73.3525 25.9998 70.6764 25.9993C69.9888 26.003 69.3039 25.9117 68.6415 25.728C68.0629 25.5791 67.5218 25.3117 67.0524 24.9428L67.833 23.6396C68.1999 23.9307 68.6185 24.1501 69.0669 24.2863C69.5548 24.4474 70.0653 24.5299 70.5792 24.5307C71.3957 24.5307 71.9946 24.3452 72.3756 23.9744C72.7567 23.6035 72.9472 23.0382 72.9472 22.2785V21.8892C72.6463 22.214 72.274 22.465 71.8596 22.6223C71.4103 22.7934 70.9327 22.8785 70.4518 22.8731C69.7853 22.8826 69.1269 22.7273 68.5353 22.4211C67.975 22.1302 67.5068 21.6897 67.1831 21.1488C66.8481 20.5818 66.6768 19.9334 66.6882 19.2754C66.675 18.6171 66.8464 17.9683 67.1831 17.402C67.508 16.8653 67.977 16.43 68.5369 16.1452C69.1299 15.8433 69.7878 15.6904 70.4534 15.6996C70.9558 15.6934 71.4548 15.7832 71.9233 15.9643C72.3558 16.134 72.7374 16.4116 73.0313 16.7707V15.7803H74.6906ZM72.3422 20.8067C72.7651 20.4124 72.9766 19.9001 72.9766 19.2697C72.9766 18.649 72.7651 18.144 72.3422 17.7547C71.9192 17.3653 71.3778 17.1706 70.718 17.1706C70.049 17.1706 69.5046 17.3653 69.0849 17.7547C68.6651 18.144 68.4536 18.649 68.4504 19.2697C68.4504 19.9001 68.6619 20.4124 69.0849 20.8067C69.5078 21.2009 70.0522 21.3977 70.718 21.3972C71.3778 21.3972 71.9192 21.2004 72.3422 20.8067Z" fill="#2E2E33"/>
<path d="M76.9766 12.8867H78.7183V23.2043H76.9766V12.8867Z" fill="#2E2E33"/>
<path d="M87.9754 20.0464H82.1345C82.22 20.5689 82.508 21.037 82.9363 21.3496C83.3686 21.6695 83.9051 21.8294 84.5458 21.8294C85.3624 21.8294 86.0363 21.5606 86.5677 21.023L87.501 22.0892C87.1611 22.4918 86.7249 22.8025 86.2329 22.9925C85.6816 23.2041 85.0947 23.308 84.5042 23.2988C83.6876 23.2988 82.9674 23.1359 82.3435 22.8101C81.7424 22.5057 81.2417 22.0352 80.9015 21.4547C80.5571 20.8579 80.3807 20.1794 80.3911 19.4909C80.3804 18.8071 80.5512 18.1328 80.8859 17.536C81.2071 16.9649 81.6828 16.4952 82.2586 16.1807C82.8651 15.8503 83.547 15.682 84.238 15.6919C84.9168 15.6807 85.5869 15.8461 86.1822 16.1717C86.7475 16.4856 87.2117 16.9534 87.5206 17.5205C87.8407 18.0994 88.001 18.7692 88.0016 19.53C88.0032 19.653 87.9934 19.824 87.9754 20.0464ZM82.8245 17.5784C82.4351 17.9148 82.1844 18.3831 82.1206 18.893H86.3439C86.2856 18.3894 86.0424 17.9252 85.6613 17.5898C85.2802 17.2558 84.8063 17.0888 84.2396 17.0888C83.7237 17.0735 83.2201 17.2477 82.8245 17.5784Z" fill="#2E2E33"/>
<path d="M99.91 13.8858C100.499 14.1331 101.002 14.5499 101.353 15.0831C101.687 15.6028 101.854 16.2194 101.854 16.9329C101.854 17.6388 101.687 18.2527 101.353 18.7746C101.004 19.3108 100.501 19.7299 99.91 19.9776C99.2828 20.2551 98.5463 20.3941 97.7003 20.3946H95.4956V23.2031H93.6836V13.4688H97.6987C98.5457 13.4688 99.2828 13.6078 99.91 13.8858ZM99.4151 18.3657C99.8234 18.0317 100.028 17.5544 100.028 16.9337C100.029 16.3131 99.8239 15.8347 99.4135 15.4985C99.0047 15.1651 98.4058 14.9984 97.617 14.9984H95.4939V18.8633H97.617C98.4064 18.8633 99.0052 18.6966 99.4135 18.3632L99.4151 18.3657Z" fill="#2E2E33"/>
<path d="M103.641 12.8867H105.383V23.2043H103.641V12.8867Z" fill="#2E2E33"/>
<path d="M113.03 16.4814C113.611 17.0054 113.902 17.7955 113.901 18.8517V23.2037H112.257V22.3004C112.033 22.6329 111.715 22.8917 111.344 23.0441C110.89 23.2264 110.404 23.314 109.915 23.3014C109.412 23.3123 108.913 23.215 108.451 23.0164C108.06 22.8486 107.724 22.5738 107.483 22.2238C107.255 21.885 107.135 21.485 107.141 21.077C107.141 20.4091 107.39 19.8737 107.887 19.4707C108.385 19.0678 109.168 18.8661 110.236 18.8655H112.156V18.7548C112.156 18.2356 112 17.8371 111.689 17.559C111.378 17.281 110.915 17.142 110.301 17.142C109.882 17.1419 109.466 17.2076 109.068 17.3367C108.695 17.4497 108.347 17.6337 108.043 17.8783L107.36 16.6134C107.783 16.3009 108.26 16.0699 108.768 15.9324C109.335 15.7719 109.921 15.6921 110.51 15.6954C111.607 15.6954 112.447 15.9574 113.03 16.4814ZM111.441 21.7367C111.774 21.5455 112.029 21.2428 112.159 20.8823V20.0197H110.363C109.359 20.0197 108.857 20.3488 108.857 21.0069C108.853 21.1534 108.885 21.2986 108.951 21.4297C109.016 21.5607 109.114 21.6735 109.234 21.7579C109.484 21.9436 109.832 22.0362 110.279 22.0357C110.686 22.0431 111.088 21.9397 111.441 21.7367Z" fill="#2E2E33"/>
<path d="M122.959 15.7773L119.474 23.7988C119.147 24.6052 118.752 25.1729 118.289 25.5019C117.826 25.831 117.264 25.9964 116.603 25.998C116.228 25.997 115.856 25.9354 115.501 25.8155C115.172 25.7136 114.868 25.5432 114.609 25.3154L115.306 24.0358C115.478 24.1967 115.679 24.3241 115.899 24.4113C116.117 24.5024 116.352 24.5497 116.589 24.5506C116.862 24.5611 117.13 24.4777 117.348 24.3144C117.548 24.1564 117.731 23.8922 117.899 23.5218L118.024 23.2294L114.777 15.7773H116.589L118.931 21.2689L121.286 15.7773H122.959Z" fill="#2E2E33"/>
<path d="M28.9907 18.8762L24.5544 16.3242L20.9062 19.8429L24.2404 23.0583L28.9907 20.3227C29.1183 20.2502 29.2243 20.1451 29.2977 20.0182C29.3711 19.8913 29.4093 19.7472 29.4083 19.6006C29.4097 19.4537 29.3717 19.3091 29.2983 19.1818C29.2249 19.0544 29.1187 18.9489 28.9907 18.8762Z" fill="#FFD109"/>
<path d="M23.8037 15.8888L18.9212 13.0783L8.22266 7.60938L20.3064 19.2608L23.8037 15.8888Z" fill="#06EF79"/>
<path d="M8.40234 31.9021L18.9416 26.1107L23.4907 23.4908L20.3082 20.4219L8.40234 31.9021Z" fill="#F93646"/>
<path d="M7.50769 8.07812L7.49609 31.6094L19.7043 19.8384L7.50769 8.07812Z" fill="#05D5FB"/>
</svg>
