<svg width="294" height="294" viewBox="0 0 294 294" fill="none" xmlns="http://www.w3.org/2000/svg">
<rect width="294" height="294" rx="23" fill="white"/>
<path fill-rule="evenodd" clip-rule="evenodd" d="M51.383 81.7647C57.392 81.7647 63.2661 79.9828 68.2625 76.6444C73.2588 73.3059 77.153 68.5609 79.4526 63.0092C81.7522 57.4576 82.3538 51.3487 81.1815 45.4551C80.0092 39.5615 77.1156 34.1479 72.8665 29.8988C68.6175 25.6498 63.2039 22.7561 57.3103 21.5838C51.4167 20.4115 45.3078 21.0132 39.7561 23.3127C34.2045 25.6123 29.4594 29.5065 26.1209 34.5028C22.7825 39.4992 21.0006 45.3733 21.0006 51.3824C20.9756 55.3792 21.7444 59.3413 23.2624 63.0387C24.7805 66.7361 27.0175 70.0954 29.8437 72.9216C32.67 75.7479 36.0292 77.9849 39.7266 79.5029C43.4241 81.0209 47.3861 81.7897 51.383 81.7647ZM51.383 29.6807C55.6751 29.6807 59.8709 30.9535 63.4398 33.3381C67.0086 35.7227 69.7901 39.112 71.4327 43.0775C73.0752 47.043 73.505 51.4065 72.6677 55.6162C71.8303 59.8259 69.7634 63.6928 66.7284 66.7278C63.6933 69.7628 59.8265 71.8297 55.6167 72.6671C51.407 73.5044 47.0435 73.0747 43.0781 71.4321C39.1126 69.7896 35.7233 67.008 33.3387 63.4392C30.954 59.8704 29.6813 55.6746 29.6813 51.3824C29.6532 48.5247 30.1954 45.6901 31.2761 43.0445C32.3568 40.3988 33.9543 37.9953 35.9751 35.9745C37.9959 33.9537 40.3994 32.3562 43.045 31.2755C45.6907 30.1948 48.5253 29.6527 51.383 29.6807ZM91.7547 48.3514C92.5931 47.513 93.7302 47.042 94.9159 47.042H99.126V38.6218H94.9159C93.7302 38.6218 92.5931 38.1508 91.7547 37.3124C90.9163 36.474 90.4453 35.3369 90.4453 34.1512C90.4453 32.9656 90.9163 31.8285 91.7547 30.9901C92.5931 30.1517 93.7302 29.6807 94.9159 29.6807H99.126V25.4705C99.126 24.2849 99.597 23.1478 100.435 22.3094C101.274 21.471 102.411 21 103.597 21C104.782 21 105.919 21.471 106.758 22.3094C107.596 23.1478 108.067 24.2849 108.067 25.4705V38.3614H116.487V34.1512C116.477 33.5612 116.585 32.975 116.806 32.4277C117.026 31.8805 117.355 31.3833 117.773 30.966C118.19 30.5487 118.687 30.2198 119.234 29.999C119.782 29.7781 120.368 29.6699 120.958 29.6807H133.849V25.4705C133.849 24.2849 134.32 23.1478 135.158 22.3094C135.996 21.471 137.134 21 138.319 21C139.505 21 140.642 21.471 141.48 22.3094C142.319 23.1478 142.79 24.2849 142.79 25.4705V29.6807H147C147.59 29.6699 148.176 29.7781 148.723 29.999C149.271 30.2198 149.768 30.5487 150.185 30.966C150.602 31.3833 150.931 31.8805 151.152 32.4277C151.373 32.975 151.481 33.5612 151.47 34.1512V38.3614H164.361C165.547 38.3614 166.684 38.8324 167.522 39.6707C168.361 40.5091 168.832 41.6462 168.832 42.8319C168.832 44.0176 168.361 45.1547 167.522 45.9931C166.684 46.8314 165.547 47.3024 164.361 47.3024H160.151V60.1932C160.162 60.7833 160.054 61.3695 159.833 61.9167C159.612 62.464 159.283 62.9611 158.866 63.3784C158.448 63.7957 157.951 64.1246 157.404 64.3455C156.857 64.5663 156.271 64.6746 155.681 64.6638H129.639C128.453 64.6638 127.316 64.1928 126.477 63.3544C125.639 62.516 125.168 61.3789 125.168 60.1932C125.168 59.0076 125.639 57.8705 126.477 57.0321C127.316 56.1937 128.453 55.7227 129.639 55.7227H142.529V47.3024H138.319C137.729 47.3132 137.143 47.205 136.596 46.9841C136.048 46.7633 135.551 46.4344 135.134 46.0171C134.717 45.5998 134.388 45.1027 134.167 44.5554C133.946 44.0081 133.838 43.4219 133.849 42.8319V38.6218H125.428V51.5126C125.428 52.6982 124.957 53.8353 124.119 54.6737C123.281 55.5121 122.144 55.9831 120.958 55.9831C119.772 55.9831 118.635 55.5121 117.797 54.6737C116.958 53.8353 116.487 52.6982 116.487 51.5126V47.3024H108.067V51.5126C108.078 52.1026 107.97 52.6888 107.749 53.2361C107.528 53.7833 107.199 54.2805 106.782 54.6978C106.364 55.1151 105.867 55.444 105.32 55.6648C104.773 55.8857 104.187 55.9939 103.597 55.9831H94.9159C93.7302 55.9831 92.5931 55.5121 91.7547 54.6737C90.9163 53.8353 90.4453 52.6982 90.4453 51.5126C90.4453 50.3269 90.9163 49.1898 91.7547 48.3514ZM155.681 29.9411H168.572V34.1512C168.572 35.3369 169.043 36.474 169.882 37.3124C170.72 38.1508 171.857 38.6218 173.043 38.6218C174.229 38.6218 175.366 38.1508 176.204 37.3124C177.042 36.474 177.513 35.3369 177.513 34.1512V29.9411H190.404C191.59 29.9411 192.727 29.4701 193.565 28.6317C194.404 27.7933 194.875 26.6562 194.875 25.4705C194.875 24.2849 194.404 23.1478 193.565 22.3094C192.727 21.471 191.59 21 190.404 21H155.681C154.496 21 153.359 21.471 152.52 22.3094C151.682 23.1478 151.211 24.2849 151.211 25.4705C151.211 26.6562 151.682 27.7933 152.52 28.6317C153.359 29.4701 154.496 29.9411 155.681 29.9411ZM194.613 38.3604V42.8309C194.613 44.0166 195.084 45.1537 195.923 45.9921C196.761 46.8305 197.898 47.3015 199.084 47.3015C200.269 47.3015 201.407 46.8305 202.245 45.9921C203.083 45.1537 203.554 44.0166 203.554 42.8309V34.1502C203.554 32.9646 203.083 31.8275 202.245 30.9891C201.407 30.1507 200.269 29.6797 199.084 29.6797C197.898 29.6797 196.761 30.1507 195.923 30.9891C195.084 31.8275 194.613 32.9646 194.613 34.1502V38.3604ZM173.041 55.9841C175.51 55.9841 177.511 53.9825 177.511 51.5135C177.511 49.0445 175.51 47.043 173.041 47.043C170.572 47.043 168.57 49.0445 168.57 51.5135C168.57 53.9825 170.572 55.9841 173.041 55.9841ZM110.552 56.0417C111.1 55.8209 111.686 55.7126 112.276 55.7234C112.866 55.7126 113.452 55.8209 113.999 56.0417C114.547 56.2625 115.044 56.5914 115.461 57.0087C115.878 57.426 116.207 57.9232 116.428 58.4704C116.649 59.0177 116.757 59.6039 116.747 60.1939V77.5553C116.747 78.741 116.276 79.8781 115.437 80.7164C114.599 81.5548 113.462 82.0258 112.276 82.0258C111.09 82.0258 109.953 81.5548 109.115 80.7164C108.276 79.8781 107.805 78.741 107.805 77.5553V60.1939C107.795 59.6039 107.903 59.0177 108.124 58.4704C108.345 57.9232 108.673 57.426 109.091 57.0087C109.508 56.5914 110.005 56.2625 110.552 56.0417ZM94.9166 82.0241C95.5066 82.0349 96.0928 81.9267 96.6401 81.7058C97.1873 81.485 97.6845 81.1561 98.1018 80.7388C98.5191 80.3215 98.848 79.8243 99.0688 79.2771C99.2897 78.7298 99.3979 78.1436 99.3871 77.5536V68.8729C99.3871 67.6872 98.9161 66.5501 98.0778 65.7117C97.2394 64.8733 96.1023 64.4023 94.9166 64.4023C93.7309 64.4023 92.5938 64.8733 91.7554 65.7117C90.9171 66.5501 90.446 67.6872 90.446 68.8729V77.5536C90.4353 78.1436 90.5435 78.7298 90.7644 79.2771C90.9852 79.8243 91.3141 80.3215 91.7314 80.7388C92.1487 81.1561 92.6458 81.485 93.1931 81.7058C93.7404 81.9267 94.3265 82.0349 94.9166 82.0241ZM168.832 77.5565C168.832 80.0255 166.83 82.027 164.361 82.027C161.892 82.027 159.891 80.0255 159.891 77.5565C159.891 75.0875 161.892 73.0859 164.361 73.0859C166.83 73.0859 168.832 75.0875 168.832 77.5565ZM77.5565 90.4453C76.3708 90.4453 75.2337 90.9163 74.3953 91.7547C73.5569 92.5931 73.0859 93.7302 73.0859 94.9159C73.0859 96.1015 73.5569 97.2386 74.3953 98.077C75.2337 98.9154 76.3708 99.3864 77.5565 99.3864H90.4473V103.597C90.4365 104.187 90.5448 104.773 90.7656 105.32C90.9864 105.867 91.3153 106.364 91.7326 106.782C92.1499 107.199 92.6471 107.528 93.1943 107.749C93.7416 107.97 94.3278 108.078 94.9178 108.067H99.128V129.639C99.128 130.824 99.599 131.961 100.437 132.8C101.276 133.638 102.413 134.109 103.599 134.109C104.784 134.109 105.921 133.638 106.76 132.8C107.598 131.961 108.069 130.824 108.069 129.639V125.428H116.489V129.639C116.489 130.824 116.96 131.961 117.799 132.8C118.637 133.638 119.774 134.109 120.96 134.109C122.146 134.109 123.283 133.638 124.121 132.8C124.959 131.961 125.43 130.824 125.43 129.639V116.748H129.641C130.826 116.748 131.963 116.277 132.802 115.438C133.64 114.6 134.111 113.463 134.111 112.277C134.111 111.092 133.64 109.954 132.802 109.116C131.963 108.278 130.826 107.807 129.641 107.807H120.96C120.37 107.796 119.784 107.904 119.236 108.125C118.689 108.346 118.192 108.675 117.775 109.092C117.357 109.509 117.028 110.006 116.808 110.554C116.587 111.101 116.479 111.687 116.489 112.277V116.487H108.069V99.3864H112.279C113.465 99.3864 114.602 98.9154 115.44 98.077C116.279 97.2386 116.75 96.1015 116.75 94.9159C116.75 93.7302 116.279 92.5931 115.44 91.7547C114.602 90.9163 113.465 90.4453 112.279 90.4453H77.5565ZM134.109 77.5565V90.4473V94.9178C134.109 96.1035 133.638 97.2406 132.8 98.079C131.961 98.9174 130.824 99.3884 129.639 99.3884C128.453 99.3884 127.316 98.9174 126.477 98.079C125.639 97.2406 125.168 96.1035 125.168 94.9178V77.5565C125.168 76.3708 125.639 75.2337 126.477 74.3953C127.316 73.5569 128.453 73.0859 129.639 73.0859C130.824 73.0859 131.961 73.5569 132.8 74.3953C133.638 75.2337 134.109 76.3708 134.109 77.5565ZM173.041 99.3864C175.51 99.3864 177.511 97.3849 177.511 94.9159C177.511 92.4468 175.51 90.4453 173.041 90.4453C170.572 90.4453 168.57 92.4468 168.57 94.9159C168.57 97.3849 170.572 99.3864 173.041 99.3864ZM194.872 90.7068V99.127H203.293V94.9169C203.293 93.7312 203.764 92.5941 204.602 91.7557C205.441 90.9174 206.578 90.4464 207.763 90.4464C208.949 90.4464 210.086 90.9174 210.924 91.7557C211.763 92.5941 212.234 93.7312 212.234 94.9169V99.127H216.444C217.034 99.1162 217.62 99.2245 218.167 99.4453C218.715 99.6662 219.212 99.9951 219.629 100.412C220.046 100.83 220.375 101.327 220.596 101.874C220.817 102.421 220.925 103.008 220.915 103.598V107.808H225.125C226.31 107.808 227.447 108.279 228.286 109.117C229.124 109.955 229.595 111.093 229.595 112.278C229.595 113.464 229.124 114.601 228.286 115.439C227.447 116.278 226.31 116.749 225.125 116.749H220.915V120.959C220.925 121.549 220.817 122.135 220.596 122.682C220.375 123.23 220.046 123.727 219.629 124.144C219.212 124.561 218.715 124.89 218.167 125.111C217.62 125.332 217.034 125.44 216.444 125.429H207.763C206.578 125.429 205.441 124.958 204.602 124.12C203.764 123.282 203.293 122.145 203.293 120.959C203.293 119.773 203.764 118.636 204.602 117.798C205.441 116.959 206.578 116.488 207.763 116.488H211.973V108.068H203.553V112.278C203.553 113.464 203.082 114.601 202.244 115.439C201.405 116.278 200.268 116.749 199.083 116.749C197.897 116.749 196.76 116.278 195.921 115.439C195.083 114.601 194.612 113.464 194.612 112.278V108.068H190.402C189.812 108.079 189.226 107.971 188.678 107.75C188.131 107.529 187.634 107.2 187.217 106.783C186.799 106.365 186.471 105.868 186.25 105.321C186.029 104.774 185.921 104.188 185.931 103.598V86.2362C185.921 85.6462 186.029 85.06 186.25 84.5127C186.471 83.9655 186.799 83.4683 187.217 83.051C187.634 82.6337 188.131 82.3048 188.678 82.084C189.226 81.8631 189.812 81.7549 190.402 81.7657H194.612V64.6647H186.192V77.5555C186.192 78.7412 185.721 79.8783 184.882 80.7167C184.044 81.5551 182.907 82.0261 181.721 82.0261C180.536 82.0261 179.399 81.5551 178.56 80.7167C177.722 79.8783 177.251 78.7412 177.251 77.5555V60.1942C177.24 59.6041 177.348 59.018 177.569 58.4707C177.79 57.9234 178.119 57.4263 178.536 57.009C178.953 56.5917 179.451 56.2628 179.998 56.042C180.545 55.8211 181.131 55.7129 181.721 55.7236H185.931V51.5135C185.931 50.3279 186.402 49.1908 187.241 48.3524C188.079 47.514 189.216 47.043 190.402 47.043C191.588 47.043 192.725 47.514 193.563 48.3524C194.402 49.1908 194.872 50.3279 194.872 51.5135V55.7236H199.083C199.673 55.7129 200.259 55.8211 200.806 56.042C201.353 56.2628 201.851 56.5917 202.268 57.009C202.685 57.4263 203.014 57.9234 203.235 58.4707C203.456 59.018 203.564 59.6041 203.553 60.1942V86.2362C203.564 86.8263 203.456 87.4124 203.235 87.9597C203.014 88.507 202.685 89.0041 202.268 89.4214C201.851 89.8387 201.353 90.1676 200.806 90.3885C200.259 90.6093 199.673 90.7176 199.083 90.7068H194.872ZM225.127 99.3864C227.596 99.3864 229.597 97.3849 229.597 94.9159C229.597 92.4468 227.596 90.4453 225.127 90.4453C222.658 90.4453 220.656 92.4468 220.656 94.9159C220.656 97.3849 222.658 99.3864 225.127 99.3864ZM246.957 94.9159C246.957 97.3849 244.955 99.3864 242.486 99.3864C240.017 99.3864 238.016 97.3849 238.016 94.9159C238.016 92.4468 240.017 90.4453 242.486 90.4453C244.955 90.4453 246.957 92.4468 246.957 94.9159ZM259.849 99.3864C262.318 99.3864 264.32 97.3849 264.32 94.9159C264.32 92.4468 262.318 90.4453 259.849 90.4453C257.38 90.4453 255.379 92.4468 255.379 94.9159C255.379 97.3849 257.38 99.3864 259.849 99.3864ZM146.999 108.069H138.318C137.133 108.069 135.995 107.598 135.157 106.76C134.319 105.921 133.848 104.784 133.848 103.599C133.848 102.413 134.319 101.276 135.157 100.437C135.995 99.599 137.133 99.128 138.318 99.128H142.528V77.5565C142.528 76.3708 142.999 75.2337 143.838 74.3953C144.676 73.5569 145.813 73.0859 146.999 73.0859C148.185 73.0859 149.322 73.5569 150.16 74.3953C150.998 75.2337 151.469 76.3708 151.469 77.5565V103.599C151.48 104.189 151.372 104.775 151.151 105.322C150.93 105.869 150.601 106.366 150.184 106.784C149.767 107.201 149.27 107.53 148.722 107.751C148.175 107.972 147.589 108.08 146.999 108.069ZM233.806 108.066C236.275 108.066 238.277 106.065 238.277 103.596C238.277 101.127 236.275 99.125 233.806 99.125C231.337 99.125 229.336 101.127 229.336 103.596C229.336 106.065 231.337 108.066 233.806 108.066ZM273 103.596C273 106.065 270.998 108.066 268.529 108.066C266.06 108.066 264.059 106.065 264.059 103.596C264.059 101.127 266.06 99.125 268.529 99.125C270.998 99.125 273 101.127 273 103.596ZM42.8338 116.75C45.3028 116.75 47.3044 114.748 47.3044 112.279C47.3044 109.81 45.3028 107.809 42.8338 107.809C40.3648 107.809 38.3633 109.81 38.3633 112.279C38.3633 114.748 40.3648 116.75 42.8338 116.75ZM80.7157 115.437C79.8773 116.276 78.7402 116.747 77.5546 116.747H73.3444V125.167H77.5546C78.7402 125.167 79.8773 125.638 80.7157 126.476C81.5541 127.315 82.0251 128.452 82.0251 129.637C82.0251 130.823 81.5541 131.96 80.7157 132.798C79.8773 133.637 78.7402 134.108 77.5546 134.108H68.8739C68.2838 134.119 67.6977 134.01 67.1504 133.79C66.6031 133.569 66.106 133.24 65.6887 132.823C65.2714 132.405 64.9425 131.908 64.7216 131.361C64.5008 130.814 64.3925 130.227 64.4033 129.637V125.427H60.1932C59.0075 125.427 57.8704 124.956 57.0321 124.118C56.1937 123.279 55.7227 122.142 55.7227 120.957C55.7227 119.771 56.1937 118.634 57.0321 117.795C57.8704 116.957 59.0075 116.486 60.1932 116.486H64.4033V112.276C64.3925 111.686 64.5008 111.1 64.7216 110.552C64.9425 110.005 65.2714 109.508 65.6887 109.091C66.106 108.673 66.6031 108.345 67.1504 108.124C67.6977 107.903 68.2838 107.795 68.8739 107.805H77.5546C78.7402 107.805 79.8773 108.276 80.7157 109.115C81.5541 109.953 82.0251 111.09 82.0251 112.276C82.0251 113.462 81.5541 114.599 80.7157 115.437ZM181.721 107.805C181.131 107.795 180.545 107.903 179.998 108.124C179.451 108.345 178.953 108.673 178.536 109.091C178.119 109.508 177.79 110.005 177.569 110.552C177.348 111.1 177.24 111.686 177.251 112.276V120.957C177.24 121.547 177.348 122.133 177.569 122.68C177.79 123.227 178.119 123.725 178.536 124.142C178.953 124.559 179.451 124.888 179.998 125.109C180.545 125.33 181.131 125.438 181.721 125.427H190.402C191.588 125.427 192.725 124.956 193.563 124.118C194.402 123.279 194.872 122.142 194.872 120.957C194.872 119.771 194.402 118.634 193.563 117.795C192.725 116.957 191.588 116.486 190.402 116.486H186.192V112.276C186.203 111.686 186.094 111.1 185.874 110.552C185.653 110.005 185.324 109.508 184.906 109.091C184.489 108.673 183.992 108.345 183.445 108.124C182.898 107.903 182.311 107.795 181.721 107.805ZM27.1948 125.111C26.6475 125.332 26.0613 125.44 25.4713 125.429C24.8812 125.44 24.2951 125.332 23.7478 125.111C23.2005 124.89 22.7034 124.561 22.2861 124.144C21.8688 123.727 21.5399 123.229 21.319 122.682C21.0982 122.135 20.9899 121.549 21.0007 120.959V94.9166C20.9899 94.3265 21.0982 93.7404 21.319 93.1931C21.5399 92.6458 21.8688 92.1487 22.2861 91.7314C22.7034 91.3141 23.2005 90.9852 23.7478 90.7644C24.2951 90.5435 24.8812 90.4353 25.4713 90.446H60.194C61.3796 90.446 62.5167 90.9171 63.3551 91.7554C64.1935 92.5938 64.6645 93.7309 64.6645 94.9166C64.6645 96.1023 64.1935 97.2394 63.3551 98.0778C62.5167 98.9161 61.3796 99.3871 60.194 99.3871H29.9418V120.959C29.9526 121.549 29.8444 122.135 29.6235 122.682C29.4027 123.229 29.0738 123.727 28.6565 124.144C28.2392 124.561 27.742 124.89 27.1948 125.111ZM233.806 125.43H238.017V129.64C238.006 130.23 238.114 130.816 238.335 131.364C238.556 131.911 238.885 132.408 239.302 132.825C239.719 133.243 240.216 133.572 240.764 133.792C241.311 134.013 241.897 134.122 242.487 134.111H251.168C252.354 134.111 253.491 133.64 254.329 132.801C255.167 131.963 255.638 130.826 255.638 129.64C255.638 128.455 255.167 127.317 254.329 126.479C253.491 125.641 252.354 125.17 251.168 125.17H246.958V120.96C246.968 120.37 246.86 119.783 246.639 119.236C246.419 118.689 246.09 118.192 245.672 117.774C245.255 117.357 244.758 117.028 244.211 116.807C243.663 116.586 243.077 116.478 242.487 116.489H233.806C232.621 116.489 231.484 116.96 230.645 117.798C229.807 118.637 229.336 119.774 229.336 120.96C229.336 122.145 229.807 123.282 230.645 124.121C231.484 124.959 232.621 125.43 233.806 125.43ZM264.32 120.959C264.32 123.428 262.318 125.429 259.849 125.429C257.38 125.429 255.379 123.428 255.379 120.959C255.379 118.49 257.38 116.488 259.849 116.488C262.318 116.488 264.32 118.49 264.32 120.959ZM51.5135 134.109C53.9825 134.109 55.9841 132.108 55.9841 129.639C55.9841 127.169 53.9825 125.168 51.5135 125.168C49.0445 125.168 47.043 127.169 47.043 129.639C47.043 132.108 49.0445 134.109 51.5135 134.109ZM29.9411 138.318C29.9411 140.787 27.9396 142.789 25.4705 142.789C23.0015 142.789 21 140.787 21 138.318C21 135.849 23.0015 133.848 25.4705 133.848C27.9396 133.848 29.9411 135.849 29.9411 138.318ZM42.8338 142.789C45.3028 142.789 47.3044 140.787 47.3044 138.318C47.3044 135.849 45.3028 133.848 42.8338 133.848C40.3648 133.848 38.3633 135.849 38.3633 138.318C38.3633 140.787 40.3648 142.789 42.8338 142.789ZM64.6638 138.318C64.6638 140.787 62.6622 142.789 60.1932 142.789C57.7242 142.789 55.7227 140.787 55.7227 138.318C55.7227 135.849 57.7242 133.848 60.1932 133.848C62.6622 133.848 64.6638 135.849 64.6638 138.318ZM268.529 142.789C270.998 142.789 273 140.787 273 138.318C273 135.849 270.998 133.848 268.529 133.848C266.06 133.848 264.059 135.849 264.059 138.318C264.059 140.787 266.06 142.789 268.529 142.789ZM113.999 151.151C113.452 151.372 112.866 151.48 112.276 151.469C111.686 151.48 111.1 151.372 110.552 151.151C110.005 150.93 109.508 150.601 109.091 150.184C108.673 149.767 108.345 149.27 108.124 148.722C107.903 148.175 107.795 147.589 107.805 146.999V138.318C107.805 137.133 108.276 135.995 109.115 135.157C109.953 134.319 111.09 133.848 112.276 133.848C113.462 133.848 114.599 134.319 115.437 135.157C116.276 135.995 116.747 137.133 116.747 138.318V146.999C116.757 147.589 116.649 148.175 116.428 148.722C116.207 149.27 115.878 149.767 115.461 150.184C115.044 150.601 114.547 150.93 113.999 151.151ZM34.1502 160.152C36.6193 160.152 38.6208 158.15 38.6208 155.681C38.6208 153.212 36.6193 151.211 34.1502 151.211C31.6812 151.211 29.6797 153.212 29.6797 155.681C29.6797 158.15 31.6812 160.152 34.1502 160.152ZM77.5553 151.469H73.3452V155.679C73.356 156.269 73.2477 156.856 73.0269 157.403C72.806 157.95 72.4771 158.447 72.0598 158.865C71.6425 159.282 71.1454 159.611 70.5981 159.832C70.0508 160.052 69.4647 160.161 68.8746 160.15H64.6645V164.36C64.6645 165.546 64.1935 166.683 63.3551 167.521C62.5167 168.36 61.3796 168.831 60.1939 168.831C59.0083 168.831 57.8712 168.36 57.0328 167.521C56.1944 166.683 55.7234 165.546 55.7234 164.36V155.679C55.7126 155.089 55.8209 154.503 56.0417 153.956C56.2625 153.409 56.5914 152.911 57.0087 152.494C57.426 152.077 57.9232 151.748 58.4704 151.527C59.0177 151.306 59.6039 151.198 60.1939 151.209H64.4041V146.999C64.3933 146.409 64.5015 145.822 64.7224 145.275C64.9432 144.728 65.2721 144.231 65.6894 143.813C66.1067 143.396 66.6039 143.067 67.1511 142.846C67.6984 142.626 68.2846 142.517 68.8746 142.528H77.5553C78.741 142.528 79.8781 142.999 80.7164 143.837C81.5548 144.676 82.0258 145.813 82.0258 146.999C82.0258 148.184 81.5548 149.321 80.7164 150.16C79.8781 150.998 78.741 151.469 77.5553 151.469ZM229.337 151.47V155.681C229.337 156.866 229.808 158.003 230.646 158.842C231.485 159.68 232.622 160.151 233.808 160.151C234.993 160.151 236.13 159.68 236.969 158.842C237.807 158.003 238.278 156.866 238.278 155.681V151.47H251.169C252.355 151.47 253.492 150.999 254.33 150.161C255.168 149.323 255.639 148.186 255.639 147C255.639 145.814 255.168 144.677 254.33 143.839C253.492 143 252.355 142.529 251.169 142.529H238.278V138.319C238.289 137.729 238.181 137.143 237.96 136.596C237.739 136.048 237.41 135.551 236.993 135.134C236.575 134.717 236.078 134.388 235.531 134.167C234.984 133.946 234.398 133.838 233.808 133.849H229.597V129.639C229.597 128.453 229.126 127.316 228.288 126.477C227.45 125.639 226.312 125.168 225.127 125.168C223.941 125.168 222.804 125.639 221.966 126.477C221.127 127.316 220.656 128.453 220.656 129.639V133.849H190.404C189.218 133.849 188.081 134.32 187.243 135.158C186.405 135.996 185.934 137.134 185.934 138.319C185.934 139.505 186.405 140.642 187.243 141.48C188.081 142.319 189.218 142.79 190.404 142.79H203.295V147C203.295 148.186 203.766 149.323 204.604 150.161C205.443 150.999 206.58 151.47 207.765 151.47C208.951 151.47 210.088 150.999 210.927 150.161C211.765 149.323 212.236 148.186 212.236 147V142.79H229.337V151.47ZM264.32 155.681C264.32 158.15 262.318 160.152 259.849 160.152C257.38 160.152 255.379 158.15 255.379 155.681C255.379 153.212 257.38 151.211 259.849 151.211C262.318 151.211 264.32 153.212 264.32 155.681ZM134.11 160.153H138.32C138.91 160.164 139.496 160.056 140.043 159.835C140.591 159.614 141.088 159.285 141.505 158.868C141.922 158.45 142.251 157.953 142.472 157.406C142.693 156.859 142.801 156.273 142.79 155.683V151.472H151.211V159.893H147.001C145.815 159.893 144.678 160.364 143.839 161.202C143.001 162.04 142.53 163.178 142.53 164.363C142.53 165.549 143.001 166.686 143.839 167.524C144.678 168.363 145.815 168.834 147.001 168.834H155.681C156.271 168.845 156.857 168.736 157.405 168.515C157.952 168.295 158.449 167.966 158.866 167.548C159.284 167.131 159.613 166.634 159.834 166.087C160.054 165.539 160.163 164.953 160.152 164.363V160.153H164.362C165.548 160.153 166.685 159.682 167.523 158.844C168.362 158.005 168.833 156.868 168.833 155.683C168.833 154.497 168.362 153.36 167.523 152.521C166.685 151.683 165.548 151.212 164.362 151.212H160.152V134.111H173.043C174.228 134.111 175.365 133.64 176.204 132.802C177.042 131.963 177.513 130.826 177.513 129.64C177.513 128.455 177.042 127.318 176.204 126.479C175.365 125.641 174.228 125.17 173.043 125.17H160.152V112.279C160.152 111.093 159.681 109.956 158.842 109.118C158.004 108.28 156.867 107.809 155.681 107.809C154.496 107.809 153.359 108.28 152.52 109.118C151.682 109.956 151.211 111.093 151.211 112.279V116.489H147.001C145.815 116.489 144.678 116.96 143.839 117.799C143.001 118.637 142.53 119.774 142.53 120.96C142.53 122.145 143.001 123.283 143.839 124.121C144.678 124.959 145.815 125.43 147.001 125.43H151.211V142.531H142.79V138.321C142.801 137.731 142.693 137.145 142.472 136.598C142.251 136.05 141.922 135.553 141.505 135.136C141.088 134.719 140.591 134.39 140.043 134.169C139.496 133.948 138.91 133.84 138.32 133.851H129.639C128.454 133.851 127.316 134.322 126.478 135.16C125.64 135.998 125.169 137.135 125.169 138.321C125.169 139.507 125.64 140.644 126.478 141.482C127.316 142.321 128.454 142.792 129.639 142.792H133.849V151.212H129.639C129.049 151.201 128.463 151.309 127.916 151.53C127.368 151.751 126.871 152.08 126.454 152.497C126.037 152.915 125.708 153.412 125.487 153.959C125.266 154.506 125.158 155.092 125.169 155.683V164.363C125.169 165.549 125.64 166.686 126.478 167.524C127.316 168.363 128.454 168.834 129.639 168.834C130.825 168.834 131.962 168.363 132.8 167.524C133.639 166.686 134.11 165.549 134.11 164.363V160.153ZM55.9841 173.041C55.9841 175.51 53.9825 177.511 51.5135 177.511C49.0445 177.511 47.043 175.51 47.043 173.041C47.043 170.572 49.0445 168.57 51.5135 168.57C53.9825 168.57 55.9841 170.572 55.9841 173.041ZM90.7077 168.833H94.9178C95.5079 168.844 96.0941 168.735 96.6413 168.514C97.1886 168.294 97.6857 167.965 98.103 167.547C98.5203 167.13 98.8492 166.633 99.0701 166.086C99.2909 165.538 99.3992 164.952 99.3884 164.362V155.681C99.3884 154.496 98.9174 153.359 98.079 152.52C97.2406 151.682 96.1035 151.211 94.9178 151.211C93.7322 151.211 92.5951 151.682 91.7567 152.52C90.9183 153.359 90.4473 154.496 90.4473 155.681V159.892H77.5565C76.3708 159.892 75.2337 160.363 74.3953 161.201C73.5569 162.039 73.0859 163.176 73.0859 164.362C73.0859 165.548 73.5569 166.685 74.3953 167.523C75.2337 168.362 76.3708 168.833 77.5565 168.833H81.7666V173.043C81.7666 174.229 82.2376 175.366 83.076 176.204C83.9144 177.042 85.0515 177.513 86.2372 177.513C87.4228 177.513 88.5599 177.042 89.3983 176.204C90.2367 175.366 90.7077 174.229 90.7077 173.043V168.833ZM273 173.041C273 175.51 270.998 177.511 268.529 177.511C266.06 177.511 264.059 175.51 264.059 173.041C264.059 170.572 266.06 168.57 268.529 168.57C270.998 168.57 273 170.572 273 173.041ZM38.3633 185.935V199.086C38.3633 200.271 38.8343 201.409 39.6727 202.247C40.5111 203.085 41.6482 203.556 42.8338 203.556C44.0195 203.556 45.1566 203.085 45.995 202.247C46.8334 201.409 47.3044 200.271 47.3044 199.086V194.876H68.8759C70.0615 194.876 71.1986 194.405 72.037 193.566C72.8754 192.728 73.3464 191.591 73.3464 190.405C73.3464 189.219 72.8754 188.082 72.037 187.244C71.1986 186.406 70.0615 185.935 68.8759 185.935H64.6657V181.724C64.6657 180.539 64.1947 179.402 63.3563 178.563C62.5179 177.725 61.3808 177.254 60.1952 177.254C59.0095 177.254 57.8724 177.725 57.034 178.563C56.1956 179.402 55.7246 180.539 55.7246 181.724V185.935H47.3044V181.724C47.3044 180.539 46.8334 179.402 45.995 178.563C45.1566 177.725 44.0195 177.254 42.8338 177.254C41.6482 177.254 40.5111 177.725 39.6727 178.563C38.8343 179.402 38.3633 180.539 38.3633 181.724V185.935ZM82.027 181.724C82.027 184.193 80.0255 186.195 77.5565 186.195C75.0875 186.195 73.0859 184.193 73.0859 181.724C73.0859 179.255 75.0875 177.254 77.5565 177.254C80.0255 177.254 82.027 179.255 82.027 181.724ZM94.9159 186.195C97.3849 186.195 99.3864 184.193 99.3864 181.724C99.3864 179.255 97.3849 177.254 94.9159 177.254C92.4468 177.254 90.4453 179.255 90.4453 181.724C90.4453 184.193 92.4468 186.195 94.9159 186.195ZM246.696 181.723V177.513V168.832H242.486C241.301 168.832 240.163 168.361 239.325 167.523C238.487 166.685 238.016 165.548 238.016 164.362C238.016 163.176 238.487 162.039 239.325 161.201C240.163 160.362 241.301 159.891 242.486 159.891H251.167C251.757 159.881 252.343 159.989 252.89 160.21C253.438 160.431 253.935 160.759 254.352 161.177C254.769 161.594 255.098 162.091 255.319 162.638C255.54 163.186 255.648 163.772 255.637 164.362V181.723C255.637 182.909 255.166 184.046 254.328 184.884C253.49 185.723 252.353 186.194 251.167 186.194C249.981 186.194 248.844 185.723 248.006 184.884C247.167 184.046 246.696 182.909 246.696 181.723ZM147.002 194.876H155.682C156.273 194.887 156.859 194.778 157.406 194.557C157.953 194.337 158.45 194.008 158.868 193.59C159.285 193.173 159.614 192.676 159.835 192.129C160.056 191.581 160.164 190.995 160.153 190.405V186.195H173.044C173.634 186.206 174.22 186.098 174.767 185.877C175.315 185.656 175.812 185.327 176.229 184.91C176.646 184.492 176.975 183.995 177.196 183.448C177.417 182.901 177.525 182.315 177.514 181.724V177.514H190.405C190.995 177.525 191.581 177.417 192.129 177.196C192.676 176.975 193.173 176.646 193.59 176.229C194.008 175.812 194.337 175.315 194.557 174.767C194.778 174.22 194.887 173.634 194.876 173.044V160.153H199.086C200.272 160.153 201.409 159.682 202.247 158.844C203.085 158.005 203.556 156.868 203.556 155.682C203.556 154.497 203.085 153.36 202.247 152.521C201.409 151.683 200.272 151.212 199.086 151.212H186.195V147.002C186.195 145.816 185.724 144.679 184.886 143.841C184.047 143.002 182.91 142.531 181.724 142.531C180.539 142.531 179.402 143.002 178.563 143.841C177.725 144.679 177.254 145.816 177.254 147.002V159.893H173.044C172.454 159.882 171.868 159.99 171.32 160.211C170.773 160.432 170.276 160.761 169.859 161.178C169.441 161.595 169.112 162.092 168.892 162.64C168.671 163.187 168.562 163.773 168.573 164.363V168.573H164.363C163.773 168.562 163.187 168.671 162.64 168.892C162.092 169.112 161.595 169.441 161.178 169.859C160.761 170.276 160.432 170.773 160.211 171.32C159.99 171.868 159.882 172.454 159.893 173.044V177.254H155.682C155.092 177.243 154.506 177.351 153.959 177.572C153.412 177.793 152.915 178.122 152.497 178.539C152.08 178.957 151.751 179.454 151.53 180.001C151.309 180.548 151.201 181.134 151.212 181.724V185.935H147.002C145.816 185.935 144.679 186.406 143.841 187.244C143.002 188.082 142.531 189.22 142.531 190.405C142.531 191.591 143.002 192.728 143.841 193.566C144.679 194.405 145.816 194.876 147.002 194.876ZM27.1948 203.236C26.6475 203.457 26.0613 203.565 25.4713 203.554C24.8812 203.565 24.2951 203.457 23.7478 203.236C23.2005 203.015 22.7034 202.686 22.2861 202.269C21.8688 201.852 21.5399 201.354 21.319 200.807C21.0982 200.26 20.9899 199.674 21.0007 199.084V173.042C20.9899 172.452 21.0982 171.865 21.319 171.318C21.5399 170.771 21.8688 170.274 22.2861 169.856C22.7034 169.439 23.2005 169.11 23.7478 168.889C24.2951 168.669 24.8812 168.56 25.4713 168.571H34.152C35.3376 168.571 36.4747 169.042 37.3131 169.88C38.1515 170.719 38.6225 171.856 38.6225 173.042C38.6225 174.227 38.1515 175.364 37.3131 176.203C36.4747 177.041 35.3376 177.512 34.152 177.512H29.9418V199.084C29.9526 199.674 29.8444 200.26 29.6235 200.807C29.4027 201.354 29.0738 201.852 28.6565 202.269C28.2392 202.686 27.742 203.015 27.1948 203.236ZM77.5565 203.554C80.0255 203.554 82.027 201.553 82.027 199.084C82.027 196.615 80.0255 194.613 77.5565 194.613C75.0875 194.613 73.0859 196.615 73.0859 199.084C73.0859 201.553 75.0875 203.554 77.5565 203.554ZM122.68 203.236C122.133 203.457 121.547 203.565 120.957 203.554C120.367 203.565 119.781 203.457 119.233 203.236C118.686 203.015 118.189 202.686 117.772 202.269C117.354 201.852 117.026 201.355 116.805 200.807C116.584 200.26 116.476 199.674 116.486 199.084V194.874H103.596C102.41 194.874 101.273 194.403 100.434 193.564C99.596 192.726 99.125 191.589 99.125 190.403C99.125 189.218 99.596 188.08 100.434 187.242C101.273 186.404 102.41 185.933 103.596 185.933H107.806V164.361C107.806 163.176 108.277 162.038 109.115 161.2C109.953 160.362 111.091 159.891 112.276 159.891C113.462 159.891 114.599 160.362 115.437 161.2C116.276 162.038 116.747 163.176 116.747 164.361V177.252H129.638C130.823 177.252 131.96 177.723 132.799 178.561C133.637 179.4 134.108 180.537 134.108 181.723C134.108 182.908 133.637 184.045 132.799 184.884C131.96 185.722 130.823 186.193 129.638 186.193H125.427V199.084C125.438 199.674 125.33 200.26 125.109 200.807C124.888 201.355 124.559 201.852 124.142 202.269C123.725 202.686 123.228 203.015 122.68 203.236ZM268.53 194.613H264.32V190.403C264.32 189.218 263.849 188.08 263.011 187.242C262.172 186.404 261.035 185.933 259.849 185.933C258.664 185.933 257.527 186.404 256.688 187.242C255.85 188.08 255.379 189.218 255.379 190.403V194.613H251.169C250.579 194.603 249.992 194.711 249.445 194.932C248.898 195.152 248.401 195.481 247.984 195.899C247.566 196.316 247.237 196.813 247.016 197.36C246.796 197.908 246.687 198.494 246.698 199.084V203.294H238.278V173.042C238.289 172.452 238.18 171.866 237.96 171.318C237.739 170.771 237.41 170.274 236.993 169.857C236.575 169.439 236.078 169.11 235.531 168.89C234.984 168.669 234.397 168.561 233.807 168.571H229.597V164.361C229.597 163.176 229.126 162.038 228.288 161.2C227.449 160.362 226.312 159.891 225.127 159.891C223.941 159.891 222.804 160.362 221.966 161.2C221.127 162.038 220.656 163.176 220.656 164.361V168.571H216.446C215.26 168.571 214.123 169.042 213.285 169.881C212.446 170.719 211.975 171.856 211.975 173.042C211.975 174.228 212.446 175.365 213.285 176.203C214.123 177.041 215.26 177.512 216.446 177.512H229.337V194.613H212.236V181.723C212.247 181.132 212.138 180.546 211.918 179.999C211.697 179.452 211.368 178.955 210.951 178.537C210.533 178.12 210.036 177.791 209.489 177.57C208.942 177.349 208.355 177.241 207.765 177.252H199.085C198.495 177.241 197.908 177.349 197.361 177.57C196.814 177.791 196.317 178.12 195.899 178.537C195.482 178.955 195.153 179.452 194.932 179.999C194.712 180.546 194.603 181.132 194.614 181.723V211.975H186.194V207.765C186.205 207.174 186.096 206.588 185.876 206.041C185.655 205.494 185.326 204.997 184.909 204.579C184.491 204.162 183.994 203.833 183.447 203.612C182.9 203.391 182.313 203.283 181.723 203.294H177.513V199.084C177.513 197.898 177.042 196.761 176.204 195.923C175.365 195.084 174.228 194.613 173.043 194.613C171.857 194.613 170.72 195.084 169.881 195.923C169.043 196.761 168.572 197.898 168.572 199.084V203.294H164.362C163.772 203.283 163.186 203.391 162.638 203.612C162.091 203.833 161.594 204.162 161.177 204.579C160.759 204.997 160.431 205.494 160.21 206.041C159.989 206.588 159.881 207.174 159.891 207.765V211.975H151.471V207.765C151.482 207.174 151.374 206.588 151.153 206.041C150.932 205.494 150.603 204.997 150.186 204.579C149.769 204.162 149.271 203.833 148.724 203.612C148.177 203.391 147.591 203.283 147.001 203.294H129.639C128.454 203.294 127.316 203.765 126.478 204.603C125.64 205.442 125.169 206.579 125.169 207.765C125.169 208.95 125.64 210.087 126.478 210.926C127.316 211.764 128.454 212.235 129.639 212.235H133.849V220.655H129.639C129.049 220.645 128.463 220.753 127.916 220.974C127.368 221.195 126.871 221.523 126.454 221.941C126.037 222.358 125.708 222.855 125.487 223.402C125.266 223.95 125.158 224.536 125.169 225.126V233.807C125.169 234.992 125.64 236.129 126.478 236.968C127.316 237.806 128.454 238.277 129.639 238.277C130.825 238.277 131.962 237.806 132.8 236.968C133.639 236.129 134.11 234.992 134.11 233.807V229.596H138.32C138.91 229.607 139.496 229.499 140.043 229.278C140.591 229.057 141.088 228.728 141.505 228.311C141.922 227.894 142.251 227.397 142.472 226.849C142.693 226.302 142.801 225.716 142.79 225.126V220.916H159.891V225.126C159.891 226.312 160.362 227.449 161.201 228.287C162.039 229.125 163.176 229.596 164.362 229.596C165.548 229.596 166.685 229.125 167.523 228.287C168.362 227.449 168.833 226.312 168.833 225.126V212.235H177.253V216.445C177.242 217.035 177.35 217.621 177.571 218.169C177.792 218.716 178.121 219.213 178.538 219.63C178.955 220.048 179.453 220.377 180 220.597C180.547 220.818 181.133 220.927 181.723 220.916H185.933V225.126C185.923 225.716 186.031 226.302 186.252 226.849C186.473 227.397 186.801 227.894 187.219 228.311C187.636 228.728 188.133 229.057 188.68 229.278C189.228 229.499 189.814 229.607 190.404 229.596H194.614V233.807C194.603 234.397 194.712 234.983 194.932 235.53C195.153 236.077 195.482 236.574 195.899 236.992C196.317 237.409 196.814 237.738 197.361 237.959C197.908 238.18 198.495 238.288 199.085 238.277H220.656V246.697H216.446C215.26 246.697 214.123 247.168 213.285 248.007C212.446 248.845 211.975 249.982 211.975 251.168C211.975 252.354 212.446 253.491 213.285 254.329C214.123 255.167 215.26 255.638 216.446 255.638H220.656V259.849C220.645 260.439 220.754 261.025 220.974 261.572C221.195 262.119 221.524 262.617 221.941 263.034C222.359 263.451 222.856 263.78 223.403 264.001C223.95 264.222 224.537 264.33 225.127 264.319H229.337V268.529C229.337 269.715 229.808 270.852 230.646 271.69C231.485 272.529 232.622 273 233.807 273C234.993 273 236.13 272.529 236.969 271.69C237.807 270.852 238.278 269.715 238.278 268.529V264.319H242.488C243.078 264.33 243.664 264.222 244.212 264.001C244.759 263.78 245.256 263.451 245.673 263.034C246.091 262.617 246.419 262.119 246.64 261.572C246.861 261.025 246.969 260.439 246.959 259.849V255.638H255.379V259.849C255.379 261.034 255.85 262.171 256.688 263.01C257.527 263.848 258.664 264.319 259.849 264.319C261.035 264.319 262.172 263.848 263.011 263.01C263.849 262.171 264.32 261.034 264.32 259.849V246.958H268.53C269.716 246.958 270.853 246.487 271.691 245.648C272.53 244.81 273.001 243.673 273.001 242.487C273.001 241.302 272.53 240.164 271.691 239.326C270.853 238.488 269.716 238.017 268.53 238.017H264.32V233.807C264.331 233.217 264.222 232.63 264.002 232.083C263.781 231.536 263.452 231.039 263.035 230.621C262.617 230.204 262.12 229.875 261.573 229.654C261.026 229.434 260.439 229.325 259.849 229.336H251.169C250.579 229.325 249.992 229.434 249.445 229.654C248.898 229.875 248.401 230.204 247.984 230.621C247.566 231.039 247.237 231.536 247.016 232.083C246.796 232.63 246.687 233.217 246.698 233.807V238.017H242.488C241.898 238.006 241.312 238.114 240.765 238.335C240.217 238.556 239.72 238.885 239.303 239.302C238.886 239.719 238.557 240.216 238.336 240.764C238.115 241.311 238.007 241.897 238.017 242.487V246.697H229.597V238.277H233.807C234.397 238.288 234.984 238.18 235.531 237.959C236.078 237.738 236.575 237.409 236.993 236.992C237.41 236.574 237.739 236.077 237.96 235.53C238.18 234.983 238.289 234.397 238.278 233.807V220.916H251.169C251.759 220.927 252.345 220.818 252.892 220.597C253.439 220.377 253.937 220.048 254.354 219.63C254.771 219.213 255.1 218.716 255.321 218.169C255.542 217.621 255.65 217.035 255.639 216.445V212.235H268.53C269.12 212.246 269.706 212.138 270.254 211.917C270.801 211.696 271.298 211.367 271.715 210.95C272.133 210.532 272.461 210.035 272.682 209.488C272.903 208.941 273.011 208.355 273.001 207.765V199.084C273.011 198.494 272.903 197.908 272.682 197.36C272.461 196.813 272.133 196.316 271.715 195.899C271.298 195.481 270.801 195.152 270.254 194.932C269.706 194.711 269.12 194.603 268.53 194.613ZM212.236 229.336H203.555V203.554H229.337V229.336H212.236ZM220.918 216.447C220.918 218.916 218.916 220.918 216.447 220.918C213.978 220.918 211.977 218.916 211.977 216.447C211.977 213.978 213.978 211.977 216.447 211.977C218.916 211.977 220.918 213.978 220.918 216.447ZM147.002 238.277C149.471 238.277 151.472 236.275 151.472 233.806C151.472 231.337 149.471 229.336 147.002 229.336C144.533 229.336 142.531 231.337 142.531 233.806C142.531 236.275 144.533 238.277 147.002 238.277ZM171.318 229.655C171.865 229.434 172.452 229.326 173.042 229.337C173.632 229.326 174.218 229.434 174.765 229.655C175.312 229.876 175.809 230.205 176.227 230.622C176.644 231.039 176.973 231.536 177.194 232.084C177.415 232.631 177.523 233.217 177.512 233.807V238.017H181.722C182.908 238.017 184.045 238.488 184.883 239.327C185.722 240.165 186.193 241.302 186.193 242.488C186.193 243.674 185.722 244.811 184.883 245.649C184.045 246.487 182.908 246.958 181.722 246.958H177.512V251.169C177.512 252.354 177.041 253.491 176.203 254.33C175.364 255.168 174.227 255.639 173.042 255.639C171.856 255.639 170.719 255.168 169.88 254.33C169.042 253.491 168.571 252.354 168.571 251.169V233.807C168.56 233.217 168.669 232.631 168.889 232.084C169.11 231.536 169.439 231.039 169.856 230.622C170.274 230.205 170.771 229.876 171.318 229.655ZM129.639 246.697H116.748V242.487C116.748 241.301 116.277 240.164 115.439 239.326C114.601 238.487 113.464 238.016 112.278 238.016C111.092 238.016 109.955 238.487 109.117 239.326C108.278 240.164 107.807 241.301 107.807 242.487V246.697H99.3871V238.277H103.597C104.187 238.288 104.773 238.179 105.321 237.959C105.868 237.738 106.365 237.409 106.782 236.991C107.2 236.574 107.529 236.077 107.75 235.53C107.97 234.983 108.079 234.396 108.068 233.806V207.764C108.079 207.174 107.97 206.588 107.75 206.041C107.529 205.493 107.2 204.996 106.782 204.579C106.365 204.162 105.868 203.833 105.321 203.612C104.773 203.391 104.187 203.283 103.597 203.294H94.9166C94.3265 203.283 93.7404 203.391 93.1931 203.612C92.6458 203.833 92.1487 204.162 91.7314 204.579C91.3141 204.996 90.9852 205.493 90.7644 206.041C90.5435 206.588 90.4353 207.174 90.446 207.764V216.445C90.4353 217.035 90.5435 217.621 90.7644 218.168C90.9852 218.716 91.3141 219.213 91.7314 219.63C92.1487 220.047 92.6458 220.376 93.1931 220.597C93.7404 220.818 94.3265 220.926 94.9166 220.915H99.1267V229.336H94.9166C94.3265 229.325 93.7404 229.433 93.1931 229.654C92.6458 229.875 92.1487 230.204 91.7314 230.621C91.3141 231.038 90.9852 231.536 90.7644 232.083C90.5435 232.63 90.4353 233.216 90.446 233.806V268.529C90.4353 269.119 90.5435 269.705 90.7644 270.252C90.9852 270.8 91.3141 271.297 91.7314 271.714C92.1487 272.131 92.6458 272.46 93.1931 272.681C93.7404 272.902 94.3265 273.01 94.9166 273H103.597C104.783 273 105.92 272.529 106.758 271.69C107.597 270.852 108.068 269.715 108.068 268.529C108.068 267.343 107.597 266.206 106.758 265.368C105.92 264.529 104.783 264.058 103.597 264.058H99.3871V255.638H116.488V268.529C116.488 269.715 116.959 270.852 117.797 271.69C118.636 272.529 119.773 273 120.959 273C122.144 273 123.281 272.529 124.12 271.69C124.958 270.852 125.429 269.715 125.429 268.529V255.638H129.639C130.825 255.638 131.962 255.167 132.8 254.329C133.639 253.49 134.11 252.353 134.11 251.168C134.11 249.982 133.639 248.845 132.8 248.006C131.962 247.168 130.825 246.697 129.639 246.697ZM160.152 251.17C160.152 253.639 158.15 255.64 155.681 255.64C153.212 255.64 151.211 253.639 151.211 251.17C151.211 248.701 153.212 246.699 155.681 246.699C158.15 246.699 160.152 248.701 160.152 251.17ZM147.002 264.32C149.471 264.32 151.472 262.318 151.472 259.849C151.472 257.38 149.471 255.379 147.002 255.379C144.533 255.379 142.531 257.38 142.531 259.849C142.531 262.318 144.533 264.32 147.002 264.32ZM168.832 259.849C168.832 262.318 166.83 264.32 164.361 264.32C161.892 264.32 159.891 262.318 159.891 259.849C159.891 257.38 161.892 255.379 164.361 255.379C166.83 255.379 168.832 257.38 168.832 259.849ZM181.724 264.32C184.193 264.32 186.195 262.318 186.195 259.849C186.195 257.38 184.193 255.379 181.724 255.379C179.255 255.379 177.254 257.38 177.254 259.849C177.254 262.318 179.255 264.32 181.724 264.32ZM203.555 255.377H207.765C208.356 255.366 208.942 255.474 209.489 255.695C210.036 255.916 210.533 256.245 210.951 256.662C211.368 257.079 211.697 257.577 211.918 258.124C212.139 258.671 212.247 259.257 212.236 259.847V268.528C212.236 269.714 211.765 270.851 210.927 271.689C210.088 272.527 208.951 272.998 207.765 272.998C206.58 272.998 205.443 272.527 204.604 271.689C203.766 270.851 203.295 269.714 203.295 268.528V264.318H199.085C198.495 264.329 197.909 264.22 197.361 264C196.814 263.779 196.317 263.45 195.9 263.032C195.482 262.615 195.153 262.118 194.933 261.571C194.712 261.023 194.603 260.437 194.614 259.847V255.637H190.404C189.218 255.637 188.081 255.166 187.243 254.328C186.405 253.489 185.934 252.352 185.934 251.167C185.934 249.981 186.405 248.844 187.243 248.005C188.081 247.167 189.218 246.696 190.404 246.696H199.085C199.675 246.685 200.261 246.794 200.808 247.014C201.356 247.235 201.853 247.564 202.27 247.981C202.687 248.399 203.016 248.896 203.237 249.443C203.458 249.99 203.566 250.577 203.555 251.167V255.377ZM155.681 273C158.15 273 160.152 270.998 160.152 268.529C160.152 266.06 158.15 264.059 155.681 264.059C153.212 264.059 151.211 266.06 151.211 268.529C151.211 270.998 153.212 273 155.681 273ZM177.511 268.529C177.511 270.998 175.51 273 173.041 273C170.572 273 168.57 270.998 168.57 268.529C168.57 266.06 170.572 264.059 173.041 264.059C175.51 264.059 177.511 266.06 177.511 268.529ZM190.404 273C192.873 273 194.875 270.998 194.875 268.529C194.875 266.06 192.873 264.059 190.404 264.059C187.935 264.059 185.934 266.06 185.934 268.529C185.934 270.998 187.935 273 190.404 273ZM255.64 268.529C255.64 270.998 253.639 273 251.17 273C248.701 273 246.699 270.998 246.699 268.529C246.699 266.06 248.701 264.059 251.17 264.059C253.639 264.059 255.64 266.06 255.64 268.529ZM259.235 76.6444C254.239 79.9828 248.365 81.7647 242.356 81.7647C238.359 81.7897 234.397 81.0209 230.699 79.5029C227.002 77.9849 223.643 75.7479 220.816 72.9216C217.99 70.0954 215.753 66.7361 214.235 63.0387C212.717 59.3413 211.948 55.3792 211.973 51.3824C211.973 45.3733 213.755 39.4992 217.094 34.5028C220.432 29.5065 225.177 25.6123 230.729 23.3127C236.28 21.0132 242.389 20.4115 248.283 21.5838C254.177 22.7561 259.59 25.6498 263.839 29.8988C268.088 34.1479 270.982 39.5615 272.154 45.4551C273.327 51.3487 272.725 57.4576 270.425 63.0092C268.126 68.5609 264.232 73.3059 259.235 76.6444ZM254.412 33.3381C250.844 30.9535 246.648 29.6807 242.356 29.6807C239.498 29.6527 236.663 30.1948 234.018 31.2755C231.372 32.3562 228.969 33.9537 226.948 35.9745C224.927 37.9953 223.329 40.3988 222.249 43.0445C221.168 45.6901 220.626 48.5247 220.654 51.3824C220.654 55.6746 221.927 59.8704 224.311 63.4392C226.696 67.008 230.085 69.7896 234.051 71.4321C238.016 73.0747 242.38 73.5044 246.589 72.6671C250.799 71.8297 254.666 69.7628 257.701 66.7278C260.736 63.6928 262.803 59.8259 263.64 55.6162C264.478 51.4065 264.048 47.043 262.405 43.0775C260.763 39.112 257.981 35.7227 254.412 33.3381ZM51.3824 211.973C45.3733 211.973 39.4992 213.755 34.5028 217.094C29.5065 220.432 25.6123 225.177 23.3127 230.729C21.0132 236.28 20.4115 242.389 21.5838 248.283C22.7561 254.177 25.6498 259.59 29.8988 263.839C34.1479 268.088 39.5615 270.982 45.4551 272.154C51.3487 273.327 57.4576 272.725 63.0092 270.425C68.5609 268.126 73.3059 264.232 76.6444 259.235C79.9828 254.239 81.7647 248.365 81.7647 242.356C81.7897 238.359 81.0209 234.397 79.5029 230.699C77.9849 227.002 75.7479 223.643 72.9216 220.816C70.0954 217.99 66.7361 215.753 63.0387 214.235C59.3413 212.717 55.3792 211.948 51.3824 211.973ZM51.3824 264.057C47.0902 264.057 42.8944 262.785 39.3256 260.4C35.7567 258.015 32.9752 254.626 31.3326 250.66C29.6901 246.695 29.2603 242.332 30.0977 238.122C30.935 233.912 33.0019 230.045 36.037 227.01C39.072 223.975 42.9389 221.908 47.1486 221.071C51.3583 220.234 55.7218 220.663 59.6873 222.306C63.6527 223.948 67.0421 226.73 69.4267 230.299C71.8113 233.868 73.0841 238.063 73.0841 242.356C73.1121 245.213 72.5699 248.048 71.4892 250.694C70.4085 253.339 68.8111 255.743 66.7903 257.763C64.7695 259.784 62.3659 261.382 59.7203 262.462C57.0747 263.543 54.2401 264.085 51.3824 264.057ZM64.4053 51.3843C64.4053 58.5756 58.5756 64.4053 51.3843 64.4053C44.193 64.4053 38.3633 58.5756 38.3633 51.3843C38.3633 44.193 44.193 38.3633 51.3843 38.3633C58.5756 38.3633 64.4053 44.193 64.4053 51.3843ZM242.357 64.4053C249.548 64.4053 255.378 58.5756 255.378 51.3843C255.378 44.193 249.548 38.3633 242.357 38.3633C235.166 38.3633 229.336 44.193 229.336 51.3843C229.336 58.5756 235.166 64.4053 242.357 64.4053ZM64.4053 242.357C64.4053 249.548 58.5756 255.378 51.3843 255.378C44.193 255.378 38.3633 249.548 38.3633 242.357C38.3633 235.166 44.193 229.336 51.3843 229.336C58.5756 229.336 64.4053 235.166 64.4053 242.357Z" fill="#E5332A"/>
</svg>
