<svg width="37" height="46" viewBox="0 0 37 46" fill="none" xmlns="http://www.w3.org/2000/svg">
<path d="M34.2641 43.8574L19.2952 32.3953C18.9412 32.1394 18.4861 32.1394 18.1321 32.3953L3.2137 43.8574C2.70799 44.2156 2 43.8574 2 43.2434V6.24715C2 3.89331 3.82055 2 6.09623 2H31.331C33.6067 2 35.4273 3.89331 35.4273 6.24715V43.2434C35.4273 43.8574 34.7193 44.2156 34.2641 43.8574Z" stroke="#E5332A" stroke-width="3" stroke-miterlimit="10"/>
<path d="M19.2951 6.91255L22.2788 13.053C22.3293 13.1553 22.3799 13.2065 22.481 13.2065L29.207 14.1788C29.4092 14.2299 29.5104 14.4858 29.3587 14.6393L24.5039 19.3981C24.4533 19.4493 24.4027 19.5517 24.4533 19.654L25.6164 26.4085C25.667 26.6132 25.4142 26.7667 25.2624 26.6643L19.2445 23.4918C19.194 23.4406 19.0928 23.4406 18.9917 23.4918L12.9738 26.6643C12.7715 26.7667 12.5692 26.6132 12.6198 26.4085L13.7323 19.654C13.7323 19.5517 13.7323 19.5005 13.6817 19.3981L8.82695 14.5881C8.67524 14.4346 8.77638 14.1788 8.97867 14.1276L15.7046 13.1553C15.8057 13.1553 15.8563 13.1042 15.9069 13.0018L18.8905 6.86138C18.9411 6.70787 19.194 6.70787 19.2951 6.91255Z" stroke="#E5332A" stroke-width="3" stroke-miterlimit="10"/>
</svg>
