<svg width="26" height="25" viewBox="0 0 26 25" fill="none" xmlns="http://www.w3.org/2000/svg">
<path d="M8.70786 24.2609C9.83662 24.2609 10.7517 23.3381 10.7517 22.1998C10.7517 21.0615 9.83662 20.1387 8.70786 20.1387C7.5791 20.1387 6.66406 21.0615 6.66406 22.1998C6.66406 23.3381 7.5791 24.2609 8.70786 24.2609Z" stroke="#E6332A" stroke-miterlimit="10"/>
<path d="M19.6571 24.2609C20.7858 24.2609 21.7009 23.3381 21.7009 22.1998C21.7009 21.0615 20.7858 20.1387 19.6571 20.1387C18.5283 20.1387 17.6133 21.0615 17.6133 22.1998C17.6133 23.3381 18.5283 24.2609 19.6571 24.2609Z" stroke="#E6332A" stroke-miterlimit="10"/>
<path d="M21.7008 17.6058H10.7519C10.7519 17.6058 8.5621 17.5469 8.44531 15.6331C8.44531 15.6036 8.44531 14.1903 9.26283 13.6309" stroke="#E6332A" stroke-miterlimit="10" stroke-linecap="round" stroke-linejoin="round"/>
<path d="M21.3804 12.5133L8.94245 13.8089L5.81836 4.38672L25.0008 4.68116L23.687 10.4522C23.4242 11.5711 22.4899 12.3956 21.3804 12.5133Z" fill="#E6332A" stroke="#E6332A" stroke-miterlimit="10" stroke-linecap="round" stroke-linejoin="round"/>
<path d="M1 1C1 1 3.07299 1 3.13139 1C3.18978 1 5.0292 1.14722 5.32117 2.61943C5.32117 2.64888 6.08029 5.18108 6.08029 5.18108" stroke="#E6332A" stroke-miterlimit="10" stroke-linecap="round" stroke-linejoin="round"/>
</svg>
