<svg width="26" height="25" viewBox="0 0 26 25" fill="none" xmlns="http://www.w3.org/2000/svg">
<path d="M8.70786 24.2628C9.83662 24.2628 10.7517 23.34 10.7517 22.2017C10.7517 21.0634 9.83662 20.1406 8.70786 20.1406C7.5791 20.1406 6.66406 21.0634 6.66406 22.2017C6.66406 23.34 7.5791 24.2628 8.70786 24.2628Z" fill="#E5332A" stroke="#525252" stroke-miterlimit="10"/>
<path d="M19.6571 24.2628C20.7858 24.2628 21.7009 23.34 21.7009 22.2017C21.7009 21.0634 20.7858 20.1406 19.6571 20.1406C18.5283 20.1406 17.6133 21.0634 17.6133 22.2017C17.6133 23.34 18.5283 24.2628 19.6571 24.2628Z" fill="#E5332A" stroke="#525252" stroke-miterlimit="10"/>
<path d="M21.7008 17.6078H10.7519C10.7519 17.6078 8.5621 17.5489 8.44531 15.635C8.44531 15.6056 8.44531 14.1923 9.26283 13.6328" stroke="#525252" stroke-miterlimit="10" stroke-linecap="round" stroke-linejoin="round"/>
<path d="M21.3785 12.5133L8.94049 13.8089L5.81641 4.38672L24.9989 4.68116L23.685 10.4522C23.4222 11.5711 22.4879 12.3956 21.3785 12.5133Z" fill="#E5332A" stroke="#525252" stroke-miterlimit="10" stroke-linecap="round" stroke-linejoin="round"/>
<path d="M1 1C1 1 3.07299 1 3.13139 1C3.18978 1 5.0292 1.14722 5.32117 2.61943C5.32117 2.64888 6.08029 5.18108 6.08029 5.18108" stroke="#525252" stroke-miterlimit="10" stroke-linecap="round" stroke-linejoin="round"/>
</svg>
