<svg width="34" height="34" viewBox="0 0 34 34" fill="none" xmlns="http://www.w3.org/2000/svg">
<circle cx="17" cy="17" r="8.5" fill="#EEEEEE"/>
<path fill-rule="evenodd" clip-rule="evenodd" d="M21.9229 13.7219C22.3135 13.3314 22.3135 12.6982 21.9229 12.3077C21.5324 11.9172 20.8992 11.9172 20.5087 12.3077L17.1152 15.7012L13.7218 12.3077C13.3312 11.9172 12.6981 11.9172 12.3075 12.3077C11.917 12.6982 11.917 13.3314 12.3075 13.7219L15.701 17.1154L12.3076 20.5088C11.9171 20.8993 11.9171 21.5325 12.3076 21.923C12.6981 22.3135 13.3313 22.3135 13.7218 21.923L17.1152 18.5296L20.5086 21.923C20.8992 22.3135 21.5323 22.3135 21.9228 21.923C22.3134 21.5325 22.3134 20.8993 21.9228 20.5088L18.5294 17.1154L21.9229 13.7219Z" fill="#767676"/>
</svg>
