<svg width="53" height="54" viewBox="0 0 53 54" fill="none" xmlns="http://www.w3.org/2000/svg">
<path d="M2.0001 52.1999V47.6888C2.0001 47.6888 1.93968 43.2386 4.7193 41.1049C4.7193 41.1659 6.89465 38.9103 10.2181 39.0932C10.2181 39.1542 12.8769 38.8494 13.7833 36.9596C13.7229 37.0205 14.871 34.9478 14.5688 34.2163" stroke="#E5332A" stroke-width="2.5" stroke-miterlimit="10" stroke-linecap="round" stroke-linejoin="round"/>
<path d="M20.0679 38.6664C20.0679 38.6664 15.5964 39.276 13.9648 36.7766" stroke="#E5332A" stroke-width="2.5" stroke-miterlimit="10" stroke-linecap="round" stroke-linejoin="round"/>
<path d="M27.5608 39.2151C26.1106 39.0931 24.2373 38.8493 23.2705 36.7766" stroke="#E5332A" stroke-width="2.5" stroke-miterlimit="10" stroke-linecap="round" stroke-linejoin="round"/>
<path d="M29.1324 16.4153V23.3649C29.1324 24.2793 29.0115 25.1937 28.7698 26.1081C28.226 28.1808 26.8966 31.5337 23.9961 33.1187C23.9961 33.1797 17.4096 37.2641 11.9712 32.3262C12.0317 32.3872 7.31839 29.522 7.92266 20.8045C7.98309 20.8655 7.49967 13.9768 13.4215 14.0988C14.207 14.0988 14.9926 14.3426 15.7177 14.6474C17.0471 15.257 18.9807 16.4763 21.5791 17.0859C22.5459 17.3297 25.0838 17.3907 25.0838 17.3907" stroke="#E5332A" stroke-width="2.5" stroke-miterlimit="10" stroke-linecap="round" stroke-linejoin="round"/>
<path d="M7.49921 23.7918C7.49921 23.7918 5.14258 23.2432 5.14258 20.1951C5.14258 20.2561 5.14258 15.2573 5.14258 15.2573C5.14258 15.2573 5.44471 6.29595 12.6959 3.24788C12.7563 3.24788 18.0739 0.138854 26.594 3.73557L24.2374 5.07672C24.2374 5.07672 30.8843 5.13768 33.6639 10.3194C33.6639 10.2584 31.8511 11.7215 31.8511 16.5374L31.972 20.8657" stroke="#E5332A" stroke-width="2.5" stroke-miterlimit="10" stroke-linecap="round" stroke-linejoin="round"/>
<path d="M32.3945 32.9969C32.3945 29.2173 35.4159 26.1692 39.1623 26.1692C42.9088 26.1692 45.9301 29.2173 45.9301 32.9969" stroke="#E5332A" stroke-width="2.5" stroke-miterlimit="10" stroke-linecap="round" stroke-linejoin="round"/>
<path d="M48.1064 52.2608H30.1597C28.2261 52.2608 26.7758 50.6148 26.8967 48.6641L28.2865 33.3628H49.9192L51.309 48.6641C51.4903 50.6148 50.04 52.2608 48.1064 52.2608Z" stroke="#E5332A" stroke-width="2.5" stroke-miterlimit="10" stroke-linecap="round" stroke-linejoin="round"/>
</svg>
