<svg width="20" height="20" viewBox="0 0 20 20" fill="none" xmlns="http://www.w3.org/2000/svg">
<g clip-path="url(#clip0_1402_22694)">
<path d="M15.0001 10.8334V16.6667H3.33341V5.00008H7.51675C7.55841 4.40841 7.70008 3.85008 7.91675 3.33341H3.33341C2.41675 3.33341 1.66675 4.08341 1.66675 5.00008V16.6667C1.66675 17.5834 2.41675 18.3334 3.33341 18.3334H15.0001C15.9167 18.3334 16.6667 17.5834 16.6667 16.6667V12.5001L15.0001 10.8334ZM13.7501 15.0001H4.58341L6.87508 12.0584L8.50841 14.0251L10.8001 11.0751L13.7501 15.0001ZM16.0834 7.40841C16.4501 6.82508 16.6667 6.15008 16.6667 5.41675C16.6667 3.34175 14.9917 1.66675 12.9167 1.66675C10.8417 1.66675 9.16675 3.34175 9.16675 5.41675C9.16675 7.49175 10.8417 9.16675 12.9084 9.16675C13.6417 9.16675 14.3251 8.95008 14.9001 8.58341L17.5001 11.1834L18.6834 10.0001L16.0834 7.40841ZM12.9167 7.50008C11.7667 7.50008 10.8334 6.56675 10.8334 5.41675C10.8334 4.26675 11.7667 3.33341 12.9167 3.33341C14.0667 3.33341 15.0001 4.26675 15.0001 5.41675C15.0001 6.56675 14.0667 7.50008 12.9167 7.50008Z" fill="#FA3C30"/>
</g>
<defs>
<clipPath id="clip0_1402_22694">
<rect width="20" height="20" fill="white"/>
</clipPath>
</defs>
</svg>
