<svg width="66" height="65" viewBox="0 0 66 65" fill="none" xmlns="http://www.w3.org/2000/svg">
<path d="M57.6605 12.6055H47.6172V17.7168H57.6605V12.6055Z" fill="#E5332A"/>
<path d="M57.6605 20.7344H47.6172V25.8457H57.6605V20.7344Z" fill="#E5332A"/>
<path d="M57.6605 28.8711H47.6172V33.9824H57.6605V28.8711Z" fill="#E5332A"/>
<path d="M57.6605 37.0039H47.6172V42.1152H57.6605V37.0039Z" fill="#E5332A"/>
<path d="M57.6605 45.1602H47.6172V50.2715H57.6605V45.1602Z" fill="#E5332A"/>
<path fill-rule="evenodd" clip-rule="evenodd" d="M62.2456 5.54699H38.7001V0L0 5.96968V58.3385L38.7001 65V56.7757H62.2456C62.9606 56.8105 63.6602 56.5603 64.1909 56.08C64.7217 55.5996 65.0403 54.9285 65.0768 54.2136V8.09625C65.037 7.38363 64.7171 6.71561 64.1867 6.23802C63.6563 5.76043 62.9585 5.51206 62.2456 5.54699ZM26.9146 43.6963L21.6496 43.3376L18.0882 33.986L14.5141 42.9532L9.6719 42.5177L15.3083 31.6802L10.1074 20.0739L15.0907 19.7921L18.2291 28.4135L21.9314 19.4462L26.9146 19.1644L20.8553 31.3982L26.9146 43.6963ZM62.6171 54.6491H38.6233V50.2681H44.4008V45.1439H38.572V42.1205H44.4265V36.9964H38.5336V33.9731H44.4648V28.849H38.5207V25.8514H44.4648V20.7273H38.5207V17.704H44.4648V12.5799H38.5207V7.91688H62.7196L62.6171 54.6491Z" fill="#E5332A"/>
</svg>
