<svg width="53" height="66" viewBox="0 0 53 66" fill="none" xmlns="http://www.w3.org/2000/svg">
<path fill-rule="evenodd" clip-rule="evenodd" d="M3.76001 0H52.0599V52H48.48V3.6499H7.38V8.95996H33.11V24.4099H7.38V48.4099H17.48V52.0099H3.73999V24.4199H0V8.96997H3.73999V0.0599365L3.76001 0ZM31.1799 58.5099L28.29 55.6299L25.75 58.1699L30.4299 62.86L32.98 65.3999L35.52 62.86L40.21 58.1699L37.66 55.6299L34.78 58.5099V43.86H31.1799V58.5099ZM3.93994 21.4299H5.93994V17.8099H7.19995C7.86914 17.8255 8.5384 17.7819 9.19995 17.6799C9.55959 17.5918 9.89904 17.4357 10.2 17.22C10.5516 16.962 10.8307 16.6175 11.01 16.22C11.2415 15.7621 11.3516 15.2526 11.33 14.74C11.3599 14.0728 11.1664 13.4147 10.78 12.87C10.4425 12.4066 9.95485 12.0743 9.40002 11.9299C8.63752 11.7982 7.86311 11.7478 7.08997 11.7799H3.97998V21.3799L3.93994 21.4299ZM5.93994 13.4299V16.1599H6.93994C7.45462 16.1891 7.97075 16.1385 8.46997 16.0099C8.7158 15.9179 8.9283 15.7542 9.07996 15.5399C9.22456 15.3166 9.30098 15.056 9.29993 14.7899C9.30846 14.4714 9.19799 14.1612 8.98999 13.9199C8.78612 13.6925 8.51112 13.541 8.20996 13.49C7.74858 13.4377 7.28411 13.4176 6.81995 13.4299H5.93994ZM12.9399 11.7999V21.3999H16.58C17.1568 21.4199 17.7334 21.3525 18.29 21.2C18.7959 21.055 19.2614 20.7948 19.65 20.4399C20.1124 19.9598 20.455 19.3774 20.65 18.74C20.8509 18.0926 20.9486 17.4177 20.9399 16.74C20.9607 15.9715 20.8561 15.2048 20.63 14.47C20.4413 13.8889 20.1272 13.3562 19.71 12.9099C19.3183 12.4919 18.8207 12.1877 18.27 12.0299C17.6719 11.8812 17.0558 11.8173 16.4399 11.84L12.9399 11.7999ZM14.88 13.4299V19.7799H16.3199C16.7121 19.7928 17.1045 19.7627 17.49 19.6899C17.7805 19.6271 18.0495 19.4891 18.27 19.2899C18.5191 19.0343 18.6952 18.7167 18.78 18.37C18.9251 17.7951 18.989 17.2026 18.97 16.61C18.9922 16.0337 18.9282 15.4573 18.78 14.8999C18.6765 14.5492 18.4874 14.2297 18.23 13.97C17.9804 13.7409 17.6724 13.5851 17.34 13.5199C16.8137 13.4426 16.2816 13.4125 15.75 13.4299H14.88ZM22.62 21.4299H24.62V17.36H28.62V15.74H24.62V13.46H29.27V11.83H22.6699V21.4299H22.62ZM42.51 32.0099V28.4099H13.41V32.0099H42.51ZM42.51 39.5499V35.95H13.41V39.5499H42.51Z" fill="#E5332A"/>
</svg>
