<svg width="17" height="17" viewBox="0 0 17 17" fill="none" xmlns="http://www.w3.org/2000/svg">
<path d="M16.3718 9.6C16.1044 9.6 15.8949 9.82085 15.8949 10.0856V12.1801C15.8949 13.8574 14.7395 15.1785 13.3667 15.1785H4.33193C2.95915 15.1785 1.80375 13.8574 1.80375 12.1801V10.0856C1.80375 9.82085 1.59431 9.6 1.32687 9.6C1.05944 9.6 0.85 9.82085 0.85 10.0856V12.1801C0.85 14.3487 2.39346 16.1498 4.33193 16.1498H13.3667C15.3052 16.1498 16.8487 14.3487 16.8487 12.1801V10.0856C16.8487 9.82085 16.6392 9.6 16.3718 9.6Z" fill="currentColor" stroke="currentColor" stroke-width="0.3"/>
<path d="M9.27796 8.78125H10.3988C10.6815 8.78125 10.9367 8.94238 11.0624 9.19788C11.1877 9.45282 11.1618 9.75439 10.9936 9.98352L9.27796 8.78125ZM9.27796 8.78125V1.29024C9.27796 1.0492 9.08572 0.85 8.84259 0.85C8.59946 0.85 8.40721 1.0492 8.40721 1.29024V8.78319H7.30155C7.01886 8.78319 6.76365 8.94432 6.63804 9.19982C6.5127 9.45477 6.53855 9.75637 6.70688 9.98551L6.70695 9.9856L8.25504 12.0958C8.25513 12.096 8.25522 12.0961 8.25532 12.0962C8.39596 12.2899 8.61422 12.3996 8.8502 12.3996C9.08721 12.3996 9.30486 12.2872 9.44483 12.0966L9.44491 12.0965L10.9934 9.98367L9.27796 8.78125Z" fill="currentColor" stroke="currentColor" stroke-width="0.3"/>
</svg>
