<svg width="13" height="20" viewBox="0 0 13 20" fill="none" xmlns="http://www.w3.org/2000/svg">
<path d="M12.9675 10.7448C12.9675 10.4155 12.7004 10.1484 12.371 10.1484C12.0416 10.1484 11.7745 10.4155 11.7745 10.7448C11.7745 13.6623 9.40116 16.0356 6.48366 16.0356C3.56631 16.0356 1.19294 13.6623 1.19294 10.7448C1.19294 10.4155 0.92591 10.1484 0.596471 10.1484C0.267031 10.1484 0 10.4155 0 10.7448C0 14.119 2.59066 16.8987 5.88719 17.2008V18.8065H3.67373C3.34429 18.8065 3.07726 19.0735 3.07726 19.403C3.07726 19.7324 3.34429 19.9994 3.67373 19.9994H9.29374C9.62303 19.9994 9.89006 19.7324 9.89006 19.403C9.89006 19.0735 9.62303 18.8065 9.29374 18.8065H7.08013V17.2008C10.3768 16.8988 12.9675 14.119 12.9675 10.7448Z" fill="white"/>
<path d="M6.48306 14.5646C8.58894 14.5646 10.3022 12.8514 10.3022 10.7455V3.819C10.3022 1.71327 8.58894 0 6.48306 0C4.37733 0 2.66406 1.71327 2.66406 3.819V10.7455C2.66406 12.8514 4.37733 14.5646 6.48306 14.5646ZM3.85685 3.819C3.85685 2.37093 5.03499 1.19294 6.48306 1.19294C7.93113 1.19294 9.10927 2.37093 9.10927 3.819V10.7455C9.10927 12.1935 7.93113 13.3717 6.48306 13.3717C5.03499 13.3717 3.85685 12.1935 3.85685 10.7455V3.819Z" fill="white"/>
</svg>
