<svg width="208" height="208" viewBox="0 0 208 208" fill="none" xmlns="http://www.w3.org/2000/svg">
<path d="M4 4L204 204" stroke="white" stroke-width="7" stroke-linecap="round" stroke-linejoin="round"/>
<path d="M76.7273 24.6914H131.273L149.455 51.1282H185.818C190.64 51.1282 195.265 52.985 198.675 56.2903C202.084 59.5955 204 64.0784 204 68.7527V151.059M133.818 132.906C130.801 137.18 126.849 140.758 122.244 143.383C117.638 146.009 112.492 147.619 107.172 148.098C101.852 148.577 96.4885 147.914 91.4628 146.156C86.4371 144.398 81.8728 141.588 78.0947 137.925C74.3166 134.263 71.4175 129.839 69.6037 124.967C67.7898 120.095 67.1057 114.896 67.6001 109.739C68.0944 104.582 69.7551 99.5939 72.4639 95.1296C75.1728 90.6654 78.8632 86.8346 83.2727 83.9098M185.818 183.312H22.1818C17.3597 183.312 12.7351 181.455 9.32533 178.15C5.91558 174.845 4 170.362 4 165.688V68.7527C4 64.0784 5.91558 59.5955 9.32533 56.2903C12.7351 52.985 17.3597 51.1282 22.1818 51.1282H49.4545L185.818 183.312Z" stroke="white" stroke-width="7" stroke-linecap="round" stroke-linejoin="round"/>
</svg>
