<svg width="54" height="54" viewBox="0 0 54 54" fill="none" xmlns="http://www.w3.org/2000/svg">
<path d="M31.6689 20.0728V35.308" stroke="#E5332A" stroke-width="2.5" stroke-miterlimit="10" stroke-linecap="round" stroke-linejoin="round"/>
<path d="M44.5598 14.9526V30.2495" stroke="#E5332A" stroke-width="2.5" stroke-miterlimit="10" stroke-linecap="round" stroke-linejoin="round"/>
<path d="M18.7773 14.9526V30.2495" stroke="#E5332A" stroke-width="2.5" stroke-miterlimit="10" stroke-linecap="round" stroke-linejoin="round"/>
<path d="M31.6689 35.6163L44.5603 30.25" stroke="#E5332A" stroke-width="2.5" stroke-miterlimit="10" stroke-linecap="round" stroke-linejoin="round"/>
<path d="M31.6687 35.6163L18.7773 30.25" stroke="#E5332A" stroke-width="2.5" stroke-miterlimit="10" stroke-linecap="round" stroke-linejoin="round"/>
<path d="M31.6689 20.0723L44.5603 14.7061" stroke="#E5332A" stroke-width="2.5" stroke-miterlimit="10" stroke-linecap="round" stroke-linejoin="round"/>
<path d="M31.6687 20.0723L18.7773 14.7061" stroke="#E5332A" stroke-width="2.5" stroke-miterlimit="10" stroke-linecap="round" stroke-linejoin="round"/>
<path d="M31.6692 9.34033L18.7778 14.7066" stroke="#E5332A" stroke-width="2.5" stroke-miterlimit="10" stroke-linecap="round" stroke-linejoin="round"/>
<path d="M31.6689 9.33984L44.5603 14.7061" stroke="#E5332A" stroke-width="2.5" stroke-miterlimit="10" stroke-linecap="round" stroke-linejoin="round"/>
<path d="M17.2352 37.2197L2 52.455" stroke="#E5332A" stroke-width="2.5" stroke-miterlimit="10" stroke-linecap="round" stroke-linejoin="round"/>
<path d="M31.6684 42.4628C42.8419 42.4628 51.8998 33.4049 51.8998 22.2314C51.8998 11.0579 42.8419 2 31.6684 2C20.4949 2 11.437 11.0579 11.437 22.2314C11.437 33.4049 20.4949 42.4628 31.6684 42.4628Z" stroke="#E5332A" stroke-width="2.5" stroke-miterlimit="10" stroke-linecap="round" stroke-linejoin="round"/>
</svg>
