<svg width="51" height="54" viewBox="0 0 51 54" fill="none" xmlns="http://www.w3.org/2000/svg">
<path d="M25.4268 45.2065C34.3367 45.2065 41.5596 37.9836 41.5596 29.0737C41.5596 20.1638 34.3367 12.9409 25.4268 12.9409C16.5169 12.9409 9.29395 20.1638 9.29395 29.0737C9.29395 37.9836 16.5169 45.2065 25.4268 45.2065Z" stroke="#E5332A" stroke-width="2.5" stroke-miterlimit="10"/>
<path d="M25.4266 5.64697C38.3452 5.64697 48.8531 16.1549 48.8531 29.0735C48.8531 41.9922 38.3452 52.5001 25.4266 52.5001C12.508 52.5001 2 41.9922 2 29.0735C2 28.6409 2 28.2082 2.06181 27.7755" stroke="#E5332A" stroke-width="2.5" stroke-miterlimit="10" stroke-linecap="round"/>
<path d="M8.92383 12.4462C9.35651 12.0135 9.78919 11.6426 10.2219 11.21" stroke="#E5332A" stroke-width="2.5" stroke-miterlimit="10" stroke-linecap="round"/>
<path d="M5.39746 16.8961C5.52108 16.7107 5.64471 16.5253 5.76833 16.3398" stroke="#E5332A" stroke-width="2.5" stroke-miterlimit="10" stroke-linecap="round"/>
<path d="M2.92773 22.522C2.98955 22.3984 2.98955 22.213 3.05136 22.0894" stroke="#E5332A" stroke-width="2.5" stroke-miterlimit="10" stroke-linecap="round"/>
<path d="M25.3018 19.8643V29.0742L29.814 33.5864" stroke="#E5332A" stroke-width="2.5" stroke-miterlimit="10" stroke-linecap="round" stroke-linejoin="round"/>
<path d="M29.5049 2L24.6836 5.7705L29.3195 9.29376" stroke="#E5332A" stroke-width="2.5" stroke-miterlimit="10" stroke-linecap="round" stroke-linejoin="round"/>
</svg>
