<svg width="53" height="49" viewBox="0 0 53 49" fill="none" xmlns="http://www.w3.org/2000/svg">
<path d="M48.9163 42.4041H41.3861C40.2002 42.4041 39.1923 41.4522 39.1923 40.2029V28.6016C39.1923 27.4117 38.2436 26.4003 36.9984 26.4003H25.0805C23.8946 26.4003 22.8867 27.3522 22.8867 28.6016V40.2029C22.8867 41.3928 21.938 42.4041 20.6928 42.4041H12.7476C11.5617 42.4041 10.5537 41.4522 10.5537 40.2029V13.7282C10.5537 12.8953 11.0281 12.1814 11.7396 11.7649L30.0611 2.24592C30.7134 1.88895 31.4249 1.94845 32.0771 2.24592L49.9243 11.7649C50.6358 12.1219 51.1102 12.8953 51.1102 13.7282V40.2624C51.1102 41.4523 50.1022 42.4041 48.9163 42.4041Z" stroke="#E5332A" stroke-width="3" stroke-miterlimit="10" stroke-linecap="round" stroke-linejoin="round"/>
<path d="M15.8906 47.9965C23.6188 47.9965 29.8838 41.7104 29.8838 33.956C29.8838 26.2017 23.6188 19.9155 15.8906 19.9155C8.16241 19.9155 1.89746 26.2017 1.89746 33.956C1.89746 41.7104 8.16241 47.9965 15.8906 47.9965Z" fill="white"/>
<path d="M15.06 47.1637C13.637 47.1637 12.3918 46.1523 12.0953 44.7245L11.7396 42.7612C11.621 42.7017 11.4431 42.6422 11.3245 42.5827L9.66432 43.7131C9.18998 44.07 8.59705 44.189 8.00411 44.189C7.17401 44.189 6.4625 43.8915 5.86957 43.2966L4.743 42.1662C3.73502 41.1548 3.55714 39.5485 4.38724 38.3586L5.51381 36.6928C5.45451 36.5738 5.39522 36.3953 5.33593 36.2763L3.37926 35.8599C1.95622 35.5624 0.948242 34.3131 0.948242 32.8852V31.2789C0.948242 29.851 1.95622 28.6017 3.37926 28.3042L3.67572 28.2447H3.97219L5.33593 28.1257C5.39522 27.8877 5.51381 27.7093 5.5731 27.4713L4.44653 25.8055C3.55714 24.6751 3.73502 23.1282 4.743 22.1169L5.86957 20.9865C6.4625 20.3915 7.17401 20.0941 8.00411 20.0941C8.59705 20.0941 9.18998 20.2726 9.66432 20.57L11.3245 21.7004C11.4431 21.6409 11.621 21.5814 11.7396 21.5219L12.1546 19.5586C12.4511 18.1308 13.6962 17.1194 15.1193 17.1194H16.7202C18.1432 17.1194 19.3884 18.1308 19.6848 19.5586L20.0999 21.5219C20.2185 21.5814 20.3964 21.6409 20.5149 21.7004L22.1752 20.57C22.6495 20.2131 23.2424 20.0941 23.8354 20.0941C24.6655 20.0941 25.377 20.3915 25.9699 20.9865L27.0965 22.1169C28.1045 23.1282 28.2823 24.7346 27.4522 25.9244L26.3257 27.5903C26.385 27.7093 26.4443 27.8877 26.5035 28.0067L28.4602 28.4232C29.8833 28.7207 30.8912 29.97 30.8912 31.3979V33.0637C30.8912 34.4915 29.8833 35.7409 28.4602 36.0384L26.5035 36.4548C26.4443 36.5738 26.385 36.7523 26.3257 36.8713L27.4522 38.5371C28.223 39.727 28.1045 41.3333 27.0965 42.3447L25.9106 43.3561C25.3177 43.951 24.6062 44.2485 23.7761 44.2485C23.1831 44.2485 22.5902 44.07 22.1159 43.7726L20.4557 42.6422C20.3371 42.7017 20.1592 42.7612 20.0406 42.8207L19.6256 44.7839C19.3291 46.2118 18.0839 47.2232 16.6609 47.2232H15.06V47.1637ZM16.1866 43.5346L16.6609 41.0358C16.7795 40.3814 17.3131 39.846 17.9653 39.6675C18.5583 39.489 19.1512 39.251 19.6848 38.9536C19.9813 38.7751 20.2778 38.7156 20.5742 38.7156C20.93 38.7156 21.2858 38.8346 21.5822 39.0131L23.7168 40.4409L24.1911 39.965L22.7681 37.8232C22.4123 37.2283 22.353 36.5143 22.7088 35.9194C23.0053 35.3839 23.2424 34.789 23.4203 34.1941C23.5982 33.5396 24.1318 33.0637 24.784 32.8852L27.2744 32.4093V31.7548L24.784 31.2789C24.1318 31.1599 23.5982 30.6244 23.4203 29.97C23.2424 29.3751 23.0053 28.7801 22.7088 28.2447C22.353 27.6498 22.4123 26.9358 22.7681 26.3409L24.1911 24.1991L23.7168 23.8422L21.5822 25.27C21.2858 25.4485 20.93 25.5675 20.5742 25.5675C20.2778 25.5675 19.9813 25.508 19.6848 25.3295C19.1512 25.032 18.5583 24.7941 17.9653 24.6156C17.3131 24.4371 16.8388 23.9017 16.6609 23.2472L16.1866 20.7485H15.5343L15.06 23.2472C14.9414 23.9017 14.4671 24.4371 13.7555 24.6156C13.1626 24.7941 12.5697 25.032 12.036 25.3295C11.7396 25.508 11.4431 25.5675 11.1466 25.5675C10.7909 25.5675 10.4351 25.4485 10.1387 25.27L8.00411 23.8422L7.64836 24.3181L9.07139 26.4599C9.42715 27.0548 9.48644 27.7688 9.13068 28.3637C8.83422 28.8991 8.59705 29.4941 8.41917 30.089C8.35987 30.3865 8.18199 30.6244 7.94482 30.8624L8.00411 31.1599L7.11472 31.2789L4.50583 31.8143V32.4688L6.99613 32.9447C7.64836 33.0637 8.18199 33.5991 8.35987 34.2536C8.53775 34.8485 8.77492 35.4434 9.07139 35.9789C9.42715 36.5738 9.36786 37.2877 9.0121 37.8827L7.58906 40.0245L8.06341 40.5004L10.198 39.0726C10.4944 38.8941 10.8502 38.7751 11.2059 38.7751C11.5024 38.7751 11.7989 38.8346 12.0953 39.0131C12.629 39.3105 13.2219 39.5485 13.8148 39.727C14.4671 39.9055 14.9414 40.4409 15.1193 41.0953L15.5936 43.5941H16.1866V43.5346Z" fill="#E5332A"/>
<path d="M16.7206 18.0713C17.6693 18.0713 18.5587 18.7852 18.7366 19.7371L19.2109 22.2358C19.6853 22.4143 20.1003 22.5928 20.5154 22.7713L22.6499 21.3434C23.0057 21.1055 23.4208 20.9865 23.7765 20.9865C24.3101 20.9865 24.8438 21.1649 25.2588 21.5814L26.3854 22.7118C27.0969 23.4257 27.1562 24.4966 26.6226 25.3295L25.1995 27.4713C25.4367 27.8877 25.6146 28.3637 25.7332 28.7801L28.2235 29.2561C29.1722 29.4346 29.8837 30.327 29.8837 31.2789V32.9447C29.8837 33.8966 29.1722 34.789 28.2235 34.9675L25.7332 35.4434C25.5553 35.9194 25.3774 36.3358 25.1995 36.7523L26.6226 38.8941C27.1562 39.727 27.0376 40.7979 26.3854 41.5118L25.2588 42.6422C24.8438 43.0586 24.3101 43.2371 23.7765 43.2371C23.3615 43.2371 23.0057 43.1181 22.6499 42.8801L20.5154 41.4523C20.1003 41.6903 19.626 41.8687 19.2109 41.9877L18.7366 44.546C18.5587 45.4979 17.6693 46.2118 16.7206 46.2118H15.1197C14.171 46.2118 13.2816 45.4979 13.1038 44.546L12.6294 42.0472C12.1551 41.8687 11.74 41.6903 11.325 41.5118L9.19042 42.9396C8.83466 43.1776 8.41961 43.2966 8.06385 43.2966C7.53022 43.2966 6.99658 43.1181 6.58153 42.7017L5.45496 41.5713C4.74344 40.8574 4.68415 39.7865 5.21779 38.9536L6.64082 36.8118C6.40365 36.3953 6.22577 35.9194 6.10718 35.5029L3.55758 34.9675C2.60889 34.789 1.89738 33.8966 1.89738 32.9447V31.3384C1.89738 30.3865 2.60889 29.4941 3.55758 29.3156L3.73546 29.2561H3.79475L5.9293 29.0776C6.10718 28.5422 6.28506 28.0067 6.52223 27.4713L5.0992 25.3295C4.56556 24.4966 4.68415 23.4257 5.33637 22.7118L6.46294 21.5814C6.87799 21.1649 7.41163 20.9865 7.94527 20.9865C8.36032 20.9865 8.71608 21.1055 9.07184 21.3434L11.2064 22.7713C11.6214 22.5333 12.0958 22.3548 12.5108 22.2358L12.9852 19.7371C13.1631 18.7852 14.0525 18.0713 15.0011 18.0713H16.7206ZM11.2064 24.6156C11.0285 24.6156 10.8506 24.5561 10.732 24.4966L8.18244 22.7713C8.12315 22.7118 8.06385 22.7118 8.00456 22.7118C7.94527 22.7118 7.82668 22.7713 7.76739 22.8308L6.64082 23.9612C6.52223 24.0801 6.52223 24.2586 6.58153 24.3776L8.24173 26.9358C8.41961 27.2333 8.41961 27.5308 8.30103 27.8282C7.94527 28.4232 7.7081 29.0776 7.53022 29.732C7.47092 30.0295 7.23375 30.208 6.93729 30.2675V30.327L4.03193 30.9219L3.85405 30.9814C3.67617 31.0409 3.55758 31.1599 3.55758 31.3384V33.0042C3.55758 33.1827 3.67617 33.3017 3.85405 33.3612L6.8187 33.9561C7.11517 34.0156 7.41163 34.2536 7.47092 34.551C7.6488 35.2055 7.94527 35.8599 8.24173 36.4548C8.41961 36.7523 8.36032 37.1093 8.18244 37.3472L6.52223 39.9055C6.46294 40.0244 6.46294 40.2029 6.58153 40.3219L7.7081 41.4523C7.76739 41.5118 7.88597 41.5713 7.94527 41.5713C8.00456 41.5713 8.06385 41.5713 8.12315 41.5118L10.6727 39.7865C10.7913 39.6675 10.9692 39.6675 11.1471 39.6675C11.2657 39.6675 11.4436 39.727 11.5621 39.7865C12.1551 40.1434 12.8073 40.3814 13.4595 40.5599C13.756 40.6194 13.9932 40.9168 14.0525 41.2143L14.6454 44.189C14.7047 44.3675 14.8233 44.4865 15.0011 44.4865H16.6021C16.7799 44.4865 16.8985 44.3675 16.9578 44.189L17.5507 41.2143C17.61 40.9168 17.8472 40.6194 18.1437 40.5599C18.9145 40.3814 19.5667 40.1434 20.1596 39.7865C20.2782 39.727 20.4561 39.6675 20.5747 39.6675C20.7526 39.6675 20.9304 39.727 21.049 39.7865L23.5986 41.4523C23.6579 41.5713 23.7172 41.5713 23.7765 41.5713C23.8358 41.5713 23.9544 41.5118 24.0137 41.4523L25.1403 40.3219C25.2588 40.2029 25.2588 40.0244 25.1995 39.9055L23.5393 37.3472C23.3615 37.0498 23.3615 36.7523 23.48 36.4548C23.8358 35.8599 24.073 35.2055 24.2509 34.551C24.3101 34.2536 24.6066 34.0156 24.9031 33.9561L27.8677 33.3612C28.0456 33.3017 28.1642 33.1827 28.1642 33.0042V31.3979C28.1642 31.2194 28.0456 31.1004 27.8677 31.0409L24.9031 30.446C24.6066 30.3865 24.3101 30.1485 24.2509 29.851C24.073 29.1966 23.7765 28.5422 23.48 27.9472C23.3022 27.6498 23.3615 27.2928 23.5393 27.0548L25.1995 24.4966C25.3181 24.3776 25.2588 24.1991 25.1403 24.0801L24.0137 22.9498C23.9544 22.8903 23.8358 22.8308 23.7765 22.8308C23.7172 22.8308 23.6579 22.8308 23.5986 22.8903L21.049 24.6156C20.9304 24.7346 20.7526 24.7346 20.5747 24.7346C20.4561 24.7346 20.2782 24.6751 20.1596 24.6156C19.5667 24.2586 18.9145 24.0206 18.2623 23.8422C17.9658 23.7827 17.7286 23.4852 17.6693 23.1877L17.0764 20.213C17.0171 20.0346 16.8985 19.9156 16.7206 19.9156H15.1197C14.9418 19.9156 14.8233 20.0346 14.764 20.213L14.171 23.1877C14.1117 23.4852 13.8746 23.7827 13.5781 23.8422C12.9259 24.0206 12.2737 24.3181 11.6807 24.6156C11.5029 24.5561 11.3843 24.6156 11.2064 24.6156ZM16.7206 16.1675H15.1197C13.2223 16.1675 11.6214 17.5358 11.2657 19.3801L11.0878 20.332L10.2577 19.7966C9.60547 19.3801 8.83466 19.1422 8.06385 19.1422C6.99658 19.1422 5.9886 19.5586 5.27708 20.2725L4.15051 21.4029C2.84607 22.7118 2.60889 24.8536 3.67617 26.4004L4.2691 27.3523L3.91334 27.4118C3.85405 27.4118 3.85405 27.4118 3.79475 27.4118H3.55758L3.3797 27.4713L3.20182 27.5308C1.30445 27.8282 0 29.4346 0 31.3384V32.9447C0 34.8485 1.30445 36.4548 3.14253 36.8118L4.15051 37.0498L3.61688 37.8827C2.5496 39.4295 2.78677 41.5713 4.09122 42.8801L5.21779 44.0105C5.9886 44.7839 6.93729 45.2004 8.00456 45.2004C8.77537 45.2004 9.54618 44.9624 10.1984 44.546L11.0285 44.0105L11.2064 44.9624C11.5621 46.8067 13.2223 48.1751 15.0604 48.1751H16.6613C18.5587 48.1751 20.1596 46.8067 20.5154 44.9624L20.7526 43.951L21.5827 44.4865C22.2349 44.9029 23.0057 45.1409 23.7765 45.1409C24.8438 45.1409 25.8518 44.7244 26.5633 44.0105L27.6899 42.8801C28.9943 41.5713 29.2315 39.4295 28.1642 37.8827L27.6306 37.0498L28.5792 36.8713C30.4173 36.5143 31.7218 34.8485 31.7218 33.0042V31.3384C31.7218 29.4346 30.4173 27.8282 28.5792 27.4713L27.6306 27.2928L28.1642 26.4599C29.1722 24.913 28.9943 22.7713 27.6899 21.4624L26.5633 20.332C25.7925 19.5586 24.8438 19.2017 23.7765 19.2017C23.0057 19.2017 22.2349 19.4396 21.5827 19.8561L20.7526 20.332L20.5747 19.3801C20.2189 17.4763 18.618 16.1675 16.7206 16.1675ZM11.2064 26.5194C11.6807 26.5194 12.1551 26.4004 12.5701 26.1624C13.0445 25.8649 13.5188 25.6865 14.0525 25.5675C14.9418 25.3295 15.5941 24.6751 15.8905 23.8422C16.187 24.6751 16.8392 25.3295 17.7286 25.5675C18.2623 25.6865 18.7366 25.9244 19.2109 26.1624C19.626 26.4004 20.1003 26.5194 20.5747 26.5194C20.9897 26.5194 21.4048 26.4004 21.7605 26.2814C21.4048 27.0548 21.4048 28.0067 21.8791 28.7801C22.1163 29.2561 22.3535 29.732 22.4721 30.2675C22.7092 31.1599 23.3615 31.8143 24.1916 32.1118C23.3615 32.4093 22.7092 33.0637 22.4721 33.9561C22.3535 34.4915 22.1163 34.9675 21.8791 35.4434C21.4641 36.2168 21.4048 37.1687 21.7605 37.9422C21.4048 37.7637 20.9897 37.7042 20.5747 37.7042C20.1003 37.7042 19.626 37.8232 19.2109 38.0611C18.7366 38.2991 18.2623 38.5371 17.7286 38.6561C16.8392 38.8941 16.187 39.5485 15.8905 40.3814C15.5941 39.5485 14.9418 38.8941 14.0525 38.6561C13.5188 38.5371 13.0445 38.2991 12.5701 38.0611C12.1551 37.8232 11.6807 37.7042 11.2064 37.7042C10.7913 37.7042 10.3763 37.8232 10.0205 37.9422C10.3763 37.1687 10.3763 36.2168 9.90194 35.4434C9.66477 34.9675 9.42759 34.432 9.30901 33.9561C9.07184 33.0637 8.41961 32.4093 7.6488 32.1118L9.13113 31.8143L9.01254 30.9814C9.19042 30.7434 9.30901 30.5055 9.3683 30.208C9.48689 29.6725 9.72406 29.1966 9.96123 28.7206C10.3763 27.9472 10.4356 26.9953 10.0798 26.2219C10.4356 26.4004 10.7913 26.5194 11.2064 26.5194Z" fill="white"/>
</svg>
