<svg width="10" height="10" viewBox="0 0 10 10" fill="none" xmlns="http://www.w3.org/2000/svg">
<path fill-rule="evenodd" clip-rule="evenodd" d="M4.14262 8.58392C4.14262 8.97931 4.46314 9.29983 4.85852 9.29983C5.2539 9.29983 5.57442 8.97931 5.57442 8.58393V5.72142H8.43793C8.83331 5.72142 9.15383 5.4009 9.15383 5.00552C9.15383 4.61013 8.83331 4.28961 8.43793 4.28961H5.57442V1.42489C5.57442 1.02951 5.2539 0.708984 4.85852 0.708984C4.46314 0.708984 4.14262 1.02951 4.14262 1.42489V4.28961H1.27889C0.883509 4.28961 0.562988 4.61013 0.562988 5.00552C0.562988 5.4009 0.883509 5.72142 1.27889 5.72142H4.14262V8.58392Z" fill="#E5332A"/>
</svg>
