<svg width="52" height="46" viewBox="0 0 52 46" fill="none" xmlns="http://www.w3.org/2000/svg">
<path d="M19.6423 26.5394C19.6423 24.7956 18.0523 23.2568 16.5136 23.2568C14.5645 23.2568 13.3336 23.7185 12.7694 25.1033C12.2565 26.4369 12.3077 27.9243 13.3336 28.9501C14.9236 30.4375 17.5907 30.4375 19.0781 32.0789C20.0014 33.1047 19.9501 34.6434 19.3346 35.9257C18.8217 37.0541 17.6933 37.6183 16.5649 37.6183C13.3849 37.6183 12 36.9002 12 34.4895" stroke="#E5332A" stroke-width="2" stroke-miterlimit="10" stroke-linecap="round" stroke-linejoin="round"/>
<path d="M16.1033 21V23.0516" stroke="#E5332A" stroke-width="2" stroke-miterlimit="10" stroke-linecap="round" stroke-linejoin="round"/>
<path d="M16.1033 37.9258V39.5671" stroke="#E5332A" stroke-width="2" stroke-miterlimit="10" stroke-linecap="round" stroke-linejoin="round"/>
<path d="M24.1676 16.482H8.93422C7.95969 16.482 7.13904 15.6613 7.13904 14.6868C7.13904 13.7123 7.95969 12.8916 8.93422 12.8916H24.1676C25.1421 12.8916 25.9628 13.7123 25.9628 14.6868C25.9628 15.6613 25.1421 16.482 24.1676 16.482Z" stroke="#E5332A" stroke-width="2.5" stroke-miterlimit="10" stroke-linecap="round" stroke-linejoin="round"/>
<path d="M26 41.5C25 42.5 22.8737 43.5 20.4749 43.8204C6.26738 45.7181 1.75379 39.2042 2.01025 29.6128C2.11283 26.5354 4.72866 20.2779 8.88321 16.5337" stroke="#E5332A" stroke-width="2.5" stroke-miterlimit="10" stroke-linecap="round" stroke-linejoin="round"/>
<path d="M10.4218 12.6867C10.4218 12.6867 6.36986 7.09602 6.06212 4.68535C6.11341 4.68535 5.29276 1.14629 8.11375 2.99276C8.11375 2.94146 11.0373 5.35213 13.7557 3.3005C13.7557 3.3005 16.628 0.274344 19.6542 3.45437C19.6542 3.45437 21.5006 5.24955 24.9371 3.09534C24.9371 3.09534 27.8607 0.68467 26.8862 5.14697C26.8349 5.14697 24.5781 10.4299 22.5265 12.5841" stroke="#E5332A" stroke-width="2.5" stroke-miterlimit="10" stroke-linecap="round" stroke-linejoin="round"/>
<path d="M37 42C44.1797 42 50 36.1797 50 29C50 21.8203 44.1797 16 37 16C29.8203 16 24 21.8203 24 29C24 36.1797 29.8203 42 37 42Z" stroke="#E5332A" stroke-width="2.5" stroke-miterlimit="10"/>
<path d="M37 22V29.3829L41 33" stroke="#E5332A" stroke-width="2.5" stroke-miterlimit="10" stroke-linecap="round" stroke-linejoin="round"/>
</svg>
