<svg width="30" height="29" viewBox="0 0 30 29" fill="none" xmlns="http://www.w3.org/2000/svg">
<path d="M7.09982 21.1161H3.33045C2.28714 21.1161 1.41211 20.2748 1.41211 19.1978V10.3129C1.41211 9.26956 2.25349 8.39453 3.33045 8.39453H26.3505C27.3938 8.39453 28.2689 9.23591 28.2689 10.3129V19.1978C28.2689 20.2411 27.4275 21.1161 26.3505 21.1161H22.5811" stroke="white" stroke-width="1.5" stroke-miterlimit="10"/>
<path d="M7.09961 8.42844V3.48115C7.09961 2.30322 8.04195 1.39453 9.18622 1.39453H20.4607C21.6386 1.39453 22.5473 2.33687 22.5473 3.48115V8.39479" stroke="white" stroke-width="1.5" stroke-miterlimit="10"/>
<path d="M22.5809 21.25V26.1636C22.5809 27.3416 21.6386 28.2503 20.4943 28.2503H9.18622C8.0083 28.2503 7.09961 27.3079 7.09961 26.1636V21.25" stroke="white" stroke-width="1.5" stroke-miterlimit="10"/>
<path d="M22.5814 22.3618V18.929C22.5814 18.3232 22.0766 17.8184 21.5044 17.8184H8.17702C7.57123 17.8184 7.06641 18.3232 7.06641 18.929V22.3954" stroke="white" stroke-width="1.5" stroke-miterlimit="10"/>
<path d="M9.52148 20.6113H20.1228" stroke="white" stroke-width="1.5" stroke-miterlimit="10" stroke-linecap="round" stroke-linejoin="round"/>
<path d="M9.52148 23.0684H20.1228" stroke="white" stroke-width="1.5" stroke-miterlimit="10" stroke-linecap="round" stroke-linejoin="round"/>
<path d="M9.52148 25.4922H20.1228" stroke="white" stroke-width="1.5" stroke-miterlimit="10" stroke-linecap="round" stroke-linejoin="round"/>
<path d="M23.9941 10.9863H25.7442" stroke="white" stroke-width="1.5" stroke-miterlimit="10" stroke-linecap="round" stroke-linejoin="round"/>
</svg>
