<svg width="38" height="48" viewBox="0 0 38 48" fill="none" xmlns="http://www.w3.org/2000/svg">
<path d="M5.56982 9.57373V24.9538C5.56982 26.2113 6.0662 27.4174 6.94985 28.3065C7.83351 29.1957 9.03202 29.6952 10.2817 29.6952H12.7575C14.4449 29.6952 16.0633 30.3697 17.2564 31.5704C18.4496 32.7711 19.12 34.3995 19.12 36.0975V41.8377" stroke="#E5332A" stroke-width="3" stroke-linecap="round" stroke-linejoin="round"/>
<path d="M32.6705 15.2861V19.1802C32.6712 19.5828 32.5929 19.9815 32.4401 20.3535C32.2874 20.7256 32.0631 21.0636 31.7803 21.3482C31.4974 21.6329 31.1615 21.8585 30.7918 22.0122C30.422 22.1659 30.0258 22.2447 29.6257 22.2439H22.9343C22.4361 22.2432 21.9428 22.3414 21.4824 22.5329C21.022 22.7243 20.6037 23.0053 20.2514 23.3598C19.8992 23.7142 19.62 24.1352 19.4297 24.5985C19.2394 25.0617 19.1418 25.5582 19.1426 26.0595V35.7555" stroke="#E5332A" stroke-width="3" stroke-linecap="round" stroke-linejoin="round"/>
<path d="M19.1201 9.57373V45.8777" stroke="#E5332A" stroke-width="3" stroke-linecap="round" stroke-linejoin="round"/>
<path d="M5.56993 9.11381C7.56554 9.11381 9.18331 7.48592 9.18331 5.47781C9.18331 3.46969 7.56554 1.8418 5.56993 1.8418C3.57431 1.8418 1.95654 3.46969 1.95654 5.47781C1.95654 7.48592 3.57431 9.11381 5.56993 9.11381Z" stroke="#E5332A" stroke-width="2" stroke-miterlimit="10"/>
<path d="M19.1202 9.11381C21.1158 9.11381 22.7336 7.48592 22.7336 5.47781C22.7336 3.46969 21.1158 1.8418 19.1202 1.8418C17.1246 1.8418 15.5068 3.46969 15.5068 5.47781C15.5068 7.48592 17.1246 9.11381 19.1202 9.11381Z" stroke="#E5332A" stroke-width="2" stroke-miterlimit="10"/>
<path d="M32.6705 14.7247C34.6661 14.7247 36.2839 13.0968 36.2839 11.0886C36.2839 9.08053 34.6661 7.45264 32.6705 7.45264C30.6749 7.45264 29.0571 9.08053 29.0571 11.0886C29.0571 13.0968 30.6749 14.7247 32.6705 14.7247Z" stroke="#E5332A" stroke-width="2" stroke-miterlimit="10"/>
</svg>
