<svg width="32" height="27" viewBox="0 0 32 27" fill="none" xmlns="http://www.w3.org/2000/svg">
<path d="M13.0374 14.4509L4.93594 23.3879C3.99137 24.3325 2.53819 24.4415 1.73894 23.6422C0.939692 22.843 1.04868 21.3898 1.99325 20.4452L10.9303 12.3438" stroke="white" stroke-miterlimit="10"/>
<path d="M21.2366 10.737L14.6089 4.10938L10.062 8.65626L16.6897 15.2839L21.2366 10.737Z" stroke="white" stroke-miterlimit="10"/>
<path d="M8.60534 9.21956L7.15216 7.76638C6.89785 7.51207 6.89785 7.11245 7.15216 6.89447L12.8559 1.19073C13.1102 0.936423 13.5098 0.936423 13.7278 1.19073L15.181 2.64391C15.4353 2.89822 15.4353 3.29784 15.181 3.51582L9.51358 9.21956C9.25927 9.47387 8.85964 9.47387 8.60534 9.21956Z" stroke="white" stroke-miterlimit="10"/>
<path d="M17.6146 18.1949L16.1614 16.7418C15.9071 16.4875 15.9071 16.0878 16.1614 15.8699L21.8288 10.2024C22.0831 9.94814 22.4828 9.94814 22.7008 10.2024L24.1539 11.6556C24.4082 11.9099 24.4082 12.3096 24.1539 12.5275L18.4865 18.1949C18.2322 18.4493 17.8326 18.4493 17.6146 18.1949Z" stroke="white" stroke-miterlimit="10"/>
<path d="M10.6762 11.2532L10.9305 10.9989C11.3301 10.5993 11.984 10.5993 12.3837 10.9989L14.3455 12.9607C14.7451 13.3604 14.7451 14.0143 14.3455 14.4139L14.0912 14.6682C13.6915 15.0678 13.0376 15.0678 12.638 14.6682L10.6762 12.7064C10.2766 12.3068 10.2766 11.6529 10.6762 11.2532Z" stroke="white" stroke-miterlimit="10"/>
<path d="M30.9481 25.9298H15.4717V25.8571C15.4717 24.6946 16.4162 23.75 17.5788 23.75H28.841C30.0035 23.75 30.9481 24.6946 30.9481 25.8571V25.9298V25.9298Z" stroke="white" stroke-miterlimit="10"/>
<path d="M28.4049 23.7497H18.0146C18.0146 22.2965 19.2135 21.0977 20.6667 21.0977H25.7892C27.2424 21.0977 28.4049 22.2965 28.4049 23.7497Z" stroke="white" stroke-miterlimit="10"/>
</svg>
