<svg width="19" height="10" viewBox="0 0 19 10" fill="none" xmlns="http://www.w3.org/2000/svg">
<path fill-rule="evenodd" clip-rule="evenodd" d="M12.4546 0.199426C12.7206 -0.0664754 13.1516 -0.0664754 13.4175 0.199426C13.6834 0.465328 13.6834 0.896414 13.4175 1.16229L7.74581 6.83397L9.29206 8.35645L17.449 0.199426C17.7149 -0.0664754 18.146 -0.0664754 18.4119 0.199426C18.6777 0.465328 18.6778 0.896414 18.4119 1.16229L9.77349 9.80066C9.5078 10.0664 9.07642 10.0665 8.81063 9.80066L6.7899 7.78989L4.77912 9.80066C4.51343 10.0664 4.08205 10.0665 3.81625 9.80066L0.199426 6.18389C-0.0664754 5.91799 -0.0664754 5.48693 0.199426 5.22105C0.465355 4.95518 0.896414 4.95515 1.16229 5.22105L4.29768 8.35645L12.4546 0.199426Z" fill="#C00000"/>
</svg>
