<svg width="46" height="44" viewBox="0 0 46 44" fill="none" xmlns="http://www.w3.org/2000/svg">
<path d="M17.0234 11H38.9371" stroke="#E6332A" stroke-width="2" stroke-linecap="round" stroke-linejoin="round"/>
<path d="M17.0234 21.3965H38.9371" stroke="#E6332A" stroke-width="2" stroke-linecap="round" stroke-linejoin="round"/>
<path d="M17.0234 31.793H38.9371" stroke="#E6332A" stroke-width="2" stroke-linecap="round" stroke-linejoin="round"/>
<path d="M7.28414 42.4483H39.5589C42.1491 42.4483 44.2732 40.3276 44.2732 37.7414V2.46552C44.2732 2.2069 44.0659 2 43.8069 2H12.102C11.843 2 11.6358 2.2069 11.6358 2.46552C11.6358 2.46552 11.6358 26.8276 11.6358 34.7414C11.6358 37.9483 11.5322 42.4483 7.28414 42.4483ZM7.28414 42.4483C2.0518 42.4483 2 38.6724 2 34.6897C2 30.7069 2 21.8103 2 21.8103H11.1177" stroke="#E6332A" stroke-width="3" stroke-linecap="round" stroke-linejoin="round"/>
</svg>
