<svg width="46" height="46" viewBox="0 0 46 46" fill="none" xmlns="http://www.w3.org/2000/svg">
<path d="M20.0134 26.5351C20.0134 24.7912 18.4234 23.2524 16.8847 23.2524C14.9356 23.2524 13.7047 23.7141 13.1405 25.0989C12.6275 26.4325 12.6788 27.9199 13.7047 28.9457C15.2947 30.4331 17.9618 30.4332 19.4492 32.0745C20.3725 33.1003 20.3212 34.639 19.7057 35.9213C19.1928 37.0497 18.0644 37.6139 16.936 37.6139C13.7559 37.6139 12.3711 36.8958 12.3711 34.4851" stroke="#E5332A" stroke-width="2" stroke-miterlimit="10" stroke-linecap="round" stroke-linejoin="round"/>
<path d="M16.4727 20.9956V23.0472" stroke="#E5332A" stroke-width="2" stroke-miterlimit="10" stroke-linecap="round" stroke-linejoin="round"/>
<path d="M16.4727 37.9214V39.5627" stroke="#E5332A" stroke-width="2" stroke-miterlimit="10" stroke-linecap="round" stroke-linejoin="round"/>
<path d="M42.7841 44.0768H26.525C25.8069 44.0768 25.1914 43.4613 25.1914 42.7432V21.5089C25.1914 20.7908 25.8069 20.1753 26.525 20.1753H42.7841C43.5022 20.1753 44.1177 20.7908 44.1177 21.5089V42.7432C44.1177 43.4613 43.5022 44.0768 42.7841 44.0768Z" stroke="#E5332A" stroke-width="2.5" stroke-miterlimit="10" stroke-linecap="round" stroke-linejoin="round"/>
<path d="M28.8867 27.6637V24.2272C28.8867 23.9708 29.0919 23.7656 29.3483 23.7656H40.0168C40.2733 23.7656 40.4784 23.9708 40.4784 24.2272V27.6637C40.4784 27.9202 40.2733 28.1253 40.0168 28.1253H29.3483C29.0919 28.1253 28.8867 27.9202 28.8867 27.6637Z" stroke="#E5332A" stroke-width="2" stroke-miterlimit="10" stroke-linecap="round" stroke-linejoin="round"/>
<path d="M28.8867 31.7666H30.9896" stroke="#E5332A" stroke-width="2" stroke-miterlimit="10" stroke-linecap="round" stroke-linejoin="round"/>
<path d="M33.9648 31.7666H36.0678" stroke="#E5332A" stroke-width="2" stroke-miterlimit="10" stroke-linecap="round" stroke-linejoin="round"/>
<path d="M39.0938 31.7666H41.1454" stroke="#E5332A" stroke-width="2" stroke-miterlimit="10" stroke-linecap="round" stroke-linejoin="round"/>
<path d="M28.8867 34.6904H30.9896" stroke="#E5332A" stroke-width="2" stroke-miterlimit="10" stroke-linecap="round" stroke-linejoin="round"/>
<path d="M33.9648 34.6904H36.0678" stroke="#E5332A" stroke-width="2" stroke-miterlimit="10" stroke-linecap="round" stroke-linejoin="round"/>
<path d="M39.0938 34.6904H41.1454" stroke="#E5332A" stroke-width="2" stroke-miterlimit="10" stroke-linecap="round" stroke-linejoin="round"/>
<path d="M28.8867 37.6143H30.9896" stroke="#E5332A" stroke-width="2" stroke-miterlimit="10" stroke-linecap="round" stroke-linejoin="round"/>
<path d="M33.9648 37.6143H36.0678" stroke="#E5332A" stroke-width="2" stroke-miterlimit="10" stroke-linecap="round" stroke-linejoin="round"/>
<path d="M39.0938 37.6143H41.1454" stroke="#E5332A" stroke-width="2" stroke-miterlimit="10" stroke-linecap="round" stroke-linejoin="round"/>
<path d="M28.8867 40.4863H30.9896" stroke="#E5332A" stroke-width="2" stroke-miterlimit="10" stroke-linecap="round" stroke-linejoin="round"/>
<path d="M33.9648 40.4863H36.0678" stroke="#E5332A" stroke-width="2" stroke-miterlimit="10" stroke-linecap="round" stroke-linejoin="round"/>
<path d="M39.0938 40.4863H41.1454" stroke="#E5332A" stroke-width="2" stroke-miterlimit="10" stroke-linecap="round" stroke-linejoin="round"/>
<path d="M24.1692 16.482H8.9358C7.96128 16.482 7.14062 15.6613 7.14062 14.6868C7.14062 13.7123 7.96128 12.8916 8.9358 12.8916H24.1692C25.1437 12.8916 25.9643 13.7123 25.9643 14.6868C25.9643 15.6613 25.1437 16.482 24.1692 16.482Z" stroke="#E5332A" stroke-width="2.5" stroke-miterlimit="10" stroke-linecap="round" stroke-linejoin="round"/>
<path d="M22.6291 43.4101C22.0137 43.6152 21.2956 43.6665 20.4749 43.8204C6.26738 45.7181 1.75379 39.2042 2.01025 29.6128C2.11283 26.5354 4.72866 20.2779 8.88321 16.5337" stroke="#E5332A" stroke-width="2.5" stroke-miterlimit="10" stroke-linecap="round" stroke-linejoin="round"/>
<path d="M10.4211 12.6867C10.4211 12.6867 6.36913 7.09602 6.06138 4.68535C6.11268 4.68535 5.29202 1.14629 8.11302 2.99276C8.11302 2.94146 11.0366 5.35213 13.755 3.3005C13.755 3.3005 16.6273 0.274344 19.6534 3.45437C19.6534 3.45437 21.4999 5.24955 24.9364 3.09534C24.9364 3.09534 27.86 0.68467 26.8854 5.14697C26.8342 5.14697 24.5774 10.4299 22.5257 12.5841" stroke="#E5332A" stroke-width="2.5" stroke-miterlimit="10" stroke-linecap="round" stroke-linejoin="round"/>
</svg>
