<svg width="42" height="53" viewBox="0 0 42 53" fill="none" xmlns="http://www.w3.org/2000/svg">
<path d="M7.78328 17.0368C-0.426412 28.2068 -1.58185 47.6485 15.5673 50.7881C35.5746 54.4712 42.9329 41.7314 38.9193 28.086C35.8787 17.701 25.9054 5.38389 23.1688 2.42537C18.5471 -2.586 21.6485 38.7729 7.78328 17.0368Z" stroke="#E5332A" stroke-width="3" stroke-miterlimit="10" stroke-linecap="round"/>
<path d="M17.1484 43.0005L24.8108 30.623" stroke="#E5332A" stroke-width="2" stroke-miterlimit="10" stroke-linecap="round" stroke-linejoin="round"/>
<path d="M17.1486 34.9093C18.5928 34.9093 19.7636 33.7469 19.7636 32.313C19.7636 30.8792 18.5928 29.7168 17.1486 29.7168C15.7044 29.7168 14.5337 30.8792 14.5337 32.313C14.5337 33.7469 15.7044 34.9093 17.1486 34.9093Z" stroke="#E5332A" stroke-width="2" stroke-miterlimit="10" stroke-linecap="round" stroke-linejoin="round"/>
<path d="M24.8112 43.9054C26.2554 43.9054 27.4262 42.743 27.4262 41.3091C27.4262 39.8753 26.2554 38.7129 24.8112 38.7129C23.367 38.7129 22.1963 39.8753 22.1963 41.3091C22.1963 42.743 23.367 43.9054 24.8112 43.9054Z" stroke="#E5332A" stroke-width="2" stroke-miterlimit="10" stroke-linecap="round" stroke-linejoin="round"/>
</svg>
