<svg width="17" height="17" viewBox="0 0 17 17" fill="none" xmlns="http://www.w3.org/2000/svg">
<path d="M15.3457 9.4333C16.0535 8.72547 16.5404 7.82542 16.7503 6.83665C16.9602 5.84788 16.8847 4.81052 16.5324 3.84387C16.18 2.87722 15.5652 2.02051 14.7587 1.37226C13.9521 0.724009 12.9865 0.310535 11.9729 0.179379C10.9593 0.0482244 9.9388 0.204713 9.02884 0.630853C8.11887 1.05699 7.35634 1.73548 6.82893 2.5883C6.30151 3.44112 6.03063 4.43365 6.04742 5.45176C6.06421 6.46986 6.368 7.47222 6.92385 8.34356L0.915473 14.3519L2.64534 16.0818L8.65372 10.0734C9.70264 10.7421 10.9354 11.0428 12.1508 10.9266C13.3663 10.8103 14.4925 10.2839 15.3457 9.4333ZM9.25651 3.3441C9.67728 2.92333 10.2176 2.64105 10.8092 2.53295C11.4008 2.42484 12.0171 2.49577 12.5802 2.73677C13.1432 2.97777 13.6277 3.37801 13.9724 3.88688C14.3171 4.39574 14.5065 4.99038 14.5167 5.5956C14.5268 6.20082 14.3573 6.78943 14.0295 7.287C13.7017 7.78458 13.2304 8.16876 12.6751 8.39098C12.1199 8.6132 11.5056 8.66346 10.91 8.53542C10.3145 8.40738 9.76433 8.10678 9.32919 7.67164C8.74628 7.08782 8.41124 6.3042 8.39761 5.49283C8.38398 4.68146 8.69289 3.90866 9.25651 3.3441Z" fill="#767676"/>
</svg>
