<svg width="37" height="54" viewBox="0 0 37 54" fill="none" xmlns="http://www.w3.org/2000/svg">
<path d="M2.00011 52.031V47.5433C2.00011 47.5433 1.93946 43.1161 4.72915 40.9936C4.72915 41.0542 6.91238 38.8103 10.2479 38.9923C10.2479 39.0529 12.9163 38.7497 13.826 36.8697C13.7653 36.9303 14.9176 34.8684 14.6143 34.1406" stroke="#E5332A" stroke-width="2.5" stroke-miterlimit="10" stroke-linecap="round" stroke-linejoin="round"/>
<path d="M20.1332 38.5656C20.1332 38.5656 15.6455 39.172 14.0081 36.6855" stroke="#E5332A" stroke-width="2.5" stroke-miterlimit="10" stroke-linecap="round" stroke-linejoin="round"/>
<path d="M24.6211 49.3613H27.4714" stroke="#E5332A" stroke-width="2.5" stroke-miterlimit="10" stroke-linecap="round" stroke-linejoin="round"/>
<path d="M35.173 52.0913V47.3003C35.173 45.7236 34.8091 44.2074 34.0208 42.8732C33.3537 41.721 32.262 40.5081 30.3214 39.659C29.6543 39.3558 28.9265 39.2345 28.1988 39.1739C26.7433 39.0526 24.3175 38.7493 23.3472 36.748" stroke="#E5332A" stroke-width="2.5" stroke-miterlimit="10" stroke-linecap="round" stroke-linejoin="round"/>
<path d="M29.2299 16.4311V23.3447C29.2299 24.2544 29.1086 25.1641 28.866 26.0737C28.3202 28.1357 26.986 31.4712 24.075 33.048C24.075 33.1086 17.4647 37.1718 12.0066 32.2596C12.0672 32.3202 7.33691 29.4699 7.94336 20.7976C8.00401 20.8582 7.51884 14.0053 13.4621 14.1266C14.2505 14.1266 15.0389 14.3692 15.7666 14.6724C17.1008 15.2789 19.0415 16.4918 21.6492 17.0982C22.6195 17.3408 25.1667 17.4014 25.1667 17.4014" stroke="#E5332A" stroke-width="2.5" stroke-miterlimit="10" stroke-linecap="round" stroke-linejoin="round"/>
<path d="M7.51874 23.7688C7.51874 23.7688 5.15356 23.2229 5.15356 20.1907C5.15356 20.2513 5.15356 15.2784 5.15356 15.2784C5.15356 15.2784 5.45679 6.36353 12.7342 3.33126C12.7949 3.33126 18.1317 0.238342 26.6827 3.81642L24.3175 5.15062C24.3175 5.15062 30.9885 5.21127 33.7782 10.3661C33.7782 10.3055 31.9588 11.761 31.9588 16.552L32.0801 20.8578" stroke="#E5332A" stroke-width="2.5" stroke-miterlimit="10" stroke-linecap="round" stroke-linejoin="round"/>
</svg>
