<svg width="17" height="16" viewBox="0 0 17 16" fill="none" xmlns="http://www.w3.org/2000/svg">
<path d="M16.2439 7.24972C16.0752 6.90142 15.794 6.6202 15.4457 6.45154L2.46963 0.172466C1.61482 -0.241669 0.586185 0.115597 0.172049 0.970404C-0.0389319 1.40594 -0.0566676 1.91023 0.123242 2.3595L2.37964 7.99939L0.123242 13.6398C-0.228213 14.5246 0.204161 15.5268 1.08896 15.8783C1.28903 15.9577 1.50223 15.999 1.71751 16C1.97797 16 2.23507 15.9412 2.46963 15.828L15.4457 9.54723C16.3006 9.13319 16.658 8.10456 16.2439 7.24972ZM1.97031 14.7944C1.68533 14.9324 1.34247 14.8132 1.20452 14.5282C1.13421 14.383 1.12837 14.2149 1.18836 14.0652L3.38513 8.57264H14.8283L1.97031 14.7944ZM3.38517 7.4261L1.18839 1.93354C1.09696 1.7146 1.15373 1.46176 1.32998 1.30295C1.50058 1.13671 1.75819 1.09771 1.97031 1.20607L14.8283 7.4261H3.38517Z" fill="white"/>
</svg>
