<svg width="19" height="24" viewBox="0 0 19 24" fill="none" xmlns="http://www.w3.org/2000/svg">
<g clip-path="url(#clip0)">
<path d="M14.9064 8C17.1674 8 19.0003 6.20914 19.0003 4C19.0003 1.79086 17.1674 0 14.9064 0C12.6454 0 10.8125 1.79086 10.8125 4C10.8125 6.20914 12.6454 8 14.9064 8Z" fill="white"/>
<path d="M14.9064 24C17.1674 24 19.0003 22.2091 19.0003 20C19.0003 17.7909 17.1674 16 14.9064 16C12.6454 16 10.8125 17.7909 10.8125 20C10.8125 22.2091 12.6454 24 14.9064 24Z" fill="white"/>
<path d="M4.09392 16C6.35493 16 8.18785 14.2091 8.18785 12C8.18785 9.79086 6.35493 8 4.09392 8C1.83291 8 0 9.79086 0 12C0 14.2091 1.83291 16 4.09392 16Z" fill="white"/>
<path d="M15.5 3.5L4 12L15.5 20.5" stroke="white"/>
</g>
<defs>
<clipPath id="clip0">
<rect width="19" height="24" fill="white"/>
</clipPath>
</defs>
</svg>
