<svg width="37" height="24" viewBox="0 0 37 24" fill="none" xmlns="http://www.w3.org/2000/svg">
<path d="M3.87578 20.0675H1.03907C0.996094 20.0675 0.996094 20.0246 0.996094 20.0246V2.6175C0.996094 1.9728 1.51186 1.45703 2.15656 1.45703H25.9677C26.6124 1.45703 27.1282 1.9728 27.1282 2.6175V15.9844" stroke="#E5332A" stroke-miterlimit="10" stroke-linecap="round" stroke-linejoin="round"/>
<path d="M27.6003 20.0742H17.9297" stroke="#E5332A" stroke-miterlimit="10" stroke-linecap="round" stroke-linejoin="round"/>
<path d="M11.3108 20.0742H10.3652" stroke="#E5332A" stroke-miterlimit="10" stroke-linecap="round" stroke-linejoin="round"/>
<path d="M28.9766 7.73438V10.743H30.4379L31.5554 11.8605H34.0483L32.8448 7.73438H28.9766Z" stroke="#E5332A" stroke-miterlimit="10" stroke-linecap="round" stroke-linejoin="round"/>
<path d="M27.1719 5.625H33.7479C33.7479 5.625 34.4785 5.75394 34.6505 6.61355C34.5645 6.57057 36.1978 11.8572 36.1978 11.8572V20.0664H34.3066" stroke="#E5332A" stroke-miterlimit="10" stroke-linecap="round" stroke-linejoin="round"/>
<path d="M7.05556 23.2947C8.83587 23.2947 10.2791 21.8515 10.2791 20.0712C10.2791 18.2909 8.83587 16.8477 7.05556 16.8477C5.27525 16.8477 3.83203 18.2909 3.83203 20.0712C3.83203 21.8515 5.27525 23.2947 7.05556 23.2947Z" stroke="#E5332A" stroke-miterlimit="10" stroke-linecap="round" stroke-linejoin="round"/>
<path d="M14.7079 23.2947C16.4882 23.2947 17.9314 21.8515 17.9314 20.0712C17.9314 18.2909 16.4882 16.8477 14.7079 16.8477C12.9276 16.8477 11.4844 18.2909 11.4844 20.0712C11.4844 21.8515 12.9276 23.2947 14.7079 23.2947Z" stroke="#E5332A" stroke-miterlimit="10" stroke-linecap="round" stroke-linejoin="round"/>
<path d="M30.8681 23.2947C32.6484 23.2947 34.0916 21.8515 34.0916 20.0712C34.0916 18.2909 32.6484 16.8477 30.8681 16.8477C29.0878 16.8477 27.6445 18.2909 27.6445 20.0712C27.6445 21.8515 29.0878 23.2947 30.8681 23.2947Z" stroke="#E5332A" stroke-miterlimit="10" stroke-linecap="round" stroke-linejoin="round"/>
</svg>
