<svg width="45" height="45" viewBox="0 0 45 45" fill="none" xmlns="http://www.w3.org/2000/svg">
<path d="M42.9978 6.13006L42.1645 5.29697C41.9186 5.05099 41.5198 5.05107 41.2739 5.29697C41.0279 5.54295 41.028 5.94169 41.2739 6.18759L42.1071 7.02068C42.9522 7.86578 42.9522 9.2408 42.1071 10.0859L40.9588 11.2342L33.7669 4.04263L34.9152 2.89436C35.7604 2.04926 37.1355 2.04926 37.9806 2.89436L39.1996 4.11334C39.4455 4.35924 39.8444 4.35924 40.0903 4.11334C40.3363 3.86744 40.3363 3.46862 40.0903 3.22272L38.8713 2.00374C38.224 1.3565 37.3634 1 36.4479 1C35.5324 1 34.6718 1.3565 34.0245 2.00374L8.78298 27.2441C8.53699 27.49 8.53699 27.8888 8.78298 28.1347C9.02889 28.3806 9.42773 28.3806 9.67364 28.1347L30.1004 7.7089L33.251 10.8594L7.34575 36.7631L5.28762 35.8384C5.21313 35.805 5.15375 35.7455 5.12033 35.6712L4.1954 33.613L7.60611 30.2024C7.8521 29.9565 7.8521 29.5577 7.60611 29.3118C7.3602 29.0659 6.96136 29.0659 6.71545 29.3118C6.71545 29.3118 2.99115 33.0375 2.98754 33.0412C2.82502 33.2117 2.80646 33.4496 2.76388 33.672C2.72861 33.8561 1.0301 42.7185 1.01843 42.7795C0.954266 43.1143 1.05983 43.458 1.30087 43.6991C1.49546 43.8937 1.75699 44 2.02675 44C2.09108 44 2.156 43.994 2.2205 43.9815C2.2205 43.9815 11.6406 42.1763 11.6453 42.1753C11.7521 42.1537 11.8722 42.0941 11.9548 42.017C11.9601 42.012 42.998 10.9767 42.998 10.9767C44.334 9.64046 44.334 7.46628 42.9978 6.13006ZM2.75775 40.3955L2.79152 40.2193L4.78061 42.2083L4.77129 42.21L2.31986 42.6798L2.75775 40.3955ZM6.27554 41.9218L3.07799 38.7244L3.68595 35.5524L3.97125 36.1873C4.13115 36.5432 4.41519 36.8272 4.7712 36.9873L7.00746 37.992L8.01251 40.2285C8.17241 40.5843 8.45653 40.8684 8.81238 41.0283L9.44781 41.3138L6.27554 41.9218ZM11.3873 40.8044L9.3288 39.8794C9.25439 39.846 9.19493 39.7865 9.1615 39.7121L8.23649 37.6536L34.1418 11.75L37.2924 14.9004L11.3873 40.8044ZM38.183 14.0099L30.9911 6.81837L32.8763 4.93333L40.0681 12.1249L38.183 14.0099Z" fill="#E6332A" stroke="#E6332A" stroke-width="0.7"/>
</svg>
