<svg width="37" height="54" viewBox="0 0 37 54" fill="none" xmlns="http://www.w3.org/2000/svg">
<path d="M2.00011 52.3859V47.8581C2.00011 47.8581 1.93892 43.3914 4.75353 41.2499C4.75353 41.311 6.95627 39.0471 10.3216 39.2307C10.3216 39.2919 13.0138 38.9859 13.9316 37.0891C13.8704 37.1503 15.033 35.0699 14.7271 34.3357" stroke="#E5332A" stroke-width="2.5" stroke-miterlimit="10" stroke-linecap="round" stroke-linejoin="round"/>
<path d="M20.2951 38.8023C20.2951 38.8023 15.7673 39.4142 14.1152 36.9055" stroke="#E5332A" stroke-width="2.5" stroke-miterlimit="10" stroke-linecap="round" stroke-linejoin="round"/>
<path d="M35.4696 52.4469V47.6131C35.4696 46.0223 35.1025 44.4926 34.307 43.1465C33.634 41.9839 32.5326 40.7602 30.5746 39.9035C29.9016 39.5976 29.1673 39.4752 28.4331 39.414C26.9646 39.2917 24.5171 38.9857 23.5381 36.9666" stroke="#E5332A" stroke-width="2.5" stroke-miterlimit="10" stroke-linecap="round" stroke-linejoin="round"/>
<path d="M29.4733 16.4688V23.4442C29.4733 24.362 29.3509 25.2798 29.1062 26.1976C28.5555 28.2779 27.2094 31.6432 24.2724 33.2341C24.2724 33.2953 17.603 37.3948 12.0961 32.4387C12.1573 32.4999 7.3847 29.6241 7.99658 20.8743C8.05776 20.9355 7.56826 14.0213 13.5646 14.1437C14.36 14.1437 15.1555 14.3884 15.8897 14.6944C17.2358 15.3063 19.1938 16.53 21.8249 17.1419C22.8039 17.3866 25.3738 17.4478 25.3738 17.4478" stroke="#E5332A" stroke-width="2.5" stroke-miterlimit="10" stroke-linecap="round" stroke-linejoin="round"/>
<path d="M7.56794 23.8726C7.56794 23.8726 5.18164 23.3219 5.18164 20.2626C5.18164 20.3237 5.18164 15.3064 5.18164 15.3064C5.18164 15.3064 5.48758 6.31187 12.83 3.25251C12.8912 3.25251 18.2757 0.131956 26.9031 3.742L24.5168 5.08812C24.5168 5.08812 31.2474 5.14931 34.062 10.3502C34.062 10.289 32.2264 11.7575 32.2264 16.5913L32.3488 20.9356" stroke="#E5332A" stroke-width="2.5" stroke-miterlimit="10" stroke-linecap="round" stroke-linejoin="round"/>
<path d="M29.4736 23.4446C29.4736 23.4446 28.4334 28.8902 21.8252 30.0528" stroke="#E5332A" stroke-width="0.5" stroke-miterlimit="10" stroke-linecap="round" stroke-linejoin="round"/>
<path d="M22.437 30.175L24.7009 29.196" stroke="#E5332A" stroke-width="2" stroke-miterlimit="10" stroke-linecap="round" stroke-linejoin="round"/>
</svg>
