<svg width="56" height="42" viewBox="0 0 56 42" fill="none" xmlns="http://www.w3.org/2000/svg">
<path d="M35.2502 36.7111C34.4363 36.7111 33.7301 36.1061 33.6246 35.2776C33.5105 34.3787 34.1462 33.5576 35.0447 33.4431C40.2289 32.7825 44.8714 31.3777 48.1168 29.4868C51.0848 27.7577 52.7191 25.7248 52.7191 23.7629C52.7191 21.6006 50.8067 19.8314 49.202 18.7274C48.4556 18.2139 48.2667 17.1927 48.7803 16.4459C49.2938 15.6995 50.3154 15.5107 51.0618 16.0242C54.2926 18.2468 56.0003 20.9226 56.0003 23.7634C56.0003 26.9874 53.8457 29.9469 49.7689 32.322C46.0993 34.4599 41.1514 35.9732 35.4596 36.6982C35.3891 36.7068 35.319 36.7111 35.2502 36.7111Z" fill="#F2C94C"/>
<path d="M27.6001 34.3609L23.2251 29.9859C22.5842 29.3451 21.5456 29.3451 20.9047 29.9859C20.2643 30.6264 20.2643 31.6654 20.9047 32.3059L22.183 33.5842C17.2817 33.0779 12.8289 31.9367 9.38104 30.2786C5.50464 28.4145 3.28125 26.0395 3.28125 23.7631C3.28125 21.8324 4.87317 19.8256 7.76349 18.1123C8.54321 17.6505 8.80042 16.6439 8.33856 15.8646C7.87628 15.0849 6.86969 14.8277 6.09039 15.2895C1.05658 18.2734 0 21.5444 0 23.7631C0 27.4032 2.82666 30.7674 7.95917 33.236C11.9428 35.1513 17.0958 36.4344 22.7098 36.9308L20.9047 38.7359C20.2643 39.3764 20.2643 40.4154 20.9047 41.0563C21.2252 41.3763 21.6451 41.5365 22.0651 41.5365C22.4847 41.5365 22.9047 41.3763 23.2251 41.0563L27.6001 36.6813C28.2405 36.0404 28.2405 35.0014 27.6001 34.3609Z" fill="#F2C94C"/>
<path d="M17.1827 20.4774V20.0826C17.1827 18.6902 16.3303 18.4202 15.1874 18.4202C14.4808 18.4202 14.2522 17.7968 14.2522 17.1735C14.2522 16.5497 14.4808 15.9263 15.1874 15.9263C15.977 15.9263 16.8084 15.8225 16.8084 14.1392C16.8084 12.9339 16.1227 12.6429 15.2703 12.6429C14.2522 12.6429 13.7327 12.8925 13.7327 13.7029C13.7327 14.4092 13.4208 14.8873 12.2155 14.8873C10.7193 14.8873 10.5326 14.5754 10.5326 13.5778C10.5326 11.9572 11.696 9.85815 15.2703 9.85815C17.9099 9.85815 19.9047 10.8139 19.9047 13.6196C19.9047 15.1364 19.3437 16.5497 18.3046 17.0278C19.5308 17.4849 20.4242 18.3992 20.4242 20.0826V20.4774C20.4242 23.8855 18.0761 25.1741 15.1665 25.1741C11.5922 25.1741 10.2207 22.9921 10.2207 21.2464C10.2207 20.3112 10.6155 20.0616 11.7584 20.0616C13.0884 20.0616 13.4208 20.3526 13.4208 21.1426C13.4208 22.1193 14.3355 22.3478 15.2703 22.3478C16.6837 22.3478 17.1827 21.8283 17.1827 20.4774Z" fill="#27AE60"/>
<path d="M33.0379 20.0826V20.2697C33.0379 23.8441 30.8141 25.1741 27.9464 25.1741C25.0787 25.1741 22.834 23.8441 22.834 20.2697V14.7625C22.834 11.1882 25.1407 9.85815 28.1335 9.85815C31.6455 9.85815 33.0379 12.0401 33.0379 13.7649C33.0379 14.7625 32.5598 15.074 31.5208 15.074C30.6274 15.074 29.8374 14.8454 29.8374 13.8896C29.8374 13.1001 29.0064 12.6844 28.0297 12.6844C26.8035 12.6844 26.0759 13.3287 26.0759 14.7625V16.6326C26.7412 15.9054 27.6764 15.7183 28.674 15.7183C31.0427 15.7183 33.0379 16.7573 33.0379 20.0826ZM26.0759 20.4983C26.0759 21.9321 26.7826 22.5555 27.9464 22.5555C29.1102 22.5555 29.796 21.9321 29.796 20.4983V20.3112C29.796 18.794 29.1102 18.2121 27.9255 18.2121C26.8035 18.2121 26.0759 18.7526 26.0759 20.124V20.4983Z" fill="#27AE60"/>
<path d="M35.5527 20.2697V14.7625C35.5527 11.1882 37.7761 9.85815 40.6442 9.85815C43.5119 9.85815 45.7562 11.1882 45.7562 14.7625V20.2697C45.7562 23.8441 43.5119 25.1741 40.6442 25.1741C37.7761 25.1741 35.5527 23.8441 35.5527 20.2697ZM42.5143 14.7625C42.5143 13.3287 41.808 12.6844 40.6442 12.6844C39.4804 12.6844 38.7947 13.3287 38.7947 14.7625V20.2697C38.7947 21.7036 39.4804 22.3478 40.6442 22.3478C41.808 22.3478 42.5143 21.7036 42.5143 20.2697V14.7625Z" fill="#27AE60"/>
<path d="M49.6953 9.84375C46.981 9.84375 44.7734 7.63574 44.7734 4.92188C44.7734 2.20801 46.981 0 49.6953 0C52.4092 0 54.6172 2.20801 54.6172 4.92188C54.6172 7.63574 52.4092 9.84375 49.6953 9.84375ZM49.6953 3.28125C48.7904 3.28125 48.0547 4.0174 48.0547 4.92188C48.0547 5.82678 48.7904 6.5625 49.6953 6.5625C50.5998 6.5625 51.3359 5.82678 51.3359 4.92188C51.3359 4.0174 50.5998 3.28125 49.6953 3.28125Z" fill="#F2C94C"/>
</svg>
