<svg width="28" height="27" viewBox="0 0 28 27" fill="none" xmlns="http://www.w3.org/2000/svg">
<path d="M8.84978 21.2074C7.25017 21.2074 5.95349 22.5041 5.95349 24.1037C5.95349 25.7033 7.25023 27 8.84978 27C10.4494 27 11.7461 25.7032 11.7461 24.1037C11.7461 22.5041 10.4494 21.2074 8.84978 21.2074ZM8.84978 25.7128C7.96112 25.7128 7.24074 24.9924 7.24074 24.1037C7.24074 23.2151 7.96112 22.4947 8.84978 22.4947C9.73843 22.4947 10.4588 23.2151 10.4588 24.1037C10.4589 24.9924 9.73843 25.7128 8.84978 25.7128Z" fill="white"/>
<path d="M21.0787 21.2074C19.479 21.2074 18.1824 22.5041 18.1824 24.1037C18.1824 25.7033 19.4791 27 21.0787 27C22.6782 27 23.9749 25.7032 23.9749 24.1037C23.9749 22.5041 22.6783 21.2074 21.0787 21.2074ZM21.0787 25.7128C20.19 25.7128 19.4696 24.9924 19.4696 24.1037C19.4696 23.2151 20.19 22.4947 21.0787 22.4947C21.9673 22.4947 22.6877 23.2151 22.6877 24.1037C22.6878 24.9924 21.9673 25.7128 21.0787 25.7128Z" fill="white"/>
<path d="M27.6115 4.31234C27.4774 4.16592 27.2941 4.07426 27.0966 4.05486L6.14663 3.76523L5.56737 1.99525C5.15929 0.812031 4.05129 0.0132433 2.79976 0H0.643626C0.28815 0 0 0.28815 0 0.643626C0 0.999101 0.28815 1.28725 0.643626 1.28725H2.79976C3.49957 1.30271 4.11578 1.75206 4.34449 2.41361L8.43151 14.739L8.10972 15.4792C7.7508 16.4047 7.85859 17.4464 8.39935 18.2789C8.93494 19.0966 9.83598 19.6012 10.813 19.6306H23.3315C23.687 19.6306 23.9751 19.3424 23.9751 18.9869C23.9751 18.6315 23.687 18.3433 23.3315 18.3433H10.8129C10.2612 18.3295 9.75331 18.0393 9.46128 17.5709C9.17252 17.1083 9.1132 16.5385 9.30039 16.0262L9.55787 15.447L23.1062 14.031C24.5943 13.8671 25.8185 12.7847 26.1634 11.3277L27.7081 4.85932C27.7777 4.67305 27.7408 4.46356 27.6115 4.31234ZM24.9083 11.0382C24.6994 11.976 23.9031 12.6678 22.9453 12.7438L9.55787 14.1275L6.565 5.05248L26.2921 5.34211L24.9083 11.0382Z" fill="white"/>
</svg>
