<svg width="26" height="25" viewBox="0 0 26 25" fill="none" xmlns="http://www.w3.org/2000/svg">
<path d="M8.67277 24.2628C9.80048 24.2628 10.7147 23.34 10.7147 22.2017C10.7147 21.0634 9.80048 20.1406 8.67277 20.1406C7.54505 20.1406 6.63086 21.0634 6.63086 22.2017C6.63086 23.34 7.54505 24.2628 8.67277 24.2628Z" stroke="#525252" stroke-miterlimit="10"/>
<path d="M19.6122 24.2628C20.7399 24.2628 21.6541 23.34 21.6541 22.2017C21.6541 21.0634 20.7399 20.1406 19.6122 20.1406C18.4845 20.1406 17.5703 21.0634 17.5703 22.2017C17.5703 23.34 18.4845 24.2628 19.6122 24.2628Z" stroke="#525252" stroke-miterlimit="10"/>
<path d="M21.6534 17.6078H10.7146C10.7146 17.6078 8.52684 17.5489 8.41016 15.635C8.41016 15.6056 8.41016 14.1923 9.22692 13.6328" stroke="#525252" stroke-miterlimit="10" stroke-linecap="round" stroke-linejoin="round"/>
<path d="M21.3348 12.5133L8.90831 13.8089L5.78711 4.38672L24.9519 4.68116L23.6392 10.4522C23.3767 11.5711 22.4432 12.3956 21.3348 12.5133Z" stroke="#525252" stroke-miterlimit="10" stroke-linecap="round" stroke-linejoin="round"/>
<path d="M0.972656 1C0.972656 1 3.04373 1 3.10207 1C3.16041 1 4.99813 1.14722 5.28983 2.61943C5.28983 2.64888 6.04825 5.18108 6.04825 5.18108" stroke="#525252" stroke-miterlimit="10" stroke-linecap="round" stroke-linejoin="round"/>
</svg>
