<svg width="47" height="42" viewBox="0 0 47 42" fill="none" xmlns="http://www.w3.org/2000/svg">
<path d="M46.1015 13.4397C46.1015 6.02904 40.0725 0 32.6619 0C30.5124 0 28.4579 0.492764 26.5557 1.4647C25.2609 2.12618 24.0715 3.00506 23.0508 4.04791C22.0302 3.00506 20.8408 2.12628 19.5458 1.4647C17.6436 0.492764 15.5892 0 13.4397 0C6.02904 0 0 6.02904 0 13.4397C0 18.6884 2.77208 24.2632 8.23915 30.009C12.804 34.8066 18.3925 38.8057 22.2769 41.3157L23.0508 41.8158L23.8246 41.3157C24.6912 40.7558 25.5537 40.1791 26.3986 39.5948C28.315 40.8279 30.5942 41.544 33.0376 41.544C39.8215 41.544 45.3405 36.0249 45.3405 29.241C45.3405 26.8254 44.6403 24.5704 43.4327 22.6676C45.2038 19.5083 46.1015 16.4077 46.1015 13.4397ZM23.0508 38.4153C19.3538 35.9758 14.3846 32.331 10.3051 28.0433C5.35928 22.8456 2.85164 17.9322 2.85164 13.4397C2.85164 7.60143 7.60143 2.85164 13.4397 2.85164C16.8009 2.85164 19.8885 4.39562 21.9108 7.08757L23.0508 8.60511L24.1908 7.08757C26.2131 4.39562 29.3007 2.85164 32.6619 2.85164C38.5002 2.85164 43.25 7.60143 43.25 13.4397C43.25 15.6144 42.6508 17.9114 41.467 20.2884C39.2634 18.2126 36.2967 16.9383 33.0377 16.9383C26.2538 16.9383 20.7349 22.4573 20.7349 29.2412C20.7349 32.5159 22.0211 35.4956 24.1147 37.7024C23.7619 37.9419 23.4073 38.1801 23.0508 38.4153ZM33.0376 38.6924C27.8261 38.6924 23.5864 34.4526 23.5864 29.2411C23.5864 24.0296 27.8262 19.7898 33.0376 19.7898C38.249 19.7898 42.4889 24.0296 42.4889 29.2411C42.4889 34.4526 38.2491 38.6924 33.0376 38.6924Z" fill="url(#paint0_linear)"/>
<path d="M34.9679 26.5843L33.0376 23.2297L31.1072 26.5843L27.3203 27.3835L29.9143 30.2559L29.5041 34.1045L33.0376 32.5252L36.571 34.1045L36.1609 30.2559L38.7548 27.3835L34.9679 26.5843Z" fill="url(#paint1_linear)"/>
<defs>
<linearGradient id="paint0_linear" x1="23.0508" y1="0" x2="23.0508" y2="41.8158" gradientUnits="userSpaceOnUse">
<stop stop-color="#E6332A"/>
<stop offset="1" stop-color="#C00000"/>
</linearGradient>
<linearGradient id="paint1_linear" x1="33.0376" y1="23.2297" x2="33.0376" y2="34.1045" gradientUnits="userSpaceOnUse">
<stop stop-color="#E6332A"/>
<stop offset="1" stop-color="#C00000"/>
</linearGradient>
</defs>
</svg>
