<svg width="33" height="26" viewBox="0 0 33 26" fill="none" xmlns="http://www.w3.org/2000/svg">
<path d="M31.3207 3.97283C30.6739 3.29529 29.7808 2.89493 28.7645 2.89493H23.6522V2.83333C23.6522 2.06341 23.3442 1.32428 22.8207 0.831522C22.2971 0.307971 21.5888 0 20.8188 0H11.5797C10.779 0 10.0707 0.307971 9.5471 0.831522C9.02355 1.35507 8.71558 2.06341 8.71558 2.83333V2.89493H3.63406C2.61775 2.89493 1.72464 3.29529 1.0779 3.97283C0.43116 4.61957 0 5.54348 0 6.52899V21.8659C0 22.8823 0.400362 23.7754 1.0779 24.4221C1.72464 25.0688 2.64855 25.5 3.63406 25.5H28.7645C29.7808 25.5 30.6739 25.0996 31.3207 24.4221C31.9674 23.7754 32.3986 22.8515 32.3986 21.8659V6.52899C32.3986 5.51268 31.9982 4.61957 31.3207 3.97283ZM30.7971 21.8659H30.7663C30.7663 22.4203 30.5507 22.9131 30.1812 23.2826C29.8116 23.6522 29.3189 23.8678 28.7645 23.8678H3.63406C3.07971 23.8678 2.58696 23.6522 2.21739 23.2826C1.84783 22.9131 1.63225 22.4203 1.63225 21.8659V6.52899C1.63225 5.97464 1.84783 5.48188 2.21739 5.11232C2.58696 4.74275 3.07971 4.52717 3.63406 4.52717H9.5779C10.0399 4.52717 10.4094 4.15761 10.4094 3.69565V2.80254C10.4094 2.46377 10.5326 2.1558 10.7482 1.94022C10.9638 1.72464 11.2717 1.60145 11.6105 1.60145H20.8188C21.1576 1.60145 21.4656 1.72464 21.6812 1.94022C21.8967 2.1558 22.0199 2.46377 22.0199 2.80254V3.69565C22.0199 4.15761 22.3895 4.52717 22.8515 4.52717H28.7953C29.3496 4.52717 29.8424 4.74275 30.212 5.11232C30.5815 5.48188 30.7971 5.97464 30.7971 6.52899V21.8659Z" fill="#E6332A"/>
<path d="M16.1994 6.62143C14.1052 6.62143 12.1958 7.48375 10.8407 8.83882C9.45481 10.2247 8.62329 12.1033 8.62329 14.1975C8.62329 16.2917 9.48561 18.2011 10.8407 19.5562C12.2266 20.9421 14.1052 21.7736 16.1994 21.7736C18.2936 21.7736 20.203 20.9113 21.5581 19.5562C22.944 18.1703 23.7755 16.2917 23.7755 14.1975C23.7755 12.1033 22.9132 10.1939 21.5581 8.83882C20.203 7.48375 18.2936 6.62143 16.1994 6.62143ZM20.3878 18.4167C19.3099 19.4638 17.8316 20.1414 16.1994 20.1414C14.5671 20.1414 13.0889 19.4638 12.011 18.4167C10.9331 17.3388 10.2863 15.8606 10.2863 14.2283C10.2863 12.5961 10.9639 11.1178 12.011 10.0399C13.0889 8.96201 14.5671 8.31527 16.1994 8.31527C17.8316 8.31527 19.3099 8.9928 20.3878 10.0399C21.4657 11.1178 22.1124 12.5961 22.1124 14.2283C22.1432 15.8606 21.4657 17.3388 20.3878 18.4167Z" fill="#E6332A"/>
<path d="M27.1631 9.60875C27.9965 9.60875 28.6722 8.93313 28.6722 8.0997C28.6722 7.26627 27.9965 6.59064 27.1631 6.59064C26.3297 6.59064 25.6541 7.26627 25.6541 8.0997C25.6541 8.93313 26.3297 9.60875 27.1631 9.60875Z" fill="#E6332A"/>
</svg>
