<svg width="26" height="21" viewBox="0 0 26 21" fill="none" xmlns="http://www.w3.org/2000/svg">
<path d="M12.9039 17.2158C15.8388 17.2158 18.218 14.8422 18.218 11.9141C18.218 8.98608 15.8388 6.61243 12.9039 6.61243C9.96904 6.61243 7.58984 8.98608 7.58984 11.9141C7.58984 14.8422 9.96904 17.2158 12.9039 17.2158Z" stroke="#E5332A" stroke-width="1.5" stroke-miterlimit="10"/>
<path d="M21.4242 7.88598C21.8505 7.88598 22.1961 7.54121 22.1961 7.1159C22.1961 6.6906 21.8505 6.34583 21.4242 6.34583C20.9979 6.34583 20.6523 6.6906 20.6523 7.1159C20.6523 7.54121 20.9979 7.88598 21.4242 7.88598Z" fill="#E5332A" stroke="#E5332A" stroke-width="1.5" stroke-miterlimit="10"/>
<path d="M18.0397 3.2063V2.85088C18.0397 2.0808 17.3866 1.4292 16.6147 1.4292H9.16312C8.39124 1.4292 7.73811 2.0808 7.73811 2.85088V3.2063C7.73811 3.44325 7.55999 3.62096 7.32249 3.62096H7.11467H3.01778C1.83028 3.62096 0.850586 4.59837 0.850586 5.78311V17.8378C0.850586 19.0225 1.83028 20 3.01778 20H22.7304C23.9179 20 24.8976 19.0225 24.8976 17.8378V5.78311C24.8976 4.59837 23.9179 3.62096 22.7304 3.62096H18.9897H18.485C18.2475 3.65058 18.0397 3.44325 18.0397 3.2063Z" stroke="#E5332A" stroke-width="1.5" stroke-miterlimit="10"/>
</svg>
