<svg width="28" height="25" viewBox="0 0 28 25" fill="none" xmlns="http://www.w3.org/2000/svg">
<path d="M20.8945 24.0543C22.2374 24.0543 23.326 22.9302 23.326 21.5435C23.326 20.1567 22.2374 19.0326 20.8945 19.0326C19.5515 19.0326 18.4629 20.1567 18.4629 21.5435C18.4629 22.9302 19.5515 24.0543 20.8945 24.0543Z" stroke="#E5332A" stroke-miterlimit="10"/>
<path d="M7.18939 24.0543C8.53232 24.0543 9.62097 22.9302 9.62097 21.5435C9.62097 20.1567 8.53232 19.0326 7.18939 19.0326C5.84647 19.0326 4.75781 20.1567 4.75781 21.5435C4.75781 22.9302 5.84647 24.0543 7.18939 24.0543Z" stroke="#E5332A" stroke-miterlimit="10"/>
<path d="M20.3579 19L9.62109 8.33691" stroke="#E5332A" stroke-miterlimit="10"/>
<path d="M18.4318 20.9891L8.01074 9.83691" stroke="#E5332A" stroke-miterlimit="10"/>
<path d="M9.58887 21.087L13.7889 16.6522" stroke="#E5332A" stroke-miterlimit="10"/>
<path d="M7.66309 19.0978L11.9894 14.7283" stroke="#E5332A" stroke-miterlimit="10"/>
<path d="M16.0322 14.0761L19.9164 10" stroke="#E5332A" stroke-miterlimit="10"/>
<path d="M14.2627 12.5109L18.2416 8.46741" stroke="#E5332A" stroke-miterlimit="10"/>
<path d="M12.8105 7.94565L12.1474 8.63044C11.9895 8.79348 11.7053 8.89131 11.4842 8.82609L10.1579 8.43478C9.77895 8.33696 9.36842 8.43478 9.08421 8.72826L8.48421 9.34783C8.16842 9.67391 8.07368 10.1304 8.23158 10.5543L8.64211 11.663C8.73684 11.9239 8.67368 12.2174 8.48421 12.413L7.72632 13.1957C7.50526 13.4239 7.12632 13.4239 6.87368 13.1957L1.28421 7.42391C0.905263 7.03261 0.905263 6.41304 1.28421 6.02174L5.86316 1.29348C6.24211 0.902174 6.84211 0.902174 7.22105 1.29348L12.8421 7.09783C13.0632 7.32609 13.0632 7.71739 12.8105 7.94565Z" stroke="#E5332A" stroke-miterlimit="10"/>
<path d="M2.01074 8.23908L7.94758 2.10864" stroke="#E5332A" stroke-miterlimit="10"/>
<path d="M20.3262 13.1957L19.663 12.5109C19.5051 12.3478 19.4104 12.0543 19.4735 11.8261L19.8525 10.4565C19.9472 10.0652 19.8525 9.64131 19.5683 9.34783L18.9683 8.72826C18.6525 8.40218 18.2104 8.30435 17.7999 8.46739L16.7262 8.89131C16.4735 8.98913 16.1893 8.92391 15.9999 8.72826L15.242 7.94565C15.0209 7.71739 15.0209 7.32609 15.242 7.06522L20.8314 1.29348C21.2104 0.902174 21.8104 0.902174 22.1893 1.29348L26.7683 6.02174C27.1472 6.41304 27.1472 7.03261 26.7683 7.42391L21.1472 13.1957C20.9262 13.4565 20.5472 13.4565 20.3262 13.1957Z" stroke="#E5332A" stroke-miterlimit="10"/>
<path d="M20.042 2.04346L25.9473 8.17389" stroke="#E5332A" stroke-miterlimit="10"/>
</svg>
