<svg width="22" height="24" viewBox="0 0 22 24" fill="none" xmlns="http://www.w3.org/2000/svg">
<path d="M19.3799 22.9999H7.88229C6.76257 22.9999 5.86133 22.1013 5.86133 20.9848V6.60645C5.86133 5.48995 6.76257 4.59131 7.88229 4.59131H19.3799C20.4996 4.59131 21.4009 5.48995 21.4009 6.60645V20.9848C21.4009 22.1013 20.4996 22.9999 19.3799 22.9999Z" stroke="#E5332A" stroke-miterlimit="10"/>
<path d="M3.84027 20.0861H3.02096C1.90124 20.0861 1 19.1874 1 18.0709V2.73951C1 1.62301 1.90124 0.724365 3.02096 0.724365H14.5186C15.611 0.724365 16.4849 1.56855 16.5396 2.65781" stroke="#E5332A" stroke-miterlimit="10" stroke-linecap="round" stroke-linejoin="round"/>
<path d="M9.71191 7.99512H17.5227" stroke="#E5332A" stroke-miterlimit="10" stroke-linecap="round" stroke-linejoin="round"/>
<path d="M9.71191 11.8621H17.5227" stroke="#E5332A" stroke-miterlimit="10" stroke-linecap="round" stroke-linejoin="round"/>
<path d="M9.71191 15.729H17.5227" stroke="#E5332A" stroke-miterlimit="10" stroke-linecap="round" stroke-linejoin="round"/>
<path d="M9.71191 19.6232H17.5227" stroke="#E5332A" stroke-miterlimit="10" stroke-linecap="round" stroke-linejoin="round"/>
</svg>
