<svg width="24" height="24" viewBox="0 0 24 24" fill="none" xmlns="http://www.w3.org/2000/svg">
<path d="M21.9658 2.515C19.3354 -0.0587159 15.1303 -0.0581561 12.5005 2.51628L1.47117 13.5457C-0.523164 15.587 -0.48505 18.8586 1.5563 20.8529C3.56406 22.8145 6.7706 22.8145 8.77837 20.8529L18.7656 10.8656C20.064 9.56727 20.064 7.46216 18.7656 6.1638C17.4673 4.86544 15.3622 4.86544 14.0638 6.1638L4.51075 15.7168C4.17755 16.0618 4.18711 16.6116 4.53212 16.9448C4.86868 17.2699 5.40222 17.2699 5.73879 16.9448L15.2918 7.39178C15.9253 6.78491 16.9308 6.80654 17.5376 7.44002C18.1261 8.05437 18.1261 9.02329 17.5376 9.63764L7.55038 19.6249C6.20119 20.9549 4.02921 20.9393 2.6992 19.5901C1.38262 18.2546 1.38262 16.1092 2.6992 14.7737L13.7286 3.74426C15.6932 1.77894 18.879 1.77838 20.8443 3.74294C22.8096 5.7075 22.8102 8.89333 20.8456 10.8587L9.81619 21.8881C9.4519 22.2001 9.40946 22.7483 9.72144 23.1126C10.0334 23.4769 10.5817 23.5193 10.946 23.2074C10.98 23.1782 11.0116 23.1466 11.0407 23.1126L22.0701 12.0832C24.6835 9.41222 24.6368 5.12837 21.9658 2.515Z" fill="url(#paint0_linear)"/>
<defs>
<linearGradient id="paint0_linear" x1="12" y1="0.585083" x2="12" y2="23.4162" gradientUnits="userSpaceOnUse">
<stop stop-color="#E6332A"/>
<stop offset="1" stop-color="#C00000"/>
</linearGradient>
</defs>
</svg>
