<svg width="27" height="30" viewBox="0 0 27 30" fill="none" xmlns="http://www.w3.org/2000/svg">
<path d="M15.4089 21.6828C15.196 21.8961 15.196 22.2406 15.4089 22.4539C15.6218 22.6672 15.9656 22.6672 16.1785 22.4539L22.788 15.8313C23.1537 15.4648 23.3556 14.9727 23.3556 14.4531C23.3556 13.9336 23.1537 13.4414 22.788 13.075C22.4223 12.7086 21.9311 12.5062 21.4126 12.5062C20.8941 12.5062 20.4029 12.7086 20.0372 13.075L12.7018 20.425C11.4192 21.7102 11.4192 23.7992 12.7018 25.0844C13.3404 25.7242 14.1863 26.0469 15.0269 26.0469C15.8674 26.0469 16.7134 25.7242 17.3519 25.0844L24.6492 17.7727C26.4503 15.968 26.4503 13.0367 24.6492 11.2375C24.1798 10.7672 23.634 10.4227 23.05 10.1984V6.90625C23.05 6.76406 22.9954 6.62188 22.8917 6.51797L17.543 1.15859C17.4393 1.05469 17.2973 1 17.1554 1H2.63738C1.73682 1 1 1.73828 1 2.64062V11.418V12.8289V17.4609V19.3477V27.3594C1 28.2617 1.73682 29 2.63738 29H21.4126C22.3132 29 23.05 28.2617 23.05 27.3594V22C23.05 21.6992 22.8044 21.4531 22.5042 21.4531C22.204 21.4531 21.9584 21.6992 21.9584 22V27.3594C21.9584 27.6602 21.7128 27.9062 21.4126 27.9062H2.63738C2.33719 27.9062 2.09158 27.6602 2.09158 27.3594V19.3477V17.4609V12.8289V11.418V2.64062C2.09158 2.33984 2.33719 2.09375 2.63738 2.09375H16.6096V5.8125C16.6096 6.71484 17.3465 7.45312 18.247 7.45312H21.9584V9.91953C20.5939 9.75 19.1694 10.1875 18.1215 11.232L10.344 19.0305C10.1311 19.2438 10.1311 19.5883 10.344 19.8016C10.5568 20.0148 10.9007 20.0148 11.1135 19.8016L18.8911 12.0086C20.2665 10.6305 22.4987 10.6305 23.8741 12.0086C25.2495 13.3867 25.2495 15.6234 23.8741 17.0016L16.5769 24.3078C15.72 25.1664 14.3282 25.1664 13.4713 24.3078C13.0565 23.8922 12.8273 23.3398 12.8273 22.7492C12.8273 22.1641 13.0565 21.6063 13.4713 21.1906L20.8068 13.8516C20.9705 13.6875 21.1834 13.6 21.4126 13.6C21.6419 13.6 21.8547 13.6875 22.0184 13.8516C22.1822 14.0156 22.2695 14.2289 22.2695 14.4586C22.2695 14.6883 22.1822 14.9016 22.0184 15.0656L15.4089 21.6828ZM18.247 6.35938C17.9468 6.35938 17.7012 6.11328 17.7012 5.8125V2.86484L21.1888 6.35938H18.247Z" fill="#E6332A" stroke="#E6332A" stroke-width="0.3"/>
</svg>
