<svg width="48" height="52" viewBox="0 0 48 52" fill="none" xmlns="http://www.w3.org/2000/svg">
<path d="M40.2605 11.5664C36.3023 7.5918 31.148 5.23828 25.6144 4.85742L28.4152 2.04492L27.3649 1L22.6871 5.69727L27.3649 10.3945L28.4152 9.33984L25.4296 6.3418C36.633 7.08398 45.5121 16.4688 45.5121 27.9043C45.5121 39.8184 35.855 49.5156 23.9903 49.5156C12.1256 49.5156 2.47822 39.8184 2.47822 27.9043C2.47822 27.4258 2.49767 26.9375 2.52685 26.4687L1.04863 26.3711C1.01945 26.8789 1 27.3965 1 27.9043C1 34.0762 3.39239 39.877 7.73954 44.2324C12.0867 48.5879 17.8537 51 24 51C30.1463 51 35.923 48.5977 40.2605 44.2324C44.5979 39.8672 47 34.0664 47 27.9043C47 21.7422 44.6076 15.9316 40.2605 11.5664ZM5.01649 14.8574C4.72474 15.2773 4.45243 15.7168 4.18985 16.1562L5.46385 16.918C5.70698 16.5078 5.96956 16.0977 6.23214 15.707L5.01649 14.8574ZM6.9129 12.4453C6.57252 12.8262 6.24186 13.2168 5.92093 13.627L7.08795 14.5449C7.3797 14.1738 7.69091 13.8027 8.01184 13.4414L6.9129 12.4453ZM1.45708 23.3145C1.35983 23.8125 1.2723 24.3301 1.20423 24.8379L2.67273 25.0332C2.73108 24.5547 2.8186 24.0762 2.90613 23.6172L1.45708 23.3145ZM9.11078 10.2969C8.72178 10.6289 8.34249 10.9805 7.97294 11.332L9.00381 12.3965C9.34419 12.0645 9.70402 11.7324 10.0638 11.4297L9.11078 10.2969ZM3.45074 17.5039C3.21734 17.9629 3.00338 18.4316 2.80888 18.9004L4.18013 19.4766C4.3649 19.0371 4.56913 18.5977 4.78309 18.168L3.45074 17.5039ZM2.25455 20.3457C2.08922 20.8242 1.93362 21.3223 1.79746 21.8203L3.22706 22.2109C3.35349 21.752 3.49937 21.2832 3.65497 20.834L2.25455 20.3457ZM24.107 11.5078C15.1307 11.5078 7.83679 18.8418 7.83679 27.8457C7.83679 36.8496 15.1404 44.1836 24.107 44.1836C33.0736 44.1836 40.3772 36.8594 40.3772 27.8555C40.3772 18.8516 33.0736 11.5078 24.107 11.5078ZM24.107 42.6992C15.9476 42.6992 9.31501 36.0391 9.31501 27.8457C9.31501 19.6523 15.9476 12.9922 24.107 12.9922C32.2567 12.9922 38.8989 19.6523 38.8989 27.8457C38.8989 36.0391 32.2567 42.6992 24.107 42.6992ZM23.2609 14.7402H24.7488V16.2344H23.2609V14.7402ZM23.2609 39.3789H24.7488V40.873H23.2609V39.3789ZM10.9877 27.0547H12.4757V28.5488H10.9877V27.0547ZM35.5243 27.0547H37.0123V28.5488H35.5243V27.0547ZM24.7391 27.25V19.0176H23.2512V27.8652L27.8706 32.5039L28.9209 31.4492L24.7391 27.25Z" fill="url(#paint0_linear)" stroke="url(#paint1_linear)" stroke-width="0.5" stroke-linecap="round" stroke-linejoin="round"/>
<defs>
<linearGradient id="paint0_linear" x1="24" y1="1" x2="24" y2="51" gradientUnits="userSpaceOnUse">
<stop stop-color="#E6332A"/>
<stop offset="1" stop-color="#C00000"/>
</linearGradient>
<linearGradient id="paint1_linear" x1="24" y1="1" x2="24" y2="51" gradientUnits="userSpaceOnUse">
<stop stop-color="#E6332A"/>
<stop offset="1" stop-color="#C00000"/>
</linearGradient>
</defs>
</svg>
