<svg width="13" height="13" viewBox="0 0 13 13" fill="none" xmlns="http://www.w3.org/2000/svg">
<path d="M5.30901 6.5001L0.247066 1.4379C-0.0823565 1.10862 -0.0823565 0.576231 0.247066 0.246956C0.576335 -0.0823187 1.10872 -0.0823187 1.43798 0.246956L6.50008 5.30915L11.562 0.246956C11.8914 -0.0823187 12.4237 -0.0823187 12.7529 0.246956C13.0824 0.576231 13.0824 1.10862 12.7529 1.4379L7.69099 6.5001L12.7529 11.5623C13.0824 11.8916 13.0824 12.424 12.7529 12.7532C12.5888 12.9175 12.3731 13 12.1575 13C11.9419 13 11.7263 12.9175 11.562 12.7532L6.50008 7.69104L1.43798 12.7532C1.27374 12.9175 1.05813 13 0.842525 13C0.62692 13 0.411315 12.9175 0.247066 12.7532C-0.0823565 12.424 -0.0823565 11.8916 0.247066 11.5623L5.30901 6.5001Z" fill="#E6332A"/>
</svg>
