<svg width="24" height="21" viewBox="0 0 24 21" fill="none" xmlns="http://www.w3.org/2000/svg">
<path d="M23.7733 9.34153C23.7733 3.69871 17.8251 0 11.8866 0C5.92447 0 0 3.71609 0 9.34153C0 11.4698 0.932101 13.5509 2.62467 15.2017C2.68942 15.2649 2.71423 15.3608 2.68936 15.4519C2.15774 17.3995 0.898606 19.1588 0.381953 19.8248C0.221242 20.032 0.194809 20.306 0.313034 20.54C0.428603 20.7687 0.657087 20.9089 0.912366 20.9089C0.91816 20.9089 0.923893 20.9088 0.929686 20.9087C3.45791 20.8456 6.38843 20.132 8.19989 18.3511C8.2632 18.2889 8.35402 18.2642 8.44298 18.2854C9.55595 18.5494 10.7146 18.6832 11.8866 18.6832C17.8471 18.6831 23.7733 14.9685 23.7733 9.34153ZM8.65185 17.4045C8.25831 17.311 7.85197 17.4236 7.56525 17.7055C5.75374 19.4866 2.7957 19.8915 1.3954 19.9815C2.03505 19.0985 3.07506 17.4768 3.56268 15.6903C3.67415 15.2819 3.55689 14.8464 3.25671 14.5536C1.7184 13.0533 0.905245 11.2509 0.905245 9.34153C0.905245 4.68977 5.83147 0.905245 11.8866 0.905245C17.9418 0.905245 22.8681 4.68971 22.8681 9.34153C22.8681 13.9933 17.9418 17.7778 11.8866 17.7778C10.7848 17.7778 9.69656 17.6522 8.65185 17.4045Z" fill="white"/>
<path d="M4.84351 7.72266C3.97852 7.72266 3.27484 8.42639 3.27484 9.29133C3.27484 10.1563 3.97852 10.86 4.84351 10.86C5.7085 10.86 6.41218 10.1563 6.41218 9.29133C6.41218 8.42639 5.7085 7.72266 4.84351 7.72266ZM4.84351 9.95481C4.47767 9.95481 4.18009 9.65717 4.18009 9.29139C4.18009 8.92561 4.47773 8.62796 4.84351 8.62796C5.20929 8.62796 5.50693 8.92561 5.50693 9.29139C5.50693 9.65717 5.20929 9.95481 4.84351 9.95481Z" fill="white"/>
<path d="M9.31867 7.72266C8.45368 7.72266 7.75 8.42639 7.75 9.29133C7.75 10.1563 8.45368 10.86 9.31867 10.86C10.1837 10.86 10.8873 10.1563 10.8873 9.29133C10.8873 8.42639 10.1837 7.72266 9.31867 7.72266ZM9.31867 9.95481C8.95283 9.95481 8.65525 9.65717 8.65525 9.29139C8.65525 8.92561 8.95289 8.62796 9.31867 8.62796C9.68445 8.62796 9.98209 8.92561 9.98209 9.29139C9.98209 9.65717 9.68451 9.95481 9.31867 9.95481Z" fill="white"/>
<path d="M13.7937 7.72266C12.9287 7.72266 12.225 8.42639 12.225 9.29133C12.225 10.1563 12.9287 10.86 13.7937 10.86C14.6587 10.86 15.3624 10.1563 15.3624 9.29133C15.3624 8.42639 14.6587 7.72266 13.7937 7.72266ZM13.7937 9.95481C13.4279 9.95481 13.1303 9.65717 13.1303 9.29139C13.1303 8.92561 13.4279 8.62796 13.7937 8.62796C14.1595 8.62796 14.4571 8.92561 14.4571 9.29139C14.4571 9.65717 14.1595 9.95481 13.7937 9.95481Z" fill="white"/>
<path d="M18.2689 7.72266C17.4039 7.72266 16.7002 8.42639 16.7002 9.29133C16.7002 10.1563 17.4039 10.86 18.2689 10.86C19.1339 10.86 19.8375 10.1563 19.8375 9.29133C19.8375 8.42639 19.1339 7.72266 18.2689 7.72266ZM18.2689 9.95481C17.903 9.95481 17.6054 9.65717 17.6054 9.29139C17.6054 8.92561 17.9031 8.62796 18.2689 8.62796C18.6346 8.62796 18.9323 8.92561 18.9323 9.29139C18.9323 9.65717 18.6346 9.95481 18.2689 9.95481Z" fill="white"/>
</svg>
