<svg width="132" height="38" viewBox="0 0 132 38" fill="none" xmlns="http://www.w3.org/2000/svg">
<path d="M0.5 32.6079V32.6078V4.74778C0.5 3.63297 0.974726 2.55608 1.83262 1.75632C2.69169 0.955457 3.86389 0.5 5.09288 0.5H126.673C127.902 0.5 129.074 0.955544 129.933 1.75656C130.792 2.55647 131.266 3.63357 131.266 4.7486V32.6078C131.266 33.7229 130.792 34.8 129.933 35.5999C129.074 36.4009 127.902 36.8564 126.673 36.8564H5.09288C4.48499 36.8564 3.88377 36.7448 3.32385 36.5285C2.76396 36.3123 2.25742 35.9962 1.83234 35.5999C1.40733 35.2036 1.07224 34.735 0.844375 34.222C0.616559 33.7091 0.499898 33.1607 0.5 32.6079Z" fill="black" stroke="url(#paint0_linear_11880_536)"/>
<path d="M45.3906 17.5631H47.1054V21.4427C46.5815 21.8531 45.9864 22.1639 45.3498 22.3598C44.6828 22.5728 43.9866 22.6808 43.2863 22.6799C42.3494 22.6938 41.4242 22.4714 40.5965 22.0332C39.8185 21.6203 39.1689 21.0025 38.7184 20.247C38.258 19.4685 38.0218 18.5784 38.0357 17.6747C38.0218 16.771 38.258 15.8809 38.7184 15.1024C39.1712 14.3448 39.8248 13.7265 40.6071 13.3154C41.4422 12.8767 42.3744 12.6543 43.3182 12.6686C44.0811 12.6598 44.8386 12.7981 45.549 13.0759C46.1973 13.3302 46.7753 13.7351 47.2352 14.2569L46.092 15.3696C45.7435 15.0096 45.3245 14.7249 44.8611 14.5329C44.3978 14.341 43.8998 14.2459 43.3982 14.2537C42.7605 14.2418 42.13 14.3902 41.565 14.6854C41.0409 14.9625 40.6061 15.3818 40.3107 15.895C40.0025 16.437 39.846 17.0517 39.8575 17.6747C39.8486 18.2886 40.0051 18.8937 40.3107 19.4267C40.6083 19.9412 41.0423 20.364 41.565 20.6485C42.1227 20.951 42.7495 21.1043 43.3843 21.0932C44.1464 21.0932 44.8155 20.9263 45.3914 20.5923L45.3906 17.5631Z" fill="white"/>
<path d="M50.6331 22.1562C50.0433 21.8456 49.553 21.376 49.2179 20.8009C48.8733 20.203 48.697 19.5234 48.7076 18.8338C48.6959 18.1464 48.8717 17.4687 49.2163 16.8732C49.5529 16.3009 50.043 15.8337 50.6314 15.5244C51.2579 15.1938 51.9577 15.0258 52.6663 15.0357C53.3795 15.0246 54.0841 15.1927 54.7151 15.5244C55.3038 15.8328 55.7945 16.2992 56.1319 16.8708C56.4764 17.4662 56.6523 18.1439 56.6406 18.8314C56.6517 19.5208 56.4759 20.2004 56.1319 20.7984C55.7968 21.3735 55.3064 21.8432 54.7167 22.1538C54.0858 22.4858 53.3812 22.6538 52.668 22.6425C51.9595 22.6535 51.2596 22.4863 50.6331 22.1562ZM54.257 20.5158C54.6751 20.0895 54.8841 19.5289 54.8841 18.8338C54.8841 18.1387 54.6751 17.5778 54.257 17.151C53.8389 16.7247 53.3092 16.5116 52.668 16.5116C52.0267 16.5116 51.4994 16.7247 51.0863 17.151C50.672 17.5778 50.4651 18.1387 50.4657 18.8338C50.4662 19.5289 50.6731 20.0895 51.0863 20.5158C51.4994 20.9426 52.0267 21.1557 52.668 21.1552C53.3092 21.1546 53.84 20.9415 54.2603 20.5158H54.257Z" fill="white"/>
<path d="M59.6236 22.1562C59.0339 21.8456 58.5436 21.376 58.2085 20.8009C57.8644 20.2028 57.6887 19.5232 57.6998 18.8338C57.6881 18.1464 57.8639 17.4687 58.2085 16.8732C58.545 16.3009 59.0352 15.8337 59.6236 15.5244C60.2501 15.1938 60.9499 15.0258 61.6585 15.0357C62.3717 15.0246 63.0762 15.1927 63.7073 15.5244C64.2948 15.8333 64.7843 16.2996 65.1208 16.8708C65.4653 17.4662 65.6412 18.1439 65.6295 18.8314C65.6406 19.5208 65.4648 20.2004 65.1208 20.7984C64.7857 21.3735 64.2954 21.8432 63.7057 22.1538C63.0747 22.4858 62.3701 22.6538 61.6569 22.6425C60.9489 22.6533 60.2497 22.486 59.6236 22.1562ZM63.2476 20.5158C63.6656 20.0895 63.8747 19.5289 63.8747 18.8338C63.8747 18.1387 63.6656 17.5778 63.2476 17.151C62.8295 16.7247 62.2998 16.5116 61.6585 16.5116C61.0172 16.5116 60.49 16.7247 60.0768 17.151C59.6625 17.5778 59.4557 18.1387 59.4562 18.8338C59.4568 19.5289 59.6636 20.0895 60.0768 20.5158C60.49 20.9426 61.0172 21.1557 61.6585 21.1552C62.2998 21.1546 62.8295 20.9415 63.2476 20.5158Z" fill="white"/>
<path d="M74.6906 15.1201V21.4188C74.6906 24.0329 73.3525 25.3397 70.6764 25.3391C69.9888 25.3428 69.3039 25.2516 68.6415 25.0679C68.0629 24.9189 67.5218 24.6515 67.0524 24.2827L67.833 22.9794C68.1999 23.2705 68.6185 23.4899 69.0669 23.6262C69.5548 23.7872 70.0653 23.8697 70.5792 23.8705C71.3957 23.8705 71.9946 23.6851 72.3756 23.3142C72.7567 22.9433 72.9472 22.378 72.9472 21.6184V21.229C72.6463 21.5539 72.274 21.8048 71.8596 21.9621C71.4103 22.1332 70.9327 22.2183 70.4518 22.213C69.7853 22.2224 69.1269 22.0671 68.5353 21.7609C67.975 21.47 67.5068 21.0296 67.1831 20.4886C66.8481 19.9216 66.6768 19.2732 66.6882 18.6152C66.675 17.957 66.8464 17.3081 67.1831 16.7418C67.508 16.2052 67.977 15.7698 68.5369 15.485C69.1299 15.1832 69.7878 15.0302 70.4534 15.0395C70.9558 15.0332 71.4548 15.1231 71.9233 15.3042C72.3558 15.4738 72.7374 15.7515 73.0313 16.1106V15.1201H74.6906ZM72.3422 20.1465C72.7651 19.7523 72.9766 19.24 72.9766 18.6095C72.9766 17.9888 72.7651 17.4838 72.3422 17.0945C71.9192 16.7052 71.3778 16.5105 70.718 16.5105C70.049 16.5105 69.5046 16.7052 69.0849 17.0945C68.6651 17.4838 68.4536 17.9888 68.4504 18.6095C68.4504 19.24 68.6619 19.7523 69.0849 20.1465C69.5078 20.5407 70.0522 20.7376 70.718 20.737C71.3778 20.737 71.9192 20.5402 72.3422 20.1465Z" fill="white"/>
<path d="M76.9766 12.2266H78.7183V22.5441H76.9766V12.2266Z" fill="white"/>
<path d="M87.9754 19.3862H82.1345C82.22 19.9088 82.508 20.3768 82.9363 20.6895C83.3686 21.0093 83.9051 21.1692 84.5458 21.1692C85.3624 21.1692 86.0363 20.9004 86.5677 20.3628L87.501 21.4291C87.1611 21.8316 86.7249 22.1423 86.2329 22.3324C85.6816 22.5439 85.0947 22.6479 84.5042 22.6386C83.6876 22.6386 82.9674 22.4757 82.3435 22.1499C81.7424 21.8456 81.2417 21.3751 80.9015 20.7945C80.5571 20.1978 80.3807 19.5192 80.3911 18.8307C80.3804 18.147 80.5512 17.4726 80.8859 16.8759C81.2071 16.3047 81.6828 15.8351 82.2586 15.5205C82.8651 15.1902 83.547 15.0218 84.238 15.0318C84.9168 15.0206 85.5869 15.1859 86.1822 15.5115C86.7475 15.8255 87.2117 16.2933 87.5206 16.8604C87.8407 17.4392 88.001 18.1091 88.0016 18.8698C88.0032 18.9928 87.9934 19.1639 87.9754 19.3862ZM82.8245 16.9182C82.4351 17.2547 82.1844 17.723 82.1206 18.2329H86.3439C86.2856 17.7292 86.0424 17.265 85.6613 16.9296C85.2802 16.5957 84.8063 16.4287 84.2396 16.4287C83.7237 16.4134 83.2201 16.5876 82.8245 16.9182Z" fill="white"/>
<path d="M99.91 13.2256C100.499 13.473 101.002 13.8898 101.353 14.423C101.687 14.9426 101.854 15.5592 101.854 16.2728C101.854 16.9787 101.687 17.5926 101.353 18.1144C101.004 18.6506 100.501 19.0698 99.91 19.3175C99.2828 19.5949 98.5463 19.734 97.7003 19.7345H95.4956V22.543H93.6836V12.8086H97.6987C98.5457 12.8086 99.2828 12.9476 99.91 13.2256ZM99.4151 17.7055C99.8234 17.3716 100.028 16.8942 100.028 16.2736C100.029 15.6529 99.8239 15.1745 99.4135 14.8384C99.0047 14.505 98.4058 14.3383 97.617 14.3383H95.4939V18.2032H97.617C98.4064 18.2032 99.0052 18.0365 99.4135 17.7031L99.4151 17.7055Z" fill="white"/>
<path d="M103.641 12.2266H105.383V22.5441H103.641V12.2266Z" fill="white"/>
<path d="M113.03 15.8213C113.611 16.3453 113.902 17.1354 113.901 18.1915V22.5435H112.257V21.6402C112.033 21.9727 111.715 22.2315 111.344 22.3839C110.89 22.5662 110.404 22.6538 109.915 22.6413C109.412 22.6521 108.913 22.5549 108.451 22.3562C108.06 22.1884 107.724 21.9137 107.483 21.5637C107.255 21.2249 107.135 20.8249 107.141 20.4168C107.141 19.7489 107.39 19.2135 107.887 18.8106C108.385 18.4077 109.168 18.2059 110.236 18.2054H112.156V18.0946C112.156 17.5755 112 17.1769 111.689 16.8989C111.378 16.6209 110.915 16.4819 110.301 16.4819C109.882 16.4817 109.466 16.5474 109.068 16.6765C108.695 16.7896 108.347 16.9735 108.043 17.2182L107.36 15.9532C107.783 15.6407 108.26 15.4098 108.768 15.2723C109.335 15.1117 109.921 15.0319 110.51 15.0353C111.607 15.0353 112.447 15.2973 113.03 15.8213ZM111.441 21.0766C111.774 20.8853 112.029 20.5826 112.159 20.2221V19.3596H110.363C109.359 19.3596 108.857 19.6886 108.857 20.3468C108.853 20.4932 108.885 20.6385 108.951 20.7695C109.016 20.9006 109.114 21.0133 109.234 21.0978C109.484 21.2835 109.832 21.3761 110.279 21.3755C110.686 21.3829 111.088 21.2796 111.441 21.0766Z" fill="white"/>
<path d="M122.959 15.1172L119.474 23.1386C119.147 23.945 118.752 24.5127 118.289 24.8418C117.826 25.1709 117.264 25.3362 116.603 25.3378C116.228 25.3368 115.856 25.2752 115.501 25.1554C115.172 25.0535 114.868 24.883 114.609 24.6553L115.306 23.3756C115.478 23.5366 115.679 23.6639 115.899 23.7511C116.117 23.8422 116.352 23.8895 116.589 23.8904C116.862 23.9009 117.13 23.8175 117.348 23.6542C117.548 23.4962 117.731 23.232 117.899 22.8617L118.024 22.5693L114.777 15.1172H116.589L118.931 20.6087L121.286 15.1172H122.959Z" fill="white"/>
<path d="M28.9907 18.2161L24.5544 15.6641L20.9062 19.1827L24.2404 22.3982L28.9907 19.6626C29.1183 19.5901 29.2243 19.485 29.2977 19.358C29.3711 19.2311 29.4093 19.087 29.4083 18.9405C29.4097 18.7936 29.3717 18.649 29.2983 18.5216C29.2249 18.3942 29.1187 18.2888 28.9907 18.2161Z" fill="#FFD109"/>
<path d="M23.8037 15.2286L18.9212 12.4181L8.22266 6.94922L20.3064 18.6007L23.8037 15.2286Z" fill="#06EF79"/>
<path d="M8.40234 31.2419L18.9416 25.4505L23.4907 22.8306L20.3082 19.7617L8.40234 31.2419Z" fill="#F93646"/>
<path d="M7.50769 7.41797L7.49609 30.9492L19.7043 19.1782L7.50769 7.41797Z" fill="#05D5FB"/>
<defs>
<linearGradient id="paint0_linear_11880_536" x1="1.50297e-06" y1="0.320307" x2="132" y2="37.3203" gradientUnits="userSpaceOnUse">
<stop stop-color="#E5332A"/>
<stop offset="1" stop-color="#E5332A" stop-opacity="0"/>
</linearGradient>
</defs>
</svg>
