<svg width="132" height="38" viewBox="0 0 132 38" fill="none" xmlns="http://www.w3.org/2000/svg">
<path d="M5.32816 0.820312H126.908C128.137 0.820312 129.309 1.27578 130.168 2.07666C131.026 2.87644 131.501 3.95336 131.501 5.0682V32.9289C131.501 34.0437 131.026 35.1206 130.168 35.9204C129.309 36.7213 128.137 37.1767 126.908 37.1767H5.32729C4.71946 37.1767 4.1183 37.0651 3.55843 36.8489C2.99859 36.6327 2.49208 36.3167 2.067 35.9204C1.642 35.5242 1.30689 35.0557 1.07898 34.5428C0.851113 34.0299 0.734375 33.4816 0.734375 32.9289V5.06901C0.734375 3.95396 1.2092 2.87683 2.06726 2.0769C2.9265 1.27587 4.09894 0.820312 5.32816 0.820312Z" fill="black" stroke="url(#paint0_linear_11880_523)"/>
<path d="M11.4053 15.6238C9.41046 19.0758 10.6786 24.3148 12.8842 27.4914C13.9849 29.079 15.0995 30.5052 16.6257 30.5052H16.7131C17.43 30.4767 17.9485 30.2568 18.4491 30.0442C19.0117 29.8047 19.5923 29.5554 20.5069 29.5554C21.3749 29.5554 21.9293 29.7949 22.4666 30.0262C23.0039 30.2576 23.5388 30.4905 24.3448 30.475C26.0645 30.4433 27.1211 28.9046 28.0512 27.5476C28.7489 26.5247 29.2959 25.4072 29.6753 24.2293L29.6819 24.2089C29.6971 24.1637 29.695 24.1145 29.676 24.0707C29.657 24.0269 29.6225 23.9917 29.579 23.9719L29.5651 23.9662C29.2622 23.8424 26.6058 22.6629 26.5781 19.4635C26.5528 16.8611 28.5705 15.4829 28.9755 15.2329L28.9943 15.2206C29.0155 15.2067 29.0337 15.1886 29.0477 15.1675C29.0618 15.1463 29.0714 15.1226 29.076 15.0976C29.0813 15.0723 29.0813 15.0462 29.0761 15.0208C29.0709 14.9955 29.0606 14.9714 29.0458 14.9502C27.6527 12.9139 25.5174 12.6101 24.6575 12.5734C24.5305 12.5606 24.403 12.5543 24.2753 12.5547C23.2652 12.5547 22.2976 12.9351 21.5202 13.2405C20.9846 13.4515 20.5207 13.6339 20.2015 13.6339C19.8422 13.6339 19.3759 13.449 18.837 13.2356C18.1151 12.9506 17.2969 12.6264 16.4314 12.6264H16.3701C14.3581 12.6557 12.4538 13.805 11.4053 15.6238Z" fill="white"/>
<path d="M24.6608 6.9689C23.4425 7.01858 21.9792 7.76713 21.1054 8.78854C20.3623 9.64623 19.6356 11.0782 19.8283 12.5207C19.8348 12.5638 19.8559 12.6033 19.8879 12.6329C19.92 12.6625 19.9611 12.6804 20.0047 12.6836C20.0863 12.6901 20.168 12.6934 20.2546 12.6934C21.4468 12.6934 22.7329 12.0352 23.6107 10.9764C24.535 9.85801 24.9988 8.42201 24.8617 7.13669C24.855 7.08885 24.8308 7.04518 24.7936 7.01417C24.7565 6.98316 24.7092 6.96702 24.6608 6.9689Z" fill="white"/>
<path d="M50.9115 21.7049H45.9198L44.9399 24.01H43.0234L47.5146 14.0508H49.3404L53.8471 24.01H51.9078L50.9115 21.7049ZM50.2983 20.2534L48.4202 15.9006L46.551 20.2534H50.2983Z" fill="white"/>
<path d="M61.1594 16.8087C61.7394 17.1247 62.2179 17.598 62.5394 18.1739C62.8721 18.762 63.0384 19.4407 63.0384 20.2102C63.0521 20.9225 62.8802 21.6261 62.5394 22.2522C62.2202 22.8306 61.7428 23.3066 61.1627 23.6247C60.552 23.9537 59.8667 24.1203 59.1727 24.1085C58.146 24.1085 57.3332 23.7669 56.7344 23.0838V26.7687H54.9453V16.4096H56.643V17.4058C56.9326 17.0475 57.3077 16.7674 57.7339 16.5912C58.1888 16.4069 58.676 16.3149 59.167 16.3208C59.8622 16.3098 60.5484 16.4778 61.1594 16.8087ZM60.5878 21.9304C61.0108 21.496 61.2226 20.9221 61.2231 20.2085C61.2237 19.495 61.0119 18.9213 60.5878 18.4875C60.1648 18.053 59.6254 17.8358 58.9694 17.8358C58.5652 17.83 58.1667 17.9306 57.8139 18.1274C57.4691 18.3233 57.1862 18.6117 56.9974 18.9599C56.7922 19.3449 56.6893 19.7759 56.6985 20.2118C56.6891 20.6477 56.792 21.0788 56.9974 21.4637C57.1859 21.8121 57.4689 22.1005 57.8139 22.2962C58.1665 22.4934 58.5652 22.594 58.9694 22.5878C59.6259 22.5856 60.1657 22.3665 60.5886 21.9304H60.5878Z" fill="white"/>
<path d="M70.9421 16.8087C71.5209 17.1251 71.9982 17.5984 72.3189 18.1738C72.651 18.7619 72.8173 19.4407 72.8178 20.2101C72.8315 20.9224 72.6596 21.626 72.3189 22.2521C71.9997 22.8306 71.5222 23.3066 70.9421 23.6246C70.3315 23.9537 69.6461 24.1203 68.9522 24.1084C67.926 24.1084 67.1132 23.7669 66.5139 23.0838V26.7687H64.7305V16.4096H66.4281V17.4057C66.7177 17.0475 67.0928 16.7674 67.5191 16.5912C67.974 16.4068 68.4612 16.3149 68.9522 16.3208C69.6465 16.3102 70.3319 16.4782 70.9421 16.8087ZM70.3705 21.9304C70.7935 21.496 71.0053 20.922 71.0058 20.2085C71.0064 19.495 70.7946 18.9213 70.3705 18.4874C69.9476 18.053 69.4081 17.8358 68.7521 17.8358C68.3479 17.83 67.9494 17.9306 67.5966 18.1274C67.2518 18.3233 66.9689 18.6117 66.7801 18.9598C66.5749 19.3448 66.472 19.7758 66.4812 20.2118C66.4718 20.6477 66.5747 21.0788 66.7801 21.4637C66.9686 21.8121 67.2516 22.1005 67.5966 22.2961C67.9492 22.4933 68.3479 22.5939 68.7521 22.5877C69.4086 22.5856 69.9484 22.3665 70.3714 21.9304H70.3705Z" fill="white"/>
<path d="M79.4854 23.8231C78.7679 23.6059 78.1999 23.3164 77.7812 22.9548L78.4231 21.518C78.8763 21.8642 79.3852 22.1311 79.928 22.3073C80.5033 22.5084 81.1083 22.6119 81.7179 22.6135C82.4594 22.6135 83.0133 22.4949 83.3797 22.2576C83.746 22.0203 83.929 21.7072 83.9284 21.3184C83.9319 21.1859 83.9062 21.0542 83.8532 20.9326C83.8001 20.811 83.721 20.7025 83.6214 20.6147C83.3958 20.4175 83.1312 20.2696 82.8448 20.1805C82.5307 20.0763 82.1028 19.9579 81.5612 19.8254C80.9345 19.6846 80.3176 19.5039 79.7141 19.2846C79.2459 19.1065 78.8293 18.8155 78.5015 18.4374C78.1634 18.0535 77.9946 17.5344 77.9952 16.8801C77.9902 16.346 78.1468 15.8229 78.4443 15.3789C78.7443 14.9288 79.1958 14.5706 79.799 14.3046C80.4022 14.0385 81.1417 13.9057 82.0176 13.9063C82.6237 13.9063 83.2273 13.9829 83.8141 14.1343C84.3559 14.2646 84.8718 14.4849 85.3403 14.7859L84.7556 16.2228C84.326 15.9707 83.8658 15.7747 83.3862 15.6396C82.9364 15.5106 82.471 15.4437 82.0029 15.4408C81.2702 15.4408 80.7258 15.5641 80.3698 15.8106C80.0138 16.0571 79.8355 16.3829 79.8349 16.788C79.8309 16.9197 79.8564 17.0506 79.9095 17.1712C79.9626 17.2918 80.0421 17.3991 80.142 17.4853C80.3695 17.6785 80.6339 17.8237 80.9193 17.9121C81.2329 18.0163 81.6608 18.135 82.203 18.268C82.8232 18.4026 83.4331 18.5809 84.028 18.8015C84.4969 18.9819 84.9153 19.2721 85.248 19.6478C85.5855 20.0279 85.7543 20.54 85.7543 21.184C85.7596 21.7158 85.603 22.2368 85.3052 22.6779C85.0057 23.1242 84.5515 23.4799 83.9423 23.7449C83.3331 24.0099 82.5917 24.1427 81.7179 24.1432C80.962 24.1473 80.2096 24.0394 79.4854 23.8231Z" fill="white"/>
<path d="M92.0012 23.5974C91.7761 23.7763 91.5165 23.9072 91.2385 23.9818C90.9298 24.0685 90.6104 24.1116 90.2897 24.1097C89.453 24.1097 88.8065 23.8925 88.3503 23.4581C87.8941 23.0237 87.6658 22.3881 87.6652 21.5513V17.8949H86.4102V16.4662H87.6652V14.7305H89.4486V16.4662H91.4901V17.8892H89.4486V21.5032C89.4486 21.873 89.5387 22.1551 89.7189 22.3495C89.8991 22.5439 90.1607 22.6411 90.5036 22.6411C90.8623 22.6548 91.2148 22.5452 91.5023 22.3308L92.0012 23.5974Z" fill="white"/>
<path d="M94.5567 23.6114C93.9537 23.2941 93.452 22.8144 93.1089 22.2267C92.7574 21.6141 92.5783 20.9181 92.5904 20.2124C92.5785 19.5089 92.7586 18.8154 93.1114 18.2062C93.4558 17.6208 93.9573 17.1429 94.5592 16.8264C95.2005 16.4891 95.9165 16.318 96.6414 16.3287C97.3712 16.3169 98.0922 16.488 98.7384 16.8264C99.3394 17.1429 99.8402 17.6201 100.185 18.2045C100.537 18.8138 100.717 19.5073 100.706 20.2107C100.717 20.9164 100.537 21.6121 100.185 22.2242C99.8416 22.8117 99.3402 23.2914 98.7376 23.6089C98.0914 23.9473 97.3703 24.1184 96.6406 24.1066C95.9154 24.1183 95.1988 23.948 94.5567 23.6114ZM98.2648 21.9326C98.6927 21.4982 98.9066 20.9242 98.9066 20.2107C98.9066 19.4972 98.6927 18.9235 98.2648 18.4896C97.8369 18.0552 97.295 17.838 96.639 17.838C95.983 17.838 95.4433 18.0552 95.0197 18.4896C94.5967 18.924 94.3852 19.4977 94.3852 20.2107C94.3852 20.9237 94.5967 21.4977 95.0197 21.9326C95.4427 22.367 95.9825 22.5842 96.639 22.5842C97.2955 22.5842 97.8374 22.367 98.2648 21.9326Z" fill="white"/>
<path d="M106.821 16.3242V18.0168C106.685 17.99 106.546 17.9758 106.407 17.9744C105.713 17.9744 105.171 18.1759 104.781 18.5788C104.392 18.9817 104.197 19.5628 104.197 20.3219V24.0068H102.414V16.4089H104.111V17.5216C104.625 16.7233 105.528 16.3242 106.821 16.3242Z" fill="white"/>
<path d="M115.392 20.7824H109.415C109.503 21.3151 109.796 21.7925 110.232 22.1125C110.674 22.4383 111.224 22.6012 111.88 22.6012C112.716 22.6012 113.405 22.3262 113.947 21.7761L114.903 22.8716C114.556 23.284 114.109 23.6022 113.605 23.7969C113.041 24.013 112.441 24.1191 111.836 24.1097C111 24.1097 110.263 23.9438 109.626 23.612C109.011 23.3011 108.499 22.8205 108.15 22.2273C107.798 21.6151 107.618 20.9195 107.629 20.2138C107.619 19.5147 107.793 18.8252 108.136 18.215C108.465 17.6316 108.952 17.152 109.54 16.8303C110.161 16.4932 110.859 16.3218 111.566 16.3326C112.26 16.3206 112.946 16.489 113.555 16.8213C114.134 17.1437 114.609 17.624 114.925 18.206C115.251 18.7979 115.415 19.4829 115.415 20.2611C115.42 20.3751 115.411 20.5519 115.392 20.7824ZM110.122 18.2574C109.722 18.6009 109.466 19.0802 109.401 19.6021H113.723C113.664 19.0853 113.415 18.6087 113.024 18.2647C112.634 17.9231 112.15 17.7524 111.569 17.7524C111.041 17.7376 110.526 17.9173 110.122 18.2574Z" fill="white"/>
<defs>
<linearGradient id="paint0_linear_11880_523" x1="2.90999e-06" y1="0.320304" x2="132" y2="37.3203" gradientUnits="userSpaceOnUse">
<stop stop-color="#E5332A"/>
<stop offset="1" stop-color="#E5332A" stop-opacity="0"/>
</linearGradient>
</defs>
</svg>
