<svg width="45" height="34" viewBox="0 0 45 34" fill="none" xmlns="http://www.w3.org/2000/svg">
<path d="M40.4166 1H4.58336C2.60704 1 1 2.59458 1 4.55558V29.4445C1 31.4054 2.60704 33 4.58336 33H40.4167C42.393 33 44 31.4054 44 29.4444V4.55558C44 2.59458 42.393 1 40.4166 1ZM4.58336 2.77775H40.4167C40.5487 2.77775 40.6651 2.8255 40.7889 2.8525C37.6866 5.66975 27.3999 15.0074 23.8001 18.2257C23.5184 18.4774 23.0644 18.7778 22.5001 18.7778C21.9358 18.7778 21.4818 18.4774 21.1992 18.2248C17.5997 15.0071 7.31235 5.66892 4.21055 2.85267C4.33468 2.82567 4.45125 2.77775 4.58336 2.77775ZM2.79164 29.4444V4.55558C2.79164 4.38142 2.84455 4.22342 2.89192 4.06425C5.26632 6.22058 12.444 12.7359 17.098 16.9353C12.4591 20.8892 5.27959 27.6433 2.88629 29.9078C2.84404 29.7566 2.79164 29.6088 2.79164 29.4444ZM40.4166 31.2222H4.58336C4.44025 31.2222 4.31302 31.1728 4.1794 31.1411C6.65248 28.8018 13.8777 22.0089 18.4351 18.1403C19.0292 18.6751 19.5719 19.1627 19.9997 19.5452C20.7381 20.2067 21.6024 20.5556 22.5 20.5556C23.3976 20.5556 24.2619 20.2066 24.9994 19.546C25.4274 19.1633 25.9705 18.6753 26.5649 18.1403C31.1226 22.0085 38.3468 28.8008 40.8206 31.1411C40.687 31.1728 40.5599 31.2222 40.4166 31.2222ZM42.2084 29.4444C42.2084 29.6087 42.156 29.7566 42.1138 29.9078C39.7196 27.6421 32.5409 20.8888 27.902 16.9354C32.5563 12.736 39.7328 6.22125 42.1081 4.06408C42.1554 4.22325 42.2084 4.38133 42.2084 4.5555V29.4444Z" fill="url(#paint0_linear)" stroke="url(#paint1_linear)" stroke-width="0.7"/>
<defs>
<linearGradient id="paint0_linear" x1="22.5" y1="1" x2="22.5" y2="33" gradientUnits="userSpaceOnUse">
<stop stop-color="#E6332A"/>
<stop offset="1" stop-color="#C00000"/>
</linearGradient>
<linearGradient id="paint1_linear" x1="22.5" y1="1" x2="22.5" y2="33" gradientUnits="userSpaceOnUse">
<stop stop-color="#E6332A"/>
<stop offset="1" stop-color="#C00000"/>
</linearGradient>
</defs>
</svg>
