<svg width="17" height="16" viewBox="0 0 17 16" fill="none" xmlns="http://www.w3.org/2000/svg">
<path fill-rule="evenodd" clip-rule="evenodd" d="M15.5187 7.75753C15.3906 7.75753 15.2625 7.70866 15.1648 7.61088L14.7678 7.21392V13.5778C14.7678 14.3713 14.1222 15.017 13.3286 15.017H10.0241C10.0201 15.0171 10.0161 15.0171 10.0121 15.0171H6.00727C6.00324 15.0171 5.99928 15.0171 5.99528 15.017H2.69074C1.89716 15.017 1.2515 14.3714 1.2515 13.5778V7.214L0.854591 7.61091C0.659096 7.80643 0.34214 7.80643 0.146645 7.61091C-0.0488815 7.41543 -0.0488815 7.09845 0.146645 6.90296L6.37254 0.677037C7.27525 -0.225679 8.74412 -0.225679 9.6468 0.677037L15.8727 6.90293C16.0682 7.09845 16.0682 7.4154 15.8727 7.61088C15.775 7.70866 15.6469 7.75753 15.5187 7.75753ZM6.50788 14.0159H9.51151V10.0737C9.51151 9.76314 9.25886 9.51049 8.94831 9.51049H7.07105C6.76051 9.51049 6.50788 9.76314 6.50788 10.0737V14.0159ZM10.5127 14.0158V10.0737C10.5127 9.21106 9.81092 8.50928 8.94831 8.50928H7.07105C6.20844 8.50928 5.50666 9.21106 5.50666 10.0737V14.0158H2.69074C2.4492 14.0158 2.25272 13.8193 2.25272 13.5778V6.21278L7.08048 1.38502C7.59287 0.872649 8.42652 0.872649 8.93885 1.38502L13.7666 6.21271V13.5778C13.7666 13.8193 13.5701 14.0158 13.3286 14.0158H10.5127Z" fill="#525252"/>
</svg>
