<svg width="12" height="16" viewBox="0 0 12 16" fill="none" xmlns="http://www.w3.org/2000/svg">
<path d="M5.83038 10.4468H6.16976C7.80725 10.4468 9.1393 9.11472 9.1393 7.47723V3.51784C9.1393 1.86621 7.80725 0.52002 6.16976 0.52002H5.83038C4.19572 0.52002 2.86367 1.86056 2.86084 3.51219V7.47723C2.86084 9.11472 4.19289 10.4468 5.83038 10.4468ZM3.70928 5.07332V4.11175V5.07332ZM3.70928 6.88332V5.92176V6.88332ZM8.29086 5.92176V6.88332V5.92176ZM8.29086 4.11175V5.07332V4.11175ZM8.27389 7.46875C8.27389 8.18144 7.92603 8.85736 7.33212 9.25047C6.9984 9.47107 6.59963 9.59833 6.16976 9.59833H5.83038C5.37788 9.59833 4.95932 9.45693 4.61711 9.21653C4.05148 8.8206 3.72625 8.16164 3.72625 7.47158V3.51219C3.72625 2.92959 3.9525 2.36396 4.37389 1.95954C4.75286 1.59471 5.26475 1.36846 5.83038 1.36846H6.16976C6.73538 1.36846 7.24728 1.59471 7.62908 1.95954C8.04764 2.36396 8.27672 2.92959 8.27672 3.51219L8.27389 7.46875Z" fill="#E6332A" stroke="#E6332A" stroke-width="0.4"/>
<path d="M10.9493 7.30752C10.9493 7.07279 10.7598 6.8833 10.525 6.8833C10.2903 6.8833 10.1008 7.07279 10.1008 7.30752C10.1008 9.57003 8.26253 11.4083 6.00002 11.4083C3.73751 11.4083 1.89922 9.57003 1.89922 7.30752C1.89922 7.07279 1.70974 6.8833 1.475 6.8833C1.24027 6.8833 1.05078 7.07279 1.05078 7.30752C1.05078 9.89244 3.04462 12.022 5.5758 12.2398V14.1516H3.28501C3.05027 14.1516 2.86079 14.3411 2.86079 14.5758C2.86079 14.8106 3.05027 15 3.28501 15H8.71503C8.94976 15 9.13925 14.8106 9.13925 14.5758C9.13925 14.3411 8.94976 14.1516 8.71503 14.1516H6.42424V12.2398C8.95542 12.022 10.9493 9.89244 10.9493 7.30752Z" fill="#E6332A" stroke="#E6332A" stroke-width="0.4"/>
</svg>
