<svg width="46" height="46" viewBox="0 0 46 46" fill="none" xmlns="http://www.w3.org/2000/svg">
<path d="M20.8001 26.2992C20.8001 26.7043 21.1284 27.0326 21.5334 27.0326C21.9384 27.0326 22.2667 26.7043 22.2667 26.2992C22.2667 23.8734 20.0227 21.8685 17.1334 21.5737V20.7993C17.1334 20.3942 16.8051 20.0659 16.4001 20.0659C15.995 20.0659 15.6667 20.3942 15.6667 20.7993V21.5737C12.7774 21.867 10.5334 23.8734 10.5334 26.2992C10.5334 28.7251 12.7774 30.73 15.6667 31.0248V37.616C13.5892 37.3535 12.0001 35.9976 12.0001 34.3659C12.0001 33.9609 11.6717 33.6326 11.2667 33.6326C10.8617 33.6326 10.5334 33.9609 10.5334 34.3659C10.5334 36.7918 12.7774 38.7967 15.6667 39.0915V39.8659C15.6667 40.2709 15.995 40.5992 16.4001 40.5992C16.8051 40.5992 17.1334 40.2709 17.1334 39.8659V39.0915C20.0227 38.7982 22.2667 36.7918 22.2667 34.3659C22.2667 31.94 20.0227 29.9351 17.1334 29.6403V23.0491C19.2109 23.3117 20.8001 24.6676 20.8001 26.2992ZM12.0001 26.2992C12.0001 24.6676 13.5892 23.3117 15.6667 23.0491V29.5494C13.5892 29.2868 12.0001 27.9309 12.0001 26.2992ZM20.8001 34.3659C20.8001 35.9976 19.2109 37.3535 17.1334 37.616V31.1158C19.2109 31.3783 20.8001 32.7342 20.8001 34.3659Z" fill="url(#paint0_linear)" stroke="url(#paint1_linear)" stroke-width="0.5"/>
<path d="M3.64005 23.1264C3.27271 22.9559 2.83671 23.1155 2.66619 23.4828C1.56246 25.8582 0.993695 28.4469 1.00005 31.0662C1.00005 40.3114 6.18105 44.9996 16.4001 44.9996C18.4649 45.032 20.5252 44.7946 22.5285 44.2934C22.92 44.1893 23.1529 43.7876 23.0488 43.3961C22.9447 43.0047 22.543 42.7717 22.1516 42.8758C20.2705 43.3404 18.3375 43.5612 16.4001 43.5329C7.02439 43.5329 2.46672 39.4548 2.46672 31.0662C2.45353 28.6592 2.97633 26.2794 3.99719 24.0996C4.16708 23.7322 4.00724 23.2967 3.64005 23.1264Z" fill="url(#paint2_linear)" stroke="url(#paint3_linear)" stroke-width="0.5"/>
<path d="M42.8001 19.3325H26.6667C25.4517 19.3325 24.4667 20.3175 24.4667 21.5325V42.7992C24.4667 44.0142 25.4517 44.9992 26.6667 44.9992H42.8001C44.0151 44.9992 45.0001 44.0142 45.0001 42.7992V21.5325C45.0001 20.3175 44.0151 19.3325 42.8001 19.3325ZM43.5334 42.7992C43.5334 43.2042 43.2051 43.5325 42.8001 43.5325H26.6667C26.2617 43.5325 25.9334 43.2042 25.9334 42.7992V21.5325C25.9334 21.1275 26.2617 20.7992 26.6667 20.7992H42.8001C43.2051 20.7992 43.5334 21.1275 43.5334 21.5325V42.7992Z" fill="url(#paint4_linear)" stroke="url(#paint5_linear)" stroke-width="0.5"/>
<path d="M29.6 28.8662H39.8667C40.6767 28.8662 41.3333 28.2095 41.3333 27.3995V24.4662C41.3333 23.6562 40.6767 22.9995 39.8667 22.9995H29.6C28.79 22.9995 28.1334 23.6562 28.1334 24.4662V27.3995C28.1334 28.2095 28.79 28.8662 29.6 28.8662ZM29.6 24.4662H39.8667V27.3995H29.6V24.4662Z" fill="url(#paint6_linear)" stroke="url(#paint7_linear)" stroke-width="0.5"/>
<path d="M31.0667 31.0659H28.8667C28.4617 31.0659 28.1334 31.3942 28.1334 31.7992C28.1334 32.2043 28.4617 32.5326 28.8667 32.5326H31.0667C31.4717 32.5326 31.8 32.2043 31.8 31.7992C31.8 31.3942 31.4717 31.0659 31.0667 31.0659Z" fill="url(#paint8_linear)" stroke="url(#paint9_linear)" stroke-width="0.5"/>
<path d="M31.0667 33.9995H28.8667C28.4617 33.9995 28.1334 34.3278 28.1334 34.7328C28.1334 35.1378 28.4617 35.4662 28.8667 35.4662H31.0667C31.4717 35.4662 31.8 35.1378 31.8 34.7328C31.8 34.3278 31.4717 33.9995 31.0667 33.9995Z" fill="url(#paint10_linear)" stroke="url(#paint11_linear)" stroke-width="0.5"/>
<path d="M31.0667 36.9326H28.8667C28.4617 36.9326 28.1334 37.2609 28.1334 37.6659C28.1334 38.071 28.4617 38.3993 28.8667 38.3993H31.0667C31.4717 38.3993 31.8 38.071 31.8 37.6659C31.8 37.2609 31.4717 36.9326 31.0667 36.9326Z" fill="url(#paint12_linear)" stroke="url(#paint13_linear)" stroke-width="0.5"/>
<path d="M31.0667 39.8662H28.8667C28.4617 39.8662 28.1334 40.1945 28.1334 40.5995C28.1334 41.0045 28.4617 41.3329 28.8667 41.3329H31.0667C31.4717 41.3329 31.8 41.0045 31.8 40.5995C31.8 40.1945 31.4717 39.8662 31.0667 39.8662Z" fill="url(#paint14_linear)" stroke="url(#paint15_linear)" stroke-width="0.5"/>
<path d="M36.2001 31.0659H34.0001C33.595 31.0659 33.2667 31.3942 33.2667 31.7992C33.2667 32.2043 33.595 32.5326 34.0001 32.5326H36.2001C36.6051 32.5326 36.9334 32.2043 36.9334 31.7992C36.9334 31.3942 36.6051 31.0659 36.2001 31.0659Z" fill="url(#paint16_linear)" stroke="url(#paint17_linear)" stroke-width="0.5"/>
<path d="M36.2001 33.9995H34.0001C33.595 33.9995 33.2667 34.3278 33.2667 34.7328C33.2667 35.1378 33.595 35.4662 34.0001 35.4662H36.2001C36.6051 35.4662 36.9334 35.1378 36.9334 34.7328C36.9334 34.3278 36.6051 33.9995 36.2001 33.9995Z" fill="url(#paint18_linear)" stroke="url(#paint19_linear)" stroke-width="0.5"/>
<path d="M36.2001 36.9326H34.0001C33.595 36.9326 33.2667 37.2609 33.2667 37.6659C33.2667 38.071 33.595 38.3993 34.0001 38.3993H36.2001C36.6051 38.3993 36.9334 38.071 36.9334 37.6659C36.9334 37.2609 36.6051 36.9326 36.2001 36.9326Z" fill="url(#paint20_linear)" stroke="url(#paint21_linear)" stroke-width="0.5"/>
<path d="M36.2001 39.8662H34.0001C33.595 39.8662 33.2667 40.1945 33.2667 40.5995C33.2667 41.0045 33.595 41.3329 34.0001 41.3329H36.2001C36.6051 41.3329 36.9334 41.0045 36.9334 40.5995C36.9334 40.1945 36.6051 39.8662 36.2001 39.8662Z" fill="url(#paint22_linear)" stroke="url(#paint23_linear)" stroke-width="0.5"/>
<path d="M41.3334 31.0659H39.1334C38.7284 31.0659 38.4001 31.3942 38.4001 31.7992C38.4001 32.2043 38.7284 32.5326 39.1334 32.5326H41.3334C41.7384 32.5326 42.0667 32.2043 42.0667 31.7992C42.0667 31.3942 41.7384 31.0659 41.3334 31.0659Z" fill="url(#paint24_linear)" stroke="url(#paint25_linear)" stroke-width="0.5"/>
<path d="M41.3334 33.9995H39.1334C38.7284 33.9995 38.4001 34.3278 38.4001 34.7328C38.4001 35.1378 38.7284 35.4662 39.1334 35.4662H41.3334C41.7384 35.4662 42.0667 35.1378 42.0667 34.7328C42.0667 34.3278 41.7384 33.9995 41.3334 33.9995Z" fill="url(#paint26_linear)" stroke="url(#paint27_linear)" stroke-width="0.5"/>
<path d="M41.3334 36.9326H39.1334C38.7284 36.9326 38.4001 37.2609 38.4001 37.6659C38.4001 38.071 38.7284 38.3993 39.1334 38.3993H41.3334C41.7384 38.3993 42.0667 38.071 42.0667 37.6659C42.0667 37.2609 41.7384 36.9326 41.3334 36.9326Z" fill="url(#paint28_linear)" stroke="url(#paint29_linear)" stroke-width="0.5"/>
<path d="M41.3334 39.8662H39.1334C38.7284 39.8662 38.4001 40.1945 38.4001 40.5995C38.4001 41.0045 38.7284 41.3329 39.1334 41.3329H41.3334C41.7384 41.3329 42.0667 41.0045 42.0667 40.5995C42.0667 40.1945 41.7384 39.8662 41.3334 39.8662Z" fill="url(#paint30_linear)" stroke="url(#paint31_linear)" stroke-width="0.5"/>
<path d="M5.6384 1.92557C3.70754 3.69437 7.09994 9.15037 9.099 11.9994H8.70007C8.01885 11.9969 7.36488 12.2667 6.8836 12.7488C6.40397 13.2321 6.13438 13.8851 6.1334 14.566C6.13656 15.4799 6.62684 16.3226 7.41967 16.777C6.56367 17.6824 5.75729 18.6335 5.00407 19.626C4.76107 19.95 4.82673 20.4097 5.15074 20.6527C5.47474 20.8957 5.9344 20.83 6.1774 20.506C7.08322 19.321 8.06294 18.1943 9.11074 17.1327H24.1001C25.0171 17.1327 25.8644 16.6435 26.3229 15.8494C26.7814 15.0552 26.7814 14.0768 26.3229 13.2827C25.8644 12.4886 25.0171 11.9994 24.1001 11.9994H23.7011C25.6995 9.15037 29.0919 3.69511 27.1625 1.92557C26.2751 1.11304 25.2411 1.70557 24.3296 2.22404C23.5007 2.79171 22.5355 3.12836 21.5334 3.19937C20.7379 3.19769 19.9795 2.86252 19.4427 2.27537C18.6402 1.4595 17.5437 1 16.3993 1C15.2549 1 14.1585 1.4595 13.356 2.27537C12.8183 2.86346 12.0584 3.19872 11.2616 3.19937C10.26 3.1291 9.29536 2.79237 8.4676 2.22404C7.5568 1.70411 6.52354 1.11377 5.6384 1.92557ZM24.8796 13.7872C25.1951 14.102 25.2896 14.576 25.1188 14.9876C24.948 15.3992 24.5457 15.6671 24.1001 15.666H8.70007C8.09256 15.666 7.60007 15.1736 7.60007 14.566C7.60007 13.9585 8.09256 13.466 8.70007 13.466H24.1001C24.3921 13.4661 24.6723 13.5816 24.8796 13.7872ZM11.2616 4.66604C12.4064 4.66588 13.5032 4.20586 14.3057 3.38931C14.8413 2.80094 15.6 2.46559 16.3957 2.46559C17.1913 2.46559 17.9501 2.80094 18.4857 3.38931C19.2892 4.20649 20.3874 4.66653 21.5334 4.66604C22.7925 4.59989 24.0106 4.19613 25.06 3.49711C25.3948 3.26079 25.7736 3.09397 26.1739 3.00651C26.9263 3.69584 24.9375 7.85311 21.8971 11.9994H20.0667V8.33271C20.0667 7.9277 19.7384 7.59937 19.3334 7.59937C18.9284 7.59937 18.6001 7.9277 18.6001 8.33271V11.9994H14.2001V8.33271C14.2001 7.9277 13.8717 7.59937 13.4667 7.59937C13.0617 7.59937 12.7334 7.9277 12.7334 8.33271V11.9994H10.9059C7.86554 7.85311 5.87674 3.69584 6.6394 2.99551C7.03147 3.10023 7.40326 3.26976 7.7394 3.49711C8.78717 4.19603 10.0039 4.59982 11.2616 4.66604Z" fill="url(#paint32_linear)" stroke="url(#paint33_linear)" stroke-width="0.5"/>
<defs>
<linearGradient id="paint0_linear" x1="16.4001" y1="20.0659" x2="16.4001" y2="40.5992" gradientUnits="userSpaceOnUse">
<stop stop-color="#E6332A"/>
<stop offset="1" stop-color="#C00000"/>
</linearGradient>
<linearGradient id="paint1_linear" x1="16.4001" y1="20.0659" x2="16.4001" y2="40.5992" gradientUnits="userSpaceOnUse">
<stop stop-color="#E6332A"/>
<stop offset="1" stop-color="#C00000"/>
</linearGradient>
<linearGradient id="paint2_linear" x1="12.0368" y1="23.0581" x2="12.0368" y2="45.0025" gradientUnits="userSpaceOnUse">
<stop stop-color="#E6332A"/>
<stop offset="1" stop-color="#C00000"/>
</linearGradient>
<linearGradient id="paint3_linear" x1="12.0368" y1="23.0581" x2="12.0368" y2="45.0025" gradientUnits="userSpaceOnUse">
<stop stop-color="#E6332A"/>
<stop offset="1" stop-color="#C00000"/>
</linearGradient>
<linearGradient id="paint4_linear" x1="34.7334" y1="19.3325" x2="34.7334" y2="44.9992" gradientUnits="userSpaceOnUse">
<stop stop-color="#E6332A"/>
<stop offset="1" stop-color="#C00000"/>
</linearGradient>
<linearGradient id="paint5_linear" x1="34.7334" y1="19.3325" x2="34.7334" y2="44.9992" gradientUnits="userSpaceOnUse">
<stop stop-color="#E6332A"/>
<stop offset="1" stop-color="#C00000"/>
</linearGradient>
<linearGradient id="paint6_linear" x1="34.7334" y1="22.9995" x2="34.7334" y2="28.8662" gradientUnits="userSpaceOnUse">
<stop stop-color="#E6332A"/>
<stop offset="1" stop-color="#C00000"/>
</linearGradient>
<linearGradient id="paint7_linear" x1="34.7334" y1="22.9995" x2="34.7334" y2="28.8662" gradientUnits="userSpaceOnUse">
<stop stop-color="#E6332A"/>
<stop offset="1" stop-color="#C00000"/>
</linearGradient>
<linearGradient id="paint8_linear" x1="29.9667" y1="31.0659" x2="29.9667" y2="32.5326" gradientUnits="userSpaceOnUse">
<stop stop-color="#E6332A"/>
<stop offset="1" stop-color="#C00000"/>
</linearGradient>
<linearGradient id="paint9_linear" x1="29.9667" y1="31.0659" x2="29.9667" y2="32.5326" gradientUnits="userSpaceOnUse">
<stop stop-color="#E6332A"/>
<stop offset="1" stop-color="#C00000"/>
</linearGradient>
<linearGradient id="paint10_linear" x1="29.9667" y1="33.9995" x2="29.9667" y2="35.4662" gradientUnits="userSpaceOnUse">
<stop stop-color="#E6332A"/>
<stop offset="1" stop-color="#C00000"/>
</linearGradient>
<linearGradient id="paint11_linear" x1="29.9667" y1="33.9995" x2="29.9667" y2="35.4662" gradientUnits="userSpaceOnUse">
<stop stop-color="#E6332A"/>
<stop offset="1" stop-color="#C00000"/>
</linearGradient>
<linearGradient id="paint12_linear" x1="29.9667" y1="36.9326" x2="29.9667" y2="38.3993" gradientUnits="userSpaceOnUse">
<stop stop-color="#E6332A"/>
<stop offset="1" stop-color="#C00000"/>
</linearGradient>
<linearGradient id="paint13_linear" x1="29.9667" y1="36.9326" x2="29.9667" y2="38.3993" gradientUnits="userSpaceOnUse">
<stop stop-color="#E6332A"/>
<stop offset="1" stop-color="#C00000"/>
</linearGradient>
<linearGradient id="paint14_linear" x1="29.9667" y1="39.8662" x2="29.9667" y2="41.3329" gradientUnits="userSpaceOnUse">
<stop stop-color="#E6332A"/>
<stop offset="1" stop-color="#C00000"/>
</linearGradient>
<linearGradient id="paint15_linear" x1="29.9667" y1="39.8662" x2="29.9667" y2="41.3329" gradientUnits="userSpaceOnUse">
<stop stop-color="#E6332A"/>
<stop offset="1" stop-color="#C00000"/>
</linearGradient>
<linearGradient id="paint16_linear" x1="35.1001" y1="31.0659" x2="35.1001" y2="32.5326" gradientUnits="userSpaceOnUse">
<stop stop-color="#E6332A"/>
<stop offset="1" stop-color="#C00000"/>
</linearGradient>
<linearGradient id="paint17_linear" x1="35.1001" y1="31.0659" x2="35.1001" y2="32.5326" gradientUnits="userSpaceOnUse">
<stop stop-color="#E6332A"/>
<stop offset="1" stop-color="#C00000"/>
</linearGradient>
<linearGradient id="paint18_linear" x1="35.1001" y1="33.9995" x2="35.1001" y2="35.4662" gradientUnits="userSpaceOnUse">
<stop stop-color="#E6332A"/>
<stop offset="1" stop-color="#C00000"/>
</linearGradient>
<linearGradient id="paint19_linear" x1="35.1001" y1="33.9995" x2="35.1001" y2="35.4662" gradientUnits="userSpaceOnUse">
<stop stop-color="#E6332A"/>
<stop offset="1" stop-color="#C00000"/>
</linearGradient>
<linearGradient id="paint20_linear" x1="35.1001" y1="36.9326" x2="35.1001" y2="38.3993" gradientUnits="userSpaceOnUse">
<stop stop-color="#E6332A"/>
<stop offset="1" stop-color="#C00000"/>
</linearGradient>
<linearGradient id="paint21_linear" x1="35.1001" y1="36.9326" x2="35.1001" y2="38.3993" gradientUnits="userSpaceOnUse">
<stop stop-color="#E6332A"/>
<stop offset="1" stop-color="#C00000"/>
</linearGradient>
<linearGradient id="paint22_linear" x1="35.1001" y1="39.8662" x2="35.1001" y2="41.3329" gradientUnits="userSpaceOnUse">
<stop stop-color="#E6332A"/>
<stop offset="1" stop-color="#C00000"/>
</linearGradient>
<linearGradient id="paint23_linear" x1="35.1001" y1="39.8662" x2="35.1001" y2="41.3329" gradientUnits="userSpaceOnUse">
<stop stop-color="#E6332A"/>
<stop offset="1" stop-color="#C00000"/>
</linearGradient>
<linearGradient id="paint24_linear" x1="40.2334" y1="31.0659" x2="40.2334" y2="32.5326" gradientUnits="userSpaceOnUse">
<stop stop-color="#E6332A"/>
<stop offset="1" stop-color="#C00000"/>
</linearGradient>
<linearGradient id="paint25_linear" x1="40.2334" y1="31.0659" x2="40.2334" y2="32.5326" gradientUnits="userSpaceOnUse">
<stop stop-color="#E6332A"/>
<stop offset="1" stop-color="#C00000"/>
</linearGradient>
<linearGradient id="paint26_linear" x1="40.2334" y1="33.9995" x2="40.2334" y2="35.4662" gradientUnits="userSpaceOnUse">
<stop stop-color="#E6332A"/>
<stop offset="1" stop-color="#C00000"/>
</linearGradient>
<linearGradient id="paint27_linear" x1="40.2334" y1="33.9995" x2="40.2334" y2="35.4662" gradientUnits="userSpaceOnUse">
<stop stop-color="#E6332A"/>
<stop offset="1" stop-color="#C00000"/>
</linearGradient>
<linearGradient id="paint28_linear" x1="40.2334" y1="36.9326" x2="40.2334" y2="38.3993" gradientUnits="userSpaceOnUse">
<stop stop-color="#E6332A"/>
<stop offset="1" stop-color="#C00000"/>
</linearGradient>
<linearGradient id="paint29_linear" x1="40.2334" y1="36.9326" x2="40.2334" y2="38.3993" gradientUnits="userSpaceOnUse">
<stop stop-color="#E6332A"/>
<stop offset="1" stop-color="#C00000"/>
</linearGradient>
<linearGradient id="paint30_linear" x1="40.2334" y1="39.8662" x2="40.2334" y2="41.3329" gradientUnits="userSpaceOnUse">
<stop stop-color="#E6332A"/>
<stop offset="1" stop-color="#C00000"/>
</linearGradient>
<linearGradient id="paint31_linear" x1="40.2334" y1="39.8662" x2="40.2334" y2="41.3329" gradientUnits="userSpaceOnUse">
<stop stop-color="#E6332A"/>
<stop offset="1" stop-color="#C00000"/>
</linearGradient>
<linearGradient id="paint32_linear" x1="16.2967" y1="1" x2="16.2967" y2="20.7994" gradientUnits="userSpaceOnUse">
<stop stop-color="#E6332A"/>
<stop offset="1" stop-color="#C00000"/>
</linearGradient>
<linearGradient id="paint33_linear" x1="16.2967" y1="1" x2="16.2967" y2="20.7994" gradientUnits="userSpaceOnUse">
<stop stop-color="#E6332A"/>
<stop offset="1" stop-color="#C00000"/>
</linearGradient>
</defs>
</svg>
