<svg width="24" height="24" viewBox="0 0 24 24" fill="none" xmlns="http://www.w3.org/2000/svg">
<path d="M13.3581 4.63559C16.769 4.63938 19.5331 7.40357 19.537 10.8145C19.537 11.0152 19.6997 11.1779 19.9004 11.1779C20.1012 11.1779 20.2639 11.0152 20.2639 10.8145C20.2597 7.00225 17.1703 3.91287 13.3581 3.90869C13.1573 3.90869 12.9946 4.0714 12.9946 4.27214C12.9946 4.47288 13.1573 4.63559 13.3581 4.63559Z" fill="white" stroke="white" stroke-width="0.5"/>
<path d="M22.2378 17.8253L17.8231 14.8812C17.2629 14.5106 16.5119 14.6326 16.0977 15.1615L14.8118 16.8149C14.6465 17.0328 14.3461 17.096 14.1071 16.9632L13.8624 16.8283C13.0515 16.3863 12.0426 15.8361 10.0097 13.8025C7.97688 11.7689 7.42551 10.7592 6.98352 9.94978L6.84939 9.70516C6.71475 9.46613 6.77677 9.16444 6.99476 8.99786L8.64705 7.7123C9.17571 7.29808 9.29783 6.54733 8.92765 5.98693L5.98359 1.57229C5.60421 1.00162 4.84307 0.83031 4.25575 1.18337L2.4097 2.29229C1.82967 2.63329 1.40412 3.18556 1.22228 3.83336C0.557529 6.25548 1.05762 10.4357 7.21544 16.5942C12.1139 21.4923 15.7605 22.8095 18.2669 22.8095C18.8438 22.8119 19.4184 22.7369 19.9752 22.5863C20.6232 22.4047 21.1755 21.9791 21.5163 21.3989L22.6263 19.554C22.9799 18.9665 22.8087 18.2049 22.2378 17.8253ZM22 19.181L20.8926 21.0271C20.6479 21.4458 20.2506 21.7537 19.784 21.8863C17.548 22.5002 13.6415 21.9917 7.72971 16.08C1.81795 10.1682 1.30952 6.26204 1.92342 4.02567C2.05614 3.55851 2.36443 3.16073 2.78372 2.91564L4.62976 1.80817C4.8846 1.65483 5.21495 1.72916 5.37957 1.9768L6.97883 4.37783L8.32112 6.39105C8.48187 6.63413 8.42905 6.95993 8.19973 7.1398L6.54706 8.42536C6.04412 8.80994 5.90049 9.50578 6.21015 10.0581L6.34138 10.2965C6.8059 11.1484 7.38343 12.2083 9.49189 14.3164C11.6003 16.4245 12.6599 17.0021 13.5114 17.4665L13.7502 17.5981C14.3024 17.9077 14.9983 17.7641 15.3829 17.2612L16.6685 15.6085C16.8484 15.3793 17.174 15.3266 17.4172 15.4871L21.8315 18.4312C22.0793 18.5957 22.1536 18.9262 22 19.181Z" fill="white" stroke="white" stroke-width="0.5"/>
<path d="M13.3581 6.81638C15.5651 6.81898 17.3536 8.60747 17.3562 10.8145C17.3562 11.0152 17.5189 11.1779 17.7196 11.1779C17.9204 11.1779 18.0831 11.0152 18.0831 10.8145C18.0801 8.20616 15.9664 6.09246 13.3581 6.08948C13.1573 6.08948 12.9946 6.25218 12.9946 6.45293C12.9946 6.65367 13.1573 6.81638 13.3581 6.81638Z" fill="white" stroke="white" stroke-width="0.5"/>
<path d="M13.3581 8.99716C14.3612 8.99836 15.1742 9.81129 15.1754 10.8145C15.1754 11.0152 15.3382 11.1779 15.5389 11.1779C15.7396 11.1779 15.9023 11.0152 15.9023 10.8145C15.9007 9.41002 14.7626 8.27184 13.3581 8.27026C13.1573 8.27026 12.9946 8.43297 12.9946 8.63371C12.9946 8.83446 13.1573 8.99716 13.3581 8.99716Z" fill="white" stroke="white" stroke-width="0.5"/>
</svg>
