<svg width="30" height="30" viewBox="0 0 30 30" fill="none" xmlns="http://www.w3.org/2000/svg">
<path d="M13.9076 13.908L13.9079 2.43201C13.9078 1.68536 14.5112 1.08188 15.2579 1.08205C16.0044 1.08204 16.6078 1.68551 16.6078 2.43199L16.6077 13.9082L28.0837 13.9079C28.8304 13.908 29.4337 14.5113 29.4337 15.2578C29.4338 16.0045 28.8303 16.6079 28.0837 16.6078L16.6077 16.6081L16.6074 28.0841C16.6076 28.8307 16.0041 29.4342 15.2574 29.434C14.8852 29.4342 14.5471 29.2832 14.3027 29.0388C14.0584 28.7944 13.9075 28.4565 13.9075 28.0841L13.9078 16.6081L2.43161 16.6082C2.05924 16.6082 1.72132 16.4574 1.47692 16.213C1.23253 15.9686 1.08166 15.6306 1.08167 15.2583C1.0815 14.5116 1.68498 13.9081 2.43163 13.9083L13.9076 13.908Z" fill="#E6332A" fill-opacity="0.5"/>
</svg>
