<svg width="140" height="140" viewBox="0 0 140 140" fill="none" xmlns="http://www.w3.org/2000/svg">
<rect width="140" height="140" rx="8" fill="white"/>
<path fill-rule="evenodd" clip-rule="evenodd" d="M23.3557 38.2336C26.3137 38.2336 29.2052 37.3587 31.6647 35.7197C34.1241 34.0806 36.041 31.7509 37.173 29.0252C38.305 26.2995 38.6011 23.3002 38.0241 20.4066C37.447 17.5131 36.0226 14.8551 33.931 12.769C31.8394 10.6828 29.1746 9.2621 26.2735 8.68653C23.3723 8.11097 20.3652 8.40638 17.6324 9.53537C14.8996 10.6644 12.5638 12.5763 10.9204 15.0294C9.27711 17.4825 8.39997 20.3665 8.39997 23.3168C8.38766 25.2791 8.76611 27.2244 9.51334 29.0397C10.2606 30.855 11.3618 32.5043 12.753 33.8919C14.1442 35.2795 15.7978 36.3778 17.6179 37.1231C19.438 37.8684 21.3883 38.2459 23.3557 38.2336ZM23.3557 12.6619C25.4685 12.6619 27.5339 13.2868 29.2907 14.4576C31.0475 15.6283 32.4167 17.2924 33.2252 19.2393C34.0337 21.1863 34.2453 23.3286 33.8332 25.3955C33.4209 27.4623 32.4035 29.3608 30.9095 30.8509C29.4155 32.341 27.5121 33.3558 25.4398 33.767C23.3676 34.178 21.2196 33.9671 19.2676 33.1606C17.3156 32.3542 15.6472 30.9885 14.4734 29.2363C13.2995 27.4841 12.6731 25.4241 12.6731 23.3168C12.6592 21.9137 12.9261 20.522 13.4581 19.2231C13.9901 17.9242 14.7764 16.7441 15.7712 15.7519C16.7659 14.7598 17.949 13.9755 19.2513 13.4449C20.5537 12.9143 21.949 12.6481 23.3557 12.6619ZM43.2287 21.8286C43.6415 21.417 44.2012 21.1858 44.7849 21.1858H46.8573V17.0517H44.7849C44.2012 17.0517 43.6415 16.8204 43.2287 16.4088C42.816 15.9972 42.5842 15.4389 42.5842 14.8568C42.5842 14.2747 42.816 13.7164 43.2287 13.3048C43.6415 12.8931 44.2012 12.6619 44.7849 12.6619H46.8573V10.5948C46.8573 10.0127 47.0891 9.45441 47.5016 9.04278C47.9146 8.63115 48.4743 8.3999 49.0581 8.3999C49.6415 8.3999 50.2011 8.63115 50.6141 9.04278C51.0266 9.45441 51.2585 10.0127 51.2585 10.5948V16.9238H55.4032V14.8568C55.3983 14.5671 55.4515 14.2793 55.5603 14.0106C55.6686 13.7419 55.8305 13.4978 56.0363 13.2929C56.2416 13.088 56.4862 12.9266 56.7555 12.8182C57.0252 12.7097 57.3137 12.6566 57.6041 12.6619H63.9497V10.5948C63.9497 10.0127 64.1816 9.45441 64.5941 9.04278C65.0066 8.63115 65.5668 8.3999 66.1501 8.3999C66.7339 8.3999 67.2936 8.63115 67.7061 9.04278C68.1191 9.45441 68.3509 10.0127 68.3509 10.5948V12.6619H70.4233C70.7137 12.6566 71.0022 12.7097 71.2715 12.8182C71.5412 12.9266 71.7858 13.088 71.9911 13.2929C72.1964 13.4978 72.3583 13.7419 72.4671 14.0106C72.5759 14.2793 72.6291 14.5671 72.6237 14.8568V16.9238H78.9693C79.5531 16.9238 80.1128 17.1551 80.5253 17.5667C80.9383 17.9783 81.1701 18.5366 81.1701 19.1187C81.1701 19.7009 80.9383 20.2592 80.5253 20.6708C80.1128 21.0824 79.5531 21.3136 78.9693 21.3136H76.8969V27.6426C76.9023 27.9324 76.8491 28.2202 76.7404 28.4888C76.6316 28.7575 76.4696 29.0016 76.2644 29.2065C76.0586 29.4114 75.8139 29.5728 75.5447 29.6813C75.2754 29.7897 74.987 29.8429 74.6965 29.8376H61.8773C61.2935 29.8376 60.7338 29.6063 60.3208 29.1947C59.9083 28.7831 59.6765 28.2248 59.6765 27.6426C59.6765 27.0605 59.9083 26.5022 60.3208 26.0906C60.7338 25.679 61.2935 25.4477 61.8773 25.4477H68.2225V21.3136H66.1501C65.8596 21.3189 65.5712 21.2658 65.3019 21.1573C65.0322 21.0489 64.7875 20.8875 64.5823 20.6826C64.377 20.4777 64.215 20.2336 64.1063 19.9649C63.9975 19.6962 63.9443 19.4084 63.9497 19.1187V17.0517H59.8045V23.3807C59.8045 23.9628 59.5726 24.5211 59.1601 24.9327C58.7476 25.3443 58.1879 25.5756 57.6041 25.5756C57.0203 25.5756 56.4606 25.3443 56.0481 24.9327C55.6351 24.5211 55.4032 23.9628 55.4032 23.3807V21.3136H51.2585V23.3807C51.2639 23.6704 51.2107 23.9582 51.102 24.2269C50.9932 24.4956 50.8312 24.7397 50.626 24.9445C50.4202 25.1494 50.1755 25.3109 49.9063 25.4193C49.637 25.5278 49.3486 25.5809 49.0581 25.5756H44.7849C44.2012 25.5756 43.6415 25.3443 43.2287 24.9327C42.816 24.5211 42.5842 23.9628 42.5842 23.3807C42.5842 22.7986 42.816 22.2403 43.2287 21.8286ZM74.6965 12.7897H81.0421V14.8568C81.0421 15.4389 81.274 15.9972 81.687 16.4088C82.0995 16.8204 82.6592 17.0517 83.243 17.0517C83.8268 17.0517 84.3865 16.8204 84.799 16.4088C85.2115 15.9972 85.4434 15.4389 85.4434 14.8568V12.7897H91.789C92.3728 12.7897 92.9325 12.5585 93.345 12.1468C93.758 11.7352 93.9898 11.1769 93.9898 10.5948C93.9898 10.0127 93.758 9.45441 93.345 9.04278C92.9325 8.63115 92.3728 8.3999 91.789 8.3999H74.6965C74.1132 8.3999 73.5535 8.63115 73.1405 9.04278C72.728 9.45441 72.4962 10.0127 72.4962 10.5948C72.4962 11.1769 72.728 11.7352 73.1405 12.1468C73.5535 12.5585 74.1132 12.7897 74.6965 12.7897ZM93.8608 16.9234V19.1182C93.8608 19.7004 94.0927 20.2587 94.5057 20.6703C94.9182 21.0819 95.4779 21.3132 96.0617 21.3132C96.645 21.3132 97.2052 21.0819 97.6177 20.6703C98.0302 20.2587 98.2621 19.7004 98.2621 19.1182V14.8563C98.2621 14.2742 98.0302 13.7159 97.6177 13.3043C97.2052 12.8926 96.645 12.6614 96.0617 12.6614C95.4779 12.6614 94.9182 12.8926 94.5057 13.3043C94.0927 13.7159 93.8608 14.2742 93.8608 14.8563V16.9234ZM83.242 25.5761C84.4574 25.5761 85.4424 24.5934 85.4424 23.3811C85.4424 22.1689 84.4574 21.1863 83.242 21.1863C82.0266 21.1863 81.0412 22.1689 81.0412 23.3811C81.0412 24.5934 82.0266 25.5761 83.242 25.5761ZM52.4817 25.6044C52.7515 25.496 53.04 25.4428 53.3304 25.4481C53.6208 25.4428 53.9093 25.496 54.1785 25.6044C54.4483 25.7128 54.6929 25.8742 54.8982 26.0791C55.1035 26.284 55.2654 26.5281 55.3742 26.7968C55.483 27.0655 55.5362 27.3533 55.5312 27.643V36.1669C55.5312 36.7491 55.2994 37.3073 54.8864 37.7189C54.4739 38.1306 53.9142 38.3618 53.3304 38.3618C52.7466 38.3618 52.1869 38.1306 51.7744 37.7189C51.3614 37.3073 51.1295 36.7491 51.1295 36.1669V27.643C51.1246 27.3533 51.1778 27.0655 51.2866 26.7968C51.3953 26.5281 51.5568 26.284 51.7626 26.0791C51.9678 25.8742 52.2125 25.7128 52.4817 25.6044ZM44.7852 38.361C45.0756 38.3663 45.3642 38.3131 45.6336 38.2047C45.903 38.0963 46.1477 37.9348 46.3531 37.7299C46.5585 37.525 46.7204 37.2809 46.8291 37.0123C46.9379 36.7436 46.9911 36.4558 46.9858 36.1661V31.9041C46.9858 31.322 46.754 30.7637 46.3413 30.3521C45.9286 29.9404 45.3689 29.7092 44.7852 29.7092C44.2015 29.7092 43.6418 29.9404 43.2291 30.3521C42.8164 30.7637 42.5845 31.322 42.5845 31.9041V36.1661C42.5793 36.4558 42.6325 36.7436 42.7413 37.0123C42.85 37.2809 43.0119 37.525 43.2173 37.7299C43.4227 37.9348 43.6674 38.0963 43.9368 38.2047C44.2062 38.3131 44.4947 38.3663 44.7852 38.361ZM81.1701 36.1675C81.1701 37.3797 80.1846 38.3624 78.9693 38.3624C77.7539 38.3624 76.7689 37.3797 76.7689 36.1675C76.7689 34.9553 77.7539 33.9726 78.9693 33.9726C80.1846 33.9726 81.1701 34.9553 81.1701 36.1675ZM36.2397 42.4955C35.656 42.4955 35.0963 42.7268 34.6836 43.1384C34.2709 43.55 34.039 44.1083 34.039 44.6905C34.039 45.2726 34.2709 45.8308 34.6836 46.2425C35.0963 46.6541 35.656 46.8854 36.2397 46.8854H42.5852V48.9526C42.5799 49.2423 42.6332 49.53 42.7419 49.7986C42.8506 50.0671 43.0125 50.3111 43.2179 50.5164C43.4233 50.7211 43.668 50.8826 43.9374 50.9911C44.2068 51.0997 44.4954 51.1527 44.7858 51.1473H46.8583V61.7385C46.8583 62.3203 47.0901 62.8785 47.5026 63.2905C47.9156 63.7019 48.4753 63.9331 49.0591 63.9331C49.6424 63.9331 50.2021 63.7019 50.6151 63.2905C51.0276 62.8785 51.2595 62.3203 51.2595 61.7385V59.671H55.4042V61.7385C55.4042 62.3203 55.6361 62.8785 56.0491 63.2905C56.4616 63.7019 57.0213 63.9331 57.6051 63.9331C58.1889 63.9331 58.7486 63.7019 59.1611 63.2905C59.5736 62.8785 59.8055 62.3203 59.8055 61.7385V55.4094H61.8783C62.4616 55.4094 63.0213 55.1782 63.4343 54.7662C63.8468 54.3548 64.0787 53.7966 64.0787 53.2143C64.0787 52.6325 63.8468 52.0737 63.4343 51.6623C63.0213 51.2509 62.4616 51.0196 61.8783 51.0196H57.6051C57.3147 51.0142 57.0262 51.0672 56.7564 51.1758C56.4872 51.2843 56.2425 51.4458 56.0373 51.6505C55.8315 51.8553 55.6696 52.0993 55.5613 52.3683C55.4525 52.6369 55.3993 52.9246 55.4042 53.2143V55.2813H51.2595V46.8854H53.3319C53.9157 46.8854 54.4754 46.6541 54.8879 46.2425C55.3009 45.8308 55.5327 45.2726 55.5327 44.6905C55.5327 44.1083 55.3009 43.55 54.8879 43.1384C54.4754 42.7268 53.9157 42.4955 53.3319 42.4955H36.2397ZM64.0777 36.1675V42.4965V44.6914C64.0777 45.2735 63.8458 45.8318 63.4333 46.2435C63.0203 46.6551 62.4607 46.8863 61.8773 46.8863C61.2935 46.8863 60.7338 46.6551 60.3208 46.2435C59.9083 45.8318 59.6765 45.2735 59.6765 44.6914V36.1675C59.6765 35.5854 59.9083 35.0271 60.3208 34.6154C60.7338 34.2038 61.2935 33.9726 61.8773 33.9726C62.4607 33.9726 63.0203 34.2038 63.4333 34.6154C63.8458 35.0271 64.0777 35.5854 64.0777 36.1675ZM83.242 46.8854C84.4574 46.8854 85.4424 45.9027 85.4424 44.6905C85.4424 43.4782 84.4574 42.4955 83.242 42.4955C82.0266 42.4955 81.0412 43.4782 81.0412 44.6905C81.0412 45.9027 82.0266 46.8854 83.242 46.8854ZM93.9883 42.6239V46.758H98.1336V44.691C98.1336 44.1088 98.3654 43.5505 98.7779 43.1389C99.1909 42.7273 99.7506 42.4961 100.334 42.4961C100.918 42.4961 101.477 42.7273 101.89 43.1389C102.303 43.5505 102.535 44.1088 102.535 44.691V46.758H104.607C104.898 46.7527 105.186 46.8059 105.455 46.9143C105.725 47.0227 105.97 47.1842 106.175 47.3889C106.38 47.5941 106.542 47.8381 106.651 48.1067C106.76 48.3753 106.813 48.6635 106.808 48.9531V51.0201H108.88C109.464 51.0201 110.023 51.2514 110.436 51.6628C110.849 52.0742 111.081 52.633 111.081 53.2148C111.081 53.7971 110.849 54.3553 110.436 54.7667C110.023 55.1786 109.464 55.4099 108.88 55.4099H106.808V57.4769C106.813 57.7665 106.76 58.0543 106.651 58.3228C106.542 58.5919 106.38 58.8359 106.175 59.0406C105.97 59.2453 105.725 59.4069 105.455 59.5154C105.186 59.6239 104.898 59.6769 104.607 59.6715H100.334C99.7506 59.6715 99.1909 59.4403 98.7779 59.0288C98.3654 58.6174 98.1336 58.0592 98.1336 57.4769C98.1336 56.8946 98.3654 56.3363 98.7779 55.9249C99.1909 55.513 99.7506 55.2817 100.334 55.2817H102.406V51.1478H98.2616V53.2148C98.2616 53.7971 98.0297 54.3553 97.6172 54.7667C97.2042 55.1786 96.6445 55.4099 96.0612 55.4099C95.4774 55.4099 94.9177 55.1786 94.5047 54.7667C94.0922 54.3553 93.8604 53.7971 93.8604 53.2148V51.1478H91.788C91.4975 51.1532 91.2091 51.1001 90.9393 50.9916C90.6701 50.8831 90.4254 50.7216 90.2202 50.5169C90.0144 50.3116 89.8529 50.0676 89.7441 49.7991C89.6354 49.5305 89.5822 49.2428 89.5871 48.9531V40.429C89.5822 40.1393 89.6354 39.8515 89.7441 39.5828C89.8529 39.3141 90.0144 39.07 90.2202 38.8651C90.4254 38.6603 90.6701 38.4988 90.9393 38.3904C91.2091 38.2819 91.4975 38.2288 91.788 38.2341H93.8604V29.838H89.7156V36.167C89.7156 36.7492 89.4837 37.3074 89.0708 37.7191C88.6582 38.1307 88.0986 38.3619 87.5147 38.3619C86.9314 38.3619 86.3717 38.1307 85.9587 37.7191C85.5462 37.3074 85.3144 36.7492 85.3144 36.167V27.6431C85.309 27.3534 85.3621 27.0656 85.4709 26.7969C85.5797 26.5282 85.7417 26.2842 85.9469 26.0793C86.1522 25.8744 86.3973 25.7129 86.6666 25.6045C86.9359 25.4961 87.2243 25.4429 87.5147 25.4482H89.5871V23.3811C89.5871 22.7991 89.819 22.2408 90.232 21.8291C90.6445 21.4175 91.2042 21.1863 91.788 21.1863C92.3718 21.1863 92.9315 21.4175 93.344 21.8291C93.757 22.2408 93.9883 22.7991 93.9883 23.3811V25.4482H96.0612C96.3516 25.4429 96.6401 25.4961 96.9094 25.6045C97.1786 25.7129 97.4238 25.8744 97.629 26.0793C97.8343 26.2842 97.9963 26.5282 98.105 26.7969C98.2138 27.0656 98.267 27.3534 98.2616 27.6431V40.429C98.267 40.7187 98.2138 41.0065 98.105 41.2752C97.9963 41.5439 97.8343 41.7879 97.629 41.9928C97.4238 42.1977 97.1786 42.3592 96.9094 42.4676C96.6401 42.576 96.3516 42.6292 96.0612 42.6239H93.9883ZM108.881 46.8854C110.097 46.8854 111.082 45.9027 111.082 44.6905C111.082 43.4782 110.097 42.4955 108.881 42.4955C107.666 42.4955 106.681 43.4782 106.681 44.6905C106.681 45.9027 107.666 46.8854 108.881 46.8854ZM119.627 44.6905C119.627 45.9027 118.642 46.8854 117.426 46.8854C116.211 46.8854 115.226 45.9027 115.226 44.6905C115.226 43.4782 116.211 42.4955 117.426 42.4955C118.642 42.4955 119.627 43.4782 119.627 44.6905ZM125.973 46.8854C127.189 46.8854 128.174 45.9027 128.174 44.6905C128.174 43.4782 127.189 42.4955 125.973 42.4955C124.758 42.4955 123.773 43.4782 123.773 44.6905C123.773 45.9027 124.758 46.8854 125.973 46.8854ZM70.4228 51.1483H66.1496C65.5663 51.1483 65.0061 50.917 64.5936 50.5056C64.1811 50.0937 63.9492 49.5354 63.9492 48.9536C63.9492 48.3713 64.1811 47.8131 64.5936 47.4012C65.0061 46.9897 65.5663 46.7585 66.1496 46.7585H68.222V36.1675C68.222 35.5854 68.4538 35.0271 68.8668 34.6154C69.2793 34.2038 69.839 33.9726 70.4228 33.9726C71.0066 33.9726 71.5663 34.2038 71.9788 34.6154C72.3913 35.0271 72.6232 35.5854 72.6232 36.1675V48.9536C72.6286 49.2433 72.5754 49.531 72.4666 49.7996C72.3578 50.0681 72.1959 50.3121 71.9906 50.5174C71.7854 50.7221 71.5407 50.8836 71.271 50.9921C71.0017 51.1006 70.7132 51.1537 70.4228 51.1483ZM113.154 51.1468C114.369 51.1468 115.354 50.1644 115.354 48.9521C115.354 47.7399 114.369 46.757 113.154 46.757C111.938 46.757 110.953 47.7399 110.953 48.9521C110.953 50.1644 111.938 51.1468 113.154 51.1468ZM132.447 48.9521C132.447 50.1644 131.461 51.1468 130.246 51.1468C129.031 51.1468 128.046 50.1644 128.046 48.9521C128.046 47.7399 129.031 46.757 130.246 46.757C131.461 46.757 132.447 47.7399 132.447 48.9521ZM19.1474 55.4104C20.3628 55.4104 21.348 54.4275 21.348 53.2152C21.348 52.003 20.3628 51.0206 19.1474 51.0206C17.932 51.0206 16.9468 52.003 16.9468 53.2152C16.9468 54.4275 17.932 55.4104 19.1474 55.4104ZM37.7948 54.7657C37.3821 55.1777 36.8223 55.4089 36.2387 55.4089H34.1663V59.5429H36.2387C36.8223 59.5429 37.3821 59.7741 37.7948 60.1856C38.2075 60.5975 38.4393 61.1557 38.4393 61.7375C38.4393 62.3198 38.2075 62.878 37.7948 63.2895C37.3821 63.7014 36.8223 63.9327 36.2387 63.9327H31.9657C31.6752 63.9381 31.3867 63.8845 31.1173 63.7765C30.8478 63.668 30.6031 63.5065 30.3977 63.3018C30.1923 63.0965 30.0304 62.8525 29.9217 62.584C29.813 62.3154 29.7597 62.0272 29.765 61.7375V59.6705H27.6926C27.1089 59.6705 26.5492 59.4393 26.1365 59.0278C25.7238 58.6159 25.492 58.0577 25.492 57.4759C25.492 56.8936 25.7238 56.3354 26.1365 55.9234C26.5492 55.512 27.1089 55.2808 27.6926 55.2808H29.765V53.2138C29.7597 52.9241 29.813 52.6364 29.9217 52.3673C30.0304 52.0988 30.1923 51.8548 30.3977 51.65C30.6031 51.4448 30.8478 51.2838 31.1173 51.1753C31.3867 51.0668 31.6752 51.0137 31.9657 51.0186H36.2387C36.8223 51.0186 37.3821 51.2499 37.7948 51.6618C38.2075 52.0732 38.4393 52.6315 38.4393 53.2138C38.4393 53.7961 38.2075 54.3543 37.7948 54.7657ZM87.5147 51.0186C87.2243 51.0137 86.9359 51.0668 86.6666 51.1753C86.3973 51.2838 86.1522 51.4448 85.9469 51.65C85.7417 51.8548 85.5797 52.0988 85.4709 52.3673C85.3621 52.6364 85.309 52.9241 85.3144 53.2138V57.4759C85.309 57.7656 85.3621 58.0533 85.4709 58.3218C85.5797 58.5904 85.7417 58.8349 85.9469 59.0396C86.1522 59.2444 86.3973 59.4059 86.6666 59.5144C86.9359 59.6229 87.2243 59.6759 87.5147 59.6705H91.788C92.3718 59.6705 92.9315 59.4393 93.344 59.0278C93.757 58.6159 93.9883 58.0577 93.9883 57.4759C93.9883 56.8936 93.757 56.3354 93.344 55.9234C92.9315 55.512 92.3718 55.2808 91.788 55.2808H89.7156V53.2138C89.721 52.9241 89.6674 52.6364 89.5591 52.3673C89.4503 52.0988 89.2883 51.8548 89.0826 51.65C88.8773 51.4448 88.6327 51.2838 88.3634 51.1753C88.0941 51.0668 87.8052 51.0137 87.5147 51.0186ZM11.4491 59.5154C11.1797 59.6239 10.8911 59.6769 10.6007 59.6715C10.3102 59.6769 10.0217 59.6239 9.75228 59.5154C9.48287 59.4069 9.23818 59.2453 9.03276 59.0406C8.82734 58.8359 8.66544 58.5914 8.5567 58.3228C8.44801 58.0543 8.3947 57.7665 8.40002 57.4769V44.6908C8.3947 44.4011 8.44801 44.1133 8.5567 43.8446C8.66544 43.5759 8.82734 43.3319 9.03276 43.127C9.23818 42.9221 9.48287 42.7606 9.75228 42.6522C10.0217 42.5437 10.3102 42.4906 10.6007 42.4959H27.693C28.2766 42.4959 28.8363 42.7272 29.249 43.1388C29.6617 43.5504 29.8936 44.1087 29.8936 44.6908C29.8936 45.273 29.6617 45.8312 29.249 46.2429C28.8363 46.6544 28.2766 46.8857 27.693 46.8857H12.8013V57.4769C12.8066 57.7665 12.7533 58.0543 12.6446 58.3228C12.5359 58.5914 12.374 58.8359 12.1686 59.0406C11.9632 59.2453 11.7184 59.4069 11.4491 59.5154ZM113.154 59.672H115.227V61.739C115.221 62.0287 115.274 62.3164 115.383 62.5854C115.492 62.854 115.654 63.098 115.859 63.3027C116.064 63.508 116.309 63.6695 116.579 63.7775C116.848 63.886 117.136 63.9395 117.427 63.9341H121.7C122.284 63.9341 122.844 63.7029 123.256 63.291C123.669 62.8795 123.9 62.3213 123.9 61.739C123.9 61.1572 123.669 60.5985 123.256 60.187C122.844 59.7756 122.284 59.5444 121.7 59.5444H119.628V57.4774C119.633 57.1877 119.579 56.8995 119.471 56.6309C119.362 56.3624 119.2 56.1184 118.995 55.9131C118.789 55.7084 118.545 55.5469 118.276 55.4384C118.006 55.3299 117.717 55.2768 117.427 55.2822H113.154C112.57 55.2822 112.011 55.5135 111.598 55.9249C111.185 56.3368 110.953 56.8951 110.953 57.4774C110.953 58.0592 111.185 58.6174 111.598 59.0293C112.011 59.4408 112.57 59.672 113.154 59.672ZM128.174 57.4769C128.174 58.6891 127.189 59.6715 125.973 59.6715C124.758 59.6715 123.773 58.6891 123.773 57.4769C123.773 56.2647 124.758 55.2817 125.973 55.2817C127.189 55.2817 128.174 56.2647 128.174 57.4769ZM23.42 63.9331C24.6353 63.9331 25.6206 62.9507 25.6206 61.7385C25.6206 60.5258 24.6353 59.5434 23.42 59.5434C22.2046 59.5434 21.2194 60.5258 21.2194 61.7385C21.2194 62.9507 22.2046 63.9331 23.42 63.9331ZM12.8009 65.9996C12.8009 67.2118 11.8157 68.1948 10.6003 68.1948C9.38492 68.1948 8.39968 67.2118 8.39968 65.9996C8.39968 64.7874 9.38492 63.805 10.6003 63.805C11.8157 63.805 12.8009 64.7874 12.8009 65.9996ZM19.1474 68.1948C20.3628 68.1948 21.348 67.2118 21.348 65.9996C21.348 64.7874 20.3628 63.805 19.1474 63.805C17.932 63.805 16.9468 64.7874 16.9468 65.9996C16.9468 67.2118 17.932 68.1948 19.1474 68.1948ZM29.8932 65.9996C29.8932 67.2118 28.9079 68.1948 27.6926 68.1948C26.4772 68.1948 25.492 67.2118 25.492 65.9996C25.492 64.7874 26.4772 63.805 27.6926 63.805C28.9079 63.805 29.8932 64.7874 29.8932 65.9996ZM130.246 68.1948C131.461 68.1948 132.447 67.2118 132.447 65.9996C132.447 64.7874 131.461 63.805 130.246 63.805C129.031 63.805 128.046 64.7874 128.046 65.9996C128.046 67.2118 129.031 68.1948 130.246 68.1948ZM54.1785 72.3003C53.9093 72.4088 53.6208 72.4618 53.3304 72.4564C53.04 72.4618 52.7515 72.4088 52.4817 72.3003C52.2125 72.1918 51.9678 72.0302 51.7626 71.8255C51.5568 71.6208 51.3953 71.3768 51.2866 71.1077C51.1778 70.8391 51.1246 70.5514 51.1295 70.2618V65.9996C51.1295 65.4178 51.3614 64.8591 51.7744 64.4477C52.1869 64.0362 52.7466 63.805 53.3304 63.805C53.9142 63.805 54.4739 64.0362 54.8864 64.4477C55.2994 64.8591 55.5312 65.4178 55.5312 65.9996V70.2618C55.5362 70.5514 55.483 70.8391 55.3742 71.1077C55.2654 71.3768 55.1035 71.6208 54.8982 71.8255C54.6929 72.0302 54.4483 72.1918 54.1785 72.3003ZM14.8729 76.7195C16.0883 76.7195 17.0735 75.7366 17.0735 74.5244C17.0735 73.3122 16.0883 72.3297 14.8729 72.3297C13.6575 72.3297 12.6723 73.3122 12.6723 74.5244C12.6723 75.7366 13.6575 76.7195 14.8729 76.7195ZM36.2391 72.4564H34.1667V74.5234C34.172 74.8131 34.1187 75.1013 34.01 75.3698C33.9012 75.6384 33.7393 75.8824 33.5339 76.0876C33.3285 76.2924 33.0838 76.4539 32.8144 76.5624C32.545 76.6704 32.2565 76.7239 31.966 76.7185H29.8936V78.7855C29.8936 79.3678 29.6617 79.926 29.249 80.3375C28.8363 80.7494 28.2766 80.9806 27.6929 80.9806C27.1093 80.9806 26.5496 80.7494 26.1369 80.3375C25.7242 79.926 25.4923 79.3678 25.4923 78.7855V74.5234C25.487 74.2337 25.5403 73.946 25.649 73.6774C25.7577 73.4089 25.9196 73.1644 26.125 72.9596C26.3304 72.7549 26.5752 72.5934 26.8445 72.4849C27.1139 72.3764 27.4025 72.3233 27.6929 72.3287H29.7654V70.2618C29.7601 69.9721 29.8133 69.6839 29.9221 69.4153C30.0308 69.1468 30.1927 68.9028 30.3981 68.6975C30.6035 68.4928 30.8482 68.3313 31.1176 68.2228C31.387 68.1147 31.6756 68.0612 31.966 68.0666H36.2391C36.8227 68.0666 37.3825 68.2979 37.7951 68.7093C38.2078 69.1212 38.4397 69.6795 38.4397 70.2618C38.4397 70.8436 38.2078 71.4018 37.7951 71.8137C37.3825 72.2252 36.8227 72.4564 36.2391 72.4564ZM110.954 72.4569V74.5244C110.954 75.1062 111.186 75.6644 111.598 76.0763C112.011 76.4878 112.571 76.719 113.155 76.719C113.738 76.719 114.298 76.4878 114.711 76.0763C115.123 75.6644 115.355 75.1062 115.355 74.5244V72.4569H121.701C122.284 72.4569 122.844 72.2256 123.257 71.8142C123.669 71.4028 123.901 70.8445 123.901 70.2622C123.901 69.68 123.669 69.1217 123.257 68.7103C122.844 68.2984 122.284 68.0671 121.701 68.0671H115.355V66.0001C115.36 65.7105 115.307 65.4227 115.198 65.1542C115.09 64.8851 114.928 64.6411 114.722 64.4364C114.517 64.2317 114.272 64.0701 114.003 63.9616C113.734 63.8531 113.445 63.8001 113.155 63.8055H111.082V61.7385C111.082 61.1562 110.85 60.598 110.437 60.1861C110.025 59.7746 109.465 59.5434 108.881 59.5434C108.298 59.5434 107.738 59.7746 107.325 60.1861C106.912 60.598 106.681 61.1562 106.681 61.7385V63.8055H91.789C91.2052 63.8055 90.6455 64.0367 90.233 64.4482C89.8204 64.8596 89.5886 65.4183 89.5886 66.0001C89.5886 66.5824 89.8204 67.1407 90.233 67.5521C90.6455 67.964 91.2052 68.1953 91.789 68.1953H98.1346V70.2622C98.1346 70.8445 98.3664 71.4028 98.7789 71.8142C99.1919 72.2256 99.7516 72.4569 100.335 72.4569C100.919 72.4569 101.478 72.2256 101.891 71.8142C102.304 71.4028 102.536 70.8445 102.536 70.2622V68.1953H110.954V72.4569ZM128.174 74.5244C128.174 75.7366 127.189 76.7195 125.973 76.7195C124.758 76.7195 123.773 75.7366 123.773 74.5244C123.773 73.3122 124.758 72.3297 125.973 72.3297C127.189 72.3297 128.174 73.3122 128.174 74.5244ZM64.0782 76.72H66.1506C66.441 76.7254 66.7295 76.6724 66.9987 76.5639C67.2685 76.4554 67.5131 76.2938 67.7184 76.0891C67.9237 75.8839 68.0856 75.6399 68.1944 75.3713C68.3032 75.1027 68.3563 74.815 68.3509 74.5254V72.4579H72.4962V76.5923H70.4238C69.84 76.5923 69.2803 76.8236 68.8673 77.235C68.4548 77.6465 68.2229 78.2052 68.2229 78.787C68.2229 79.3693 68.4548 79.9275 68.8673 80.3389C69.2803 80.7509 69.84 80.9821 70.4238 80.9821H74.6965C74.987 80.9875 75.2754 80.934 75.5452 80.8255C75.8144 80.7175 76.0591 80.556 76.2644 80.3507C76.4701 80.146 76.6321 79.902 76.7409 79.6334C76.8491 79.3644 76.9028 79.0767 76.8974 78.787V76.72H78.9698C79.5536 76.72 80.1133 76.4887 80.5258 76.0773C80.9388 75.6654 81.1706 75.1072 81.1706 74.5254C81.1706 73.9431 80.9388 73.3848 80.5258 72.9729C80.1133 72.5615 79.5536 72.3302 78.9698 72.3302H76.8974V63.9341H83.243C83.8263 63.9341 84.386 63.7029 84.799 63.2914C85.2115 62.8795 85.4434 62.3213 85.4434 61.739C85.4434 61.1572 85.2115 60.599 84.799 60.187C84.386 59.7756 83.8263 59.5444 83.243 59.5444H76.8974V53.2152C76.8974 52.633 76.6655 52.0747 76.2525 51.6633C75.84 51.2519 75.2803 51.0206 74.6965 51.0206C74.1132 51.0206 73.5535 51.2519 73.1405 51.6633C72.728 52.0747 72.4962 52.633 72.4962 53.2152V55.2822H70.4238C69.84 55.2822 69.2803 55.5135 68.8673 55.9254C68.4548 56.3368 68.2229 56.8951 68.2229 57.4774C68.2229 58.0592 68.4548 58.6179 68.8673 59.0293C69.2803 59.4408 69.84 59.672 70.4238 59.672H72.4962V68.0681H68.3509V66.0011C68.3563 65.7114 68.3032 65.4237 68.1944 65.1552C68.0856 64.8861 67.9237 64.6421 67.7184 64.4374C67.5131 64.2326 67.2685 64.0711 66.9987 63.9626C66.7295 63.8541 66.441 63.8011 66.1506 63.8065H61.8773C61.294 63.8065 60.7338 64.0377 60.3213 64.4492C59.9088 64.8606 59.677 65.4188 59.677 66.0011C59.677 66.5834 59.9088 67.1416 60.3213 67.5531C60.7338 67.965 61.294 68.1962 61.8773 68.1962H63.9497V72.3302H61.8773C61.5869 72.3248 61.2985 72.3778 61.0292 72.4864C60.7594 72.5949 60.5148 72.7564 60.3095 72.9611C60.1042 73.1663 59.9423 73.4104 59.8335 73.6789C59.7247 73.9475 59.6716 74.2352 59.677 74.5254V78.787C59.677 79.3693 59.9088 79.9275 60.3213 80.3389C60.7338 80.7509 61.294 80.9821 61.8773 80.9821C62.4611 80.9821 63.0208 80.7509 63.4333 80.3389C63.8463 79.9275 64.0782 79.3693 64.0782 78.787V76.72ZM25.6206 83.0476C25.6206 84.2598 24.6353 85.2423 23.42 85.2423C22.2046 85.2423 21.2194 84.2598 21.2194 83.0476C21.2194 81.8354 22.2046 80.8525 23.42 80.8525C24.6353 80.8525 25.6206 81.8354 25.6206 83.0476ZM42.7134 80.9816H44.7858C45.0763 80.987 45.3648 80.9335 45.6342 80.825C45.9036 80.717 46.1483 80.5555 46.3537 80.3502C46.5591 80.1455 46.721 79.9015 46.8298 79.6329C46.9384 79.3639 46.9918 79.0762 46.9864 78.7865V74.5244C46.9864 73.9426 46.7546 73.3843 46.3419 72.9724C45.9292 72.561 45.3695 72.3297 44.7858 72.3297C44.2022 72.3297 43.6424 72.561 43.2297 72.9724C42.817 73.3843 42.5852 73.9426 42.5852 74.5244V76.5919H36.2397C35.656 76.5919 35.0963 76.8231 34.6836 77.2345C34.2709 77.646 34.039 78.2042 34.039 78.7865C34.039 79.3688 34.2709 79.927 34.6836 80.3384C35.0963 80.7504 35.656 80.9816 36.2397 80.9816H38.3121V83.0486C38.3121 83.6309 38.5439 84.1891 38.9566 84.6006C39.3694 85.012 39.9291 85.2432 40.5128 85.2432C41.0964 85.2432 41.6561 85.012 42.0688 84.6006C42.4815 84.1891 42.7134 83.6309 42.7134 83.0486V80.9816ZM132.447 83.0476C132.447 84.2598 131.461 85.2423 130.246 85.2423C129.031 85.2423 128.046 84.2598 128.046 83.0476C128.046 81.8354 129.031 80.8525 130.246 80.8525C131.461 80.8525 132.447 81.8354 132.447 83.0476ZM16.9468 89.3782V95.835C16.9468 96.4168 17.1786 96.9755 17.5913 97.3869C18.004 97.7984 18.5638 98.0296 19.1474 98.0296C19.731 98.0296 20.2908 97.7984 20.7035 97.3869C21.1162 96.9755 21.348 96.4168 21.348 95.835V93.768H31.9666C32.5502 93.768 33.11 93.5367 33.5227 93.1248C33.9354 92.7134 34.1672 92.1551 34.1672 91.5729C34.1672 90.9906 33.9354 90.4323 33.5227 90.0209C33.11 89.6095 32.5502 89.3782 31.9666 89.3782H29.8942V87.3107C29.8942 86.7289 29.6623 86.1707 29.2496 85.7588C28.8369 85.3473 28.2772 85.1161 27.6936 85.1161C27.1099 85.1161 26.5502 85.3473 26.1374 85.7588C25.7247 86.1707 25.4929 86.7289 25.4929 87.3107V89.3782H21.348V87.3107C21.348 86.7289 21.1162 86.1707 20.7035 85.7588C20.2908 85.3473 19.731 85.1161 19.1474 85.1161C18.5638 85.1161 18.004 85.3473 17.5913 85.7588C17.1786 86.1707 16.9468 86.7289 16.9468 87.3107V89.3782ZM38.4403 87.3107C38.4403 88.5229 37.455 89.5059 36.2397 89.5059C35.0243 89.5059 34.039 88.5229 34.039 87.3107C34.039 86.0985 35.0243 85.1161 36.2397 85.1161C37.455 85.1161 38.4403 86.0985 38.4403 87.3107ZM44.7849 89.5059C46.0002 89.5059 46.9855 88.5229 46.9855 87.3107C46.9855 86.0985 46.0002 85.1161 44.7849 85.1161C43.5694 85.1161 42.5842 86.0985 42.5842 87.3107C42.5842 88.5229 43.5694 89.5059 44.7849 89.5059ZM119.499 87.3102V85.2432V80.9811H117.426C116.843 80.9811 116.283 80.7499 115.87 80.3384C115.458 79.927 115.226 79.3688 115.226 78.7865C115.226 78.2042 115.458 77.646 115.87 77.2345C116.283 76.8226 116.843 76.5914 117.426 76.5914H121.7C121.99 76.5865 122.278 76.6395 122.548 76.748C122.818 76.8565 123.062 77.0175 123.267 77.2227C123.473 77.4275 123.635 77.6715 123.743 77.9401C123.852 78.2091 123.905 78.4968 123.9 78.7865V87.3102C123.9 87.8925 123.668 88.4508 123.256 88.8622C122.843 89.2741 122.283 89.5054 121.7 89.5054C121.116 89.5054 120.556 89.2741 120.144 88.8622C119.731 88.4508 119.499 87.8925 119.499 87.3102ZM70.4243 93.768H74.697C74.9879 93.7734 75.2764 93.7199 75.5457 93.6114C75.8149 93.5033 76.0596 93.3418 76.2653 93.1366C76.4706 92.9319 76.6326 92.6878 76.7413 92.4193C76.8501 92.1502 76.9033 91.8625 76.8979 91.5729V89.5059H83.2435C83.5339 89.5113 83.8224 89.4582 84.0916 89.3497C84.3614 89.2412 84.606 89.0797 84.8113 88.875C85.0166 88.6697 85.1785 88.4257 85.2873 88.1572C85.3961 87.8886 85.4493 87.6009 85.4439 87.3107V85.2437H91.7895C92.0799 85.2491 92.3683 85.1961 92.6381 85.0876C92.9074 84.9791 93.152 84.8176 93.3573 84.6128C93.563 84.4081 93.725 84.1641 93.8333 83.895C93.9421 83.6265 93.9957 83.3388 93.9903 83.0491V76.72H96.0627C96.6465 76.72 97.2062 76.4887 97.6187 76.0773C98.0312 75.6654 98.263 75.1072 98.263 74.5249C98.263 73.9431 98.0312 73.3848 97.6187 72.9729C97.2062 72.5615 96.6465 72.3302 96.0627 72.3302H89.7171V70.2632C89.7171 69.6809 89.4852 69.1227 89.0727 68.7113C88.6597 68.2994 88.1 68.0681 87.5162 68.0681C86.9329 68.0681 86.3732 68.2994 85.9602 68.7113C85.5477 69.1227 85.3159 69.6809 85.3159 70.2632V76.5923H83.2435C82.9531 76.5869 82.6646 76.64 82.3949 76.7485C82.1256 76.857 81.8809 77.0185 81.6757 77.2232C81.4699 77.428 81.308 77.672 81.1997 77.941C81.0909 78.2096 81.0372 78.4973 81.0426 78.787V80.854H78.9703C78.6798 80.8486 78.3914 80.9021 78.1221 81.0106C77.8524 81.1186 77.6077 81.2801 77.4024 81.4854C77.1972 81.6901 77.0352 81.9341 76.9264 82.2027C76.8176 82.4717 76.7645 82.7594 76.7699 83.0491V85.1161H74.697C74.4066 85.1107 74.1181 85.1637 73.8489 85.2722C73.5796 85.3807 73.335 85.5423 73.1292 85.747C72.9239 85.9522 72.762 86.1962 72.6532 86.4648C72.5444 86.7334 72.4912 87.0211 72.4967 87.3107V89.3782H70.4243C69.8405 89.3782 69.2808 89.6095 68.8683 90.0209C68.4553 90.4323 68.2234 90.9911 68.2234 91.5729C68.2234 92.1551 68.4553 92.7134 68.8683 93.1248C69.2808 93.5367 69.8405 93.768 70.4243 93.768ZM11.4491 97.8725C11.1797 97.981 10.8911 98.034 10.6007 98.0286C10.3102 98.034 10.0217 97.981 9.75228 97.8725C9.48287 97.764 9.23818 97.6025 9.03276 97.3977C8.82734 97.193 8.66544 96.9485 8.5567 96.6799C8.44801 96.4114 8.3947 96.1237 8.40002 95.834V83.0481C8.3947 82.7584 8.44801 82.4702 8.5567 82.2017C8.66544 81.9331 8.82734 81.6891 9.03276 81.4839C9.23818 81.2792 9.48287 81.1176 9.75228 81.0091C10.0217 80.9011 10.3102 80.8476 10.6007 80.853H14.8738C15.4574 80.853 16.0171 81.0842 16.4298 81.4957C16.8425 81.9076 17.0744 82.4658 17.0744 83.0481C17.0744 83.6299 16.8425 84.1882 16.4298 84.6001C16.0171 85.0115 15.4574 85.2428 14.8738 85.2428H12.8013V95.834C12.8066 96.1237 12.7533 96.4114 12.6446 96.6799C12.5359 96.9485 12.374 97.193 12.1686 97.3977C11.9632 97.6025 11.7184 97.764 11.4491 97.8725ZM36.2397 98.0286C37.455 98.0286 38.4403 97.0462 38.4403 95.834C38.4403 94.6218 37.455 93.6389 36.2397 93.6389C35.0243 93.6389 34.039 94.6218 34.039 95.834C34.039 97.0462 35.0243 98.0286 36.2397 98.0286ZM58.4518 97.8725C58.1825 97.981 57.894 98.034 57.6036 98.0286C57.3132 98.034 57.0247 97.981 56.755 97.8725C56.4857 97.764 56.2411 97.6025 56.0358 97.3977C55.83 97.193 55.6686 96.949 55.5598 96.6799C55.451 96.4114 55.3978 96.1237 55.4028 95.834V93.767H49.0576C48.4738 93.767 47.9141 93.5358 47.5011 93.1238C47.0886 92.7124 46.8568 92.1542 46.8568 91.5719C46.8568 90.9901 47.0886 90.4313 47.5011 90.0199C47.9141 89.6085 48.4738 89.3772 49.0576 89.3772H51.13V78.786C51.13 78.2042 51.3619 77.6455 51.7744 77.234C52.1869 76.8226 52.7471 76.5914 53.3304 76.5914C53.9142 76.5914 54.4739 76.8226 54.8864 77.234C55.2994 77.6455 55.5312 78.2042 55.5312 78.786V85.1151H61.8768C62.4602 85.1151 63.0199 85.3464 63.4328 85.7578C63.8454 86.1697 64.0772 86.728 64.0772 87.3102C64.0772 87.892 63.8454 88.4503 63.4328 88.8622C63.0199 89.2736 62.4602 89.5049 61.8768 89.5049H59.804V95.834C59.8094 96.1237 59.7562 96.4114 59.6474 96.6799C59.5387 96.949 59.3767 97.193 59.1714 97.3977C58.9662 97.6025 58.7215 97.764 58.4518 97.8725ZM130.247 93.6389H128.174V91.5719C128.174 90.9901 127.942 90.4313 127.53 90.0199C127.117 89.6085 126.557 89.3772 125.973 89.3772C125.39 89.3772 124.83 89.6085 124.417 90.0199C124.005 90.4313 123.773 90.9901 123.773 91.5719V93.6389H121.701C121.41 93.6339 121.121 93.687 120.852 93.7955C120.583 93.9035 120.338 94.065 120.133 94.2702C119.927 94.475 119.765 94.719 119.656 94.9875C119.548 95.2566 119.494 95.5443 119.5 95.834V97.901H115.355V83.0481C115.36 82.7584 115.307 82.4707 115.198 82.2017C115.09 81.9331 114.928 81.6891 114.722 81.4844C114.517 81.2791 114.272 81.1176 114.003 81.0096C113.734 80.9011 113.445 80.8481 113.154 80.853H111.082V78.786C111.082 78.2042 110.85 77.6455 110.437 77.234C110.024 76.8226 109.465 76.5914 108.881 76.5914C108.298 76.5914 107.738 76.8226 107.325 77.234C106.912 77.6455 106.681 78.2042 106.681 78.786V80.853H104.608C104.024 80.853 103.465 81.0842 103.052 81.4962C102.639 81.9076 102.407 82.4658 102.407 83.0481C102.407 83.6304 102.639 84.1886 103.052 84.6001C103.465 85.0115 104.024 85.2428 104.608 85.2428H110.954V93.6389H102.536V87.3102C102.541 87.0201 102.488 86.7324 102.379 86.4638C102.27 86.1952 102.109 85.9512 101.903 85.746C101.697 85.5413 101.453 85.3797 101.184 85.2712C100.914 85.1627 100.625 85.1097 100.335 85.1151H96.0622C95.7718 85.1097 95.4828 85.1627 95.2136 85.2712C94.9443 85.3797 94.6996 85.5413 94.4939 85.746C94.2886 85.9512 94.1267 86.1952 94.0179 86.4638C93.9096 86.7324 93.8559 87.0201 93.8613 87.3102V102.163H89.7166V100.096C89.722 99.8059 89.6684 99.5182 89.5601 99.2497C89.4513 98.9811 89.2893 98.7371 89.084 98.5319C88.8783 98.3271 88.6336 98.1656 88.3644 98.0571C88.0951 97.9486 87.8062 97.8956 87.5157 97.901H85.4434V95.834C85.4434 95.2517 85.2115 94.6935 84.799 94.282C84.386 93.8701 83.8263 93.6389 83.243 93.6389C82.6592 93.6389 82.0995 93.8701 81.6865 94.282C81.274 94.6935 81.0421 95.2517 81.0421 95.834V97.901H78.9698C78.6793 97.8956 78.3909 97.9486 78.1211 98.0571C77.8519 98.1656 77.6072 98.3271 77.4019 98.5319C77.1962 98.7371 77.0347 98.9811 76.9259 99.2497C76.8172 99.5182 76.764 99.8059 76.7689 100.096V102.163H72.6242V100.096C72.6296 99.8059 72.5764 99.5182 72.4676 99.2497C72.3588 98.9811 72.1969 98.7371 71.9916 98.5319C71.7863 98.3271 71.5412 98.1656 71.2719 98.0571C71.0027 97.9486 70.7142 97.8956 70.4238 97.901H61.8773C61.294 97.901 60.7338 98.1322 60.3213 98.5437C59.9088 98.9556 59.677 99.5138 59.677 100.096C59.677 100.678 59.9088 101.236 60.3213 101.648C60.7338 102.059 61.294 102.291 61.8773 102.291H63.9497V106.425H61.8773C61.5869 106.42 61.2985 106.473 61.0292 106.581C60.7594 106.69 60.5148 106.851 60.3095 107.056C60.1042 107.261 59.9423 107.505 59.8335 107.773C59.7247 108.042 59.6716 108.33 59.677 108.62V112.882C59.677 113.464 59.9088 114.022 60.3213 114.434C60.7338 114.845 61.294 115.077 61.8773 115.077C62.4611 115.077 63.0208 114.845 63.4333 114.434C63.8463 114.022 64.0782 113.464 64.0782 112.882V110.814H66.1506C66.441 110.82 66.7295 110.767 66.9987 110.658C67.2685 110.55 67.5131 110.388 67.7184 110.184C67.9237 109.979 68.0856 109.735 68.1944 109.466C68.3032 109.197 68.3563 108.91 68.3509 108.62V106.553H76.7689V108.62C76.7689 109.202 77.0008 109.76 77.4138 110.172C77.8263 110.583 78.386 110.814 78.9698 110.814C79.5536 110.814 80.1133 110.583 80.5258 110.172C80.9388 109.76 81.1706 109.202 81.1706 108.62V102.291H85.3154V104.358C85.31 104.647 85.3631 104.935 85.4719 105.204C85.5807 105.473 85.7426 105.717 85.9479 105.921C86.1532 106.127 86.3983 106.288 86.6676 106.396C86.9369 106.505 87.2253 106.558 87.5157 106.553H89.5881V108.62C89.5832 108.91 89.6364 109.197 89.7451 109.466C89.8539 109.735 90.0154 109.979 90.2211 110.184C90.4264 110.388 90.6711 110.55 90.9403 110.658C91.2101 110.767 91.4985 110.82 91.789 110.814H93.8613V112.882C93.8559 113.172 93.9096 113.459 94.0179 113.728C94.1267 113.996 94.2886 114.24 94.4939 114.446C94.6996 114.65 94.9443 114.812 95.2136 114.92C95.4828 115.029 95.7718 115.082 96.0622 115.077H106.681V119.211H104.608C104.024 119.211 103.465 119.442 103.052 119.854C102.639 120.265 102.407 120.823 102.407 121.406C102.407 121.988 102.639 122.546 103.052 122.958C103.465 123.369 104.024 123.6 104.608 123.6H106.681V125.668C106.675 125.958 106.729 126.245 106.837 126.514C106.946 126.782 107.108 127.027 107.313 127.232C107.519 127.436 107.763 127.598 108.033 127.706C108.302 127.815 108.591 127.868 108.881 127.862H110.954V129.929C110.954 130.512 111.186 131.07 111.598 131.481C112.011 131.893 112.571 132.125 113.154 132.125C113.738 132.125 114.298 131.893 114.711 131.481C115.123 131.07 115.355 130.512 115.355 129.929V127.862H117.427C117.718 127.868 118.006 127.815 118.276 127.706C118.545 127.598 118.79 127.436 118.995 127.232C119.201 127.027 119.362 126.782 119.471 126.514C119.58 126.245 119.633 125.958 119.628 125.668V123.6H123.773V125.668C123.773 126.25 124.005 126.808 124.417 127.22C124.83 127.631 125.39 127.862 125.973 127.862C126.557 127.862 127.117 127.631 127.53 127.22C127.942 126.808 128.174 126.25 128.174 125.668V119.339H130.247C130.83 119.339 131.39 119.107 131.803 118.696C132.216 118.284 132.447 117.726 132.447 117.144C132.447 116.562 132.216 116.003 131.803 115.592C131.39 115.18 130.83 114.949 130.247 114.949H128.174V112.882C128.18 112.592 128.126 112.304 128.018 112.036C127.909 111.767 127.747 111.523 127.542 111.318C127.336 111.113 127.091 110.951 126.822 110.843C126.553 110.735 126.264 110.681 125.973 110.687H121.701C121.41 110.681 121.121 110.735 120.852 110.843C120.583 110.951 120.338 111.113 120.133 111.318C119.927 111.523 119.765 111.767 119.656 112.036C119.548 112.304 119.494 112.592 119.5 112.882V114.949H117.427C117.137 114.944 116.848 114.997 116.579 115.105C116.309 115.214 116.065 115.375 115.86 115.58C115.654 115.785 115.492 116.029 115.384 116.298C115.275 116.566 115.222 116.854 115.227 117.144V119.211H111.082V115.077H113.154C113.445 115.082 113.734 115.029 114.003 114.92C114.272 114.812 114.517 114.65 114.722 114.446C114.928 114.24 115.09 113.996 115.198 113.728C115.307 113.459 115.36 113.172 115.355 112.882V106.553H121.701C121.991 106.558 122.279 106.505 122.549 106.396C122.818 106.288 123.063 106.127 123.268 105.921C123.474 105.717 123.636 105.473 123.744 105.204C123.853 104.935 123.906 104.647 123.901 104.358V102.291H130.247C130.537 102.296 130.825 102.243 131.095 102.135C131.364 102.026 131.609 101.865 131.814 101.66C132.02 101.455 132.182 101.211 132.29 100.942C132.399 100.673 132.452 100.386 132.447 100.096V95.834C132.452 95.5443 132.399 95.2566 132.29 94.9875C132.182 94.719 132.02 94.475 131.814 94.2702C131.609 94.065 131.364 93.9035 131.095 93.7955C130.825 93.687 130.537 93.6339 130.247 93.6389ZM102.536 110.687H98.2626V98.0286H110.954V110.687H102.536ZM106.81 104.359C106.81 105.571 105.824 106.554 104.609 106.554C103.393 106.554 102.408 105.571 102.408 104.359C102.408 103.147 103.393 102.164 104.609 102.164C105.824 102.164 106.81 103.147 106.81 104.359ZM70.4243 115.077C71.6397 115.077 72.6246 114.094 72.6246 112.881C72.6246 111.669 71.6397 110.687 70.4243 110.687C69.2089 110.687 68.2234 111.669 68.2234 112.881C68.2234 114.094 69.2089 115.077 70.4243 115.077ZM82.3939 110.843C82.6631 110.735 82.9521 110.682 83.2425 110.687C83.5329 110.682 83.8214 110.735 84.0907 110.843C84.3599 110.952 84.6046 111.113 84.8103 111.318C85.0156 111.523 85.1775 111.767 85.2863 112.036C85.3951 112.305 85.4483 112.592 85.4429 112.882V114.949H87.5152C88.099 114.949 88.6587 115.18 89.0712 115.592C89.4842 116.004 89.7161 116.562 89.7161 117.144C89.7161 117.726 89.4842 118.285 89.0712 118.696C88.6587 119.107 88.099 119.339 87.5152 119.339H85.4429V121.406C85.4429 121.988 85.211 122.546 84.7985 122.958C84.3855 123.37 83.8258 123.601 83.2425 123.601C82.6587 123.601 82.099 123.37 81.686 122.958C81.2735 122.546 81.0416 121.988 81.0416 121.406V112.882C81.0362 112.592 81.0899 112.305 81.1982 112.036C81.307 111.767 81.4689 111.523 81.6742 111.318C81.88 111.113 82.1246 110.952 82.3939 110.843ZM61.8773 119.211H55.5317V117.144C55.5317 116.561 55.2999 116.003 54.8874 115.592C54.4749 115.18 53.9152 114.948 53.3314 114.948C52.7476 114.948 52.1879 115.18 51.7754 115.592C51.3624 116.003 51.1305 116.561 51.1305 117.144V119.211H46.9858V115.077H49.0581C49.3486 115.082 49.637 115.029 49.9068 114.92C50.176 114.812 50.4207 114.65 50.626 114.445C50.8317 114.24 50.9937 113.996 51.1025 113.728C51.2108 113.459 51.2644 113.171 51.259 112.881V100.096C51.2644 99.8059 51.2108 99.5182 51.1025 99.2497C50.9937 98.9806 50.8317 98.7366 50.626 98.5319C50.4207 98.3271 50.176 98.1656 49.9068 98.0571C49.637 97.9486 49.3486 97.8956 49.0581 97.901H44.7852C44.4947 97.8956 44.2062 97.9486 43.9368 98.0571C43.6674 98.1656 43.4227 98.3271 43.2173 98.5319C43.0119 98.7366 42.85 98.9806 42.7413 99.2497C42.6325 99.5182 42.5793 99.8059 42.5845 100.096V104.358C42.5793 104.647 42.6325 104.935 42.7413 105.204C42.85 105.473 43.0119 105.717 43.2173 105.921C43.4227 106.126 43.6674 106.288 43.9368 106.396C44.2062 106.505 44.4947 106.558 44.7852 106.552H46.8576V110.687H44.7852C44.4947 110.681 44.2062 110.734 43.9368 110.843C43.6674 110.951 43.4227 111.113 43.2173 111.318C43.0119 111.522 42.85 111.767 42.7413 112.036C42.6325 112.304 42.5793 112.592 42.5845 112.881V129.929C42.5793 130.219 42.6325 130.507 42.7413 130.775C42.85 131.044 43.0119 131.288 43.2173 131.493C43.4227 131.698 43.6674 131.859 43.9368 131.968C44.2062 132.076 44.4947 132.13 44.7852 132.125H49.0581C49.6419 132.125 50.2016 131.893 50.6141 131.481C51.0271 131.07 51.259 130.512 51.259 129.929C51.259 129.347 51.0271 128.789 50.6141 128.378C50.2016 127.966 49.6419 127.734 49.0581 127.734H46.9858V123.6H55.4037V129.929C55.4037 130.512 55.6356 131.07 56.0481 131.481C56.4611 131.893 57.0208 132.125 57.6046 132.125C58.1879 132.125 58.7476 131.893 59.1606 131.481C59.5731 131.07 59.805 130.512 59.805 129.929V123.6H61.8773C62.4611 123.6 63.0208 123.369 63.4333 122.958C63.8463 122.546 64.0782 121.988 64.0782 121.406C64.0782 120.823 63.8463 120.265 63.4333 119.853C63.0208 119.442 62.4611 119.211 61.8773 119.211ZM76.8974 121.407C76.8974 122.619 75.9119 123.601 74.6965 123.601C73.4812 123.601 72.4962 122.619 72.4962 121.407C72.4962 120.194 73.4812 119.212 74.6965 119.212C75.9119 119.212 76.8974 120.194 76.8974 121.407ZM70.4243 127.863C71.6397 127.863 72.6246 126.88 72.6246 125.668C72.6246 124.456 71.6397 123.473 70.4243 123.473C69.2089 123.473 68.2234 124.456 68.2234 125.668C68.2234 126.88 69.2089 127.863 70.4243 127.863ZM81.1701 125.668C81.1701 126.88 80.1846 127.863 78.9693 127.863C77.7539 127.863 76.7689 126.88 76.7689 125.668C76.7689 124.456 77.7539 123.473 78.9693 123.473C80.1846 123.473 81.1701 124.456 81.1701 125.668ZM87.5162 127.863C88.7316 127.863 89.7171 126.88 89.7171 125.668C89.7171 124.456 88.7316 123.473 87.5162 123.473C86.3009 123.473 85.3159 124.456 85.3159 125.668C85.3159 126.88 86.3009 127.863 87.5162 127.863ZM98.2626 123.472H100.335C100.626 123.467 100.914 123.52 101.184 123.628C101.453 123.737 101.697 123.898 101.903 124.103C102.109 124.308 102.27 124.552 102.379 124.821C102.488 125.089 102.541 125.377 102.536 125.667V129.929C102.536 130.511 102.304 131.07 101.891 131.481C101.478 131.892 100.919 132.124 100.335 132.124C99.7516 132.124 99.1919 131.892 98.7789 131.481C98.3664 131.07 98.1346 130.511 98.1346 129.929V127.862H96.0622C95.7718 127.867 95.4833 127.814 95.2136 127.706C94.9443 127.597 94.6996 127.436 94.4944 127.231C94.2886 127.026 94.1267 126.782 94.0184 126.513C93.9096 126.244 93.8559 125.957 93.8613 125.667V123.6H91.789C91.2052 123.6 90.6455 123.369 90.233 122.957C89.8204 122.545 89.5886 121.987 89.5886 121.405C89.5886 120.823 89.8204 120.265 90.233 119.853C90.6455 119.441 91.2052 119.21 91.789 119.21H96.0622C96.3526 119.205 96.6411 119.258 96.9103 119.366C97.1801 119.475 97.4248 119.636 97.63 119.841C97.8353 120.046 97.9972 120.29 98.106 120.559C98.2148 120.827 98.268 121.116 98.2626 121.405V123.472ZM74.6965 132.125C75.9119 132.125 76.8974 131.142 76.8974 129.929C76.8974 128.717 75.9119 127.735 74.6965 127.735C73.4812 127.735 72.4962 128.717 72.4962 129.929C72.4962 131.142 73.4812 132.125 74.6965 132.125ZM85.4424 129.929C85.4424 131.142 84.4574 132.125 83.242 132.125C82.0266 132.125 81.0412 131.142 81.0412 129.929C81.0412 128.717 82.0266 127.735 83.242 127.735C84.4574 127.735 85.4424 128.717 85.4424 129.929ZM91.789 132.125C93.0043 132.125 93.9898 131.142 93.9898 129.929C93.9898 128.717 93.0043 127.735 91.789 127.735C90.5736 127.735 89.5886 128.717 89.5886 129.929C89.5886 131.142 90.5736 132.125 91.789 132.125ZM123.901 129.929C123.901 131.142 122.916 132.125 121.701 132.125C120.486 132.125 119.5 131.142 119.5 129.929C119.5 128.717 120.486 127.735 121.701 127.735C122.916 127.735 123.901 128.717 123.901 129.929ZM125.671 35.7197C123.212 37.3587 120.32 38.2336 117.362 38.2336C115.395 38.2459 113.445 37.8684 111.624 37.1231C109.804 36.3778 108.151 35.2795 106.759 33.8919C105.368 32.5043 104.267 30.855 103.52 29.0397C102.773 27.2244 102.394 25.2791 102.406 23.3168C102.406 20.3665 103.284 17.4825 104.927 15.0294C106.57 12.5763 108.906 10.6644 111.639 9.53537C114.371 8.40638 117.379 8.11097 120.28 8.68653C123.181 9.2621 125.846 10.6828 127.937 12.769C130.029 14.8551 131.454 17.5131 132.03 20.4066C132.608 23.3002 132.312 26.2995 131.179 29.0252C130.048 31.7509 128.131 34.0806 125.671 35.7197ZM123.297 14.4576C121.541 13.2868 119.475 12.6619 117.362 12.6619C115.956 12.6481 114.56 12.9143 113.258 13.4449C111.956 13.9755 110.773 14.7598 109.778 15.7519C108.783 16.7441 107.996 17.9242 107.465 19.2231C106.933 20.522 106.666 21.9137 106.68 23.3168C106.68 25.4241 107.306 27.4841 108.48 29.2363C109.654 30.9885 111.322 32.3542 113.274 33.1606C115.226 33.9671 117.374 34.178 119.446 33.767C121.518 33.3558 123.422 32.341 124.916 30.8509C126.41 29.3608 127.427 27.4623 127.839 25.3955C128.252 23.3286 128.04 21.1863 127.232 19.2393C126.423 17.2924 125.054 15.6283 123.297 14.4576ZM23.3554 102.162C20.3975 102.162 17.5059 103.037 15.0464 104.676C12.587 106.315 10.6701 108.645 9.5381 111.371C8.40617 114.096 8.10999 117.095 8.68705 119.989C9.26412 122.883 10.6885 125.541 12.7801 127.627C14.8717 129.713 17.5366 131.134 20.4377 131.709C23.3389 132.285 26.346 131.99 29.0787 130.86C31.8116 129.732 34.1473 127.82 35.7907 125.366C37.434 122.913 38.3112 120.03 38.3112 117.079C38.3235 115.117 37.945 113.172 37.1978 111.356C36.4505 109.541 35.3494 107.892 33.9581 106.504C32.5669 105.116 30.9133 104.018 29.0933 103.273C27.2732 102.527 25.3229 102.15 23.3554 102.162ZM23.3554 127.734C21.2426 127.734 19.1772 127.109 17.4205 125.938C15.6637 124.767 14.2945 123.104 13.4859 121.156C12.6774 119.21 12.4658 117.068 12.878 115.001C13.2902 112.934 14.3076 111.035 15.8017 109.545C17.2956 108.055 19.1991 107.04 21.2714 106.629C23.3436 106.218 25.4915 106.429 27.4435 107.235C29.3955 108.041 31.0639 109.407 32.2378 111.16C33.4116 112.912 34.0381 114.972 34.0381 117.079C34.0519 118.482 33.785 119.874 33.253 121.173C32.7211 122.472 31.9347 123.652 30.94 124.644C29.9453 125.636 28.7621 126.421 27.4598 126.951C26.1575 127.481 24.7621 127.748 23.3554 127.734ZM29.766 23.3177C29.766 26.8484 26.8963 29.7106 23.3564 29.7106C19.8165 29.7106 16.9468 26.8484 16.9468 23.3177C16.9468 19.787 19.8165 16.9248 23.3564 16.9248C26.8963 16.9248 29.766 19.787 29.766 23.3177ZM117.363 29.7106C120.903 29.7106 123.772 26.8484 123.772 23.3177C123.772 19.787 120.903 16.9248 117.363 16.9248C113.823 16.9248 110.953 19.787 110.953 23.3177C110.953 26.8484 113.823 29.7106 117.363 29.7106ZM29.766 117.08C29.766 120.61 26.8963 123.473 23.3564 123.473C19.8165 123.473 16.9468 120.61 16.9468 117.08C16.9468 113.549 19.8165 110.687 23.3564 110.687C26.8963 110.687 29.766 113.549 29.766 117.08Z" fill="#172F35"/>
</svg>
