<svg width="11" height="19" viewBox="0 0 11 19" fill="none" xmlns="http://www.w3.org/2000/svg">
<path d="M11 5.31828C11 4.31726 10.7078 3.33657 10.1571 2.48897C9.60636 1.64137 8.81942 0.961267 7.88677 0.526869C6.95411 0.092472 5.9136 -0.0785845 4.88488 0.0333686C3.85616 0.145322 2.88101 0.535739 2.07154 1.15973C1.26206 1.78372 0.651147 2.61594 0.30903 3.56071C-0.0330874 4.50548 -0.0925142 5.52444 0.137583 6.50041C0.36768 7.47638 0.877958 8.36975 1.60974 9.07779C2.34153 9.78582 3.26511 10.2798 4.27429 10.5029V19H6.72069V10.5029C7.9352 10.234 9.01957 9.57492 9.79679 8.63329C10.574 7.69165 10.9982 6.52306 11 5.31828ZM2.38857 5.31828C2.38857 4.72322 2.57105 4.14153 2.91294 3.64677C3.25483 3.152 3.74077 2.76637 4.30931 2.53865C4.87785 2.31094 5.50345 2.25136 6.10701 2.36745C6.71057 2.48353 7.26497 2.77008 7.70011 3.19085C8.13525 3.61161 8.43159 4.1477 8.55164 4.73132C8.6717 5.31494 8.61008 5.91988 8.37459 6.46963C8.13909 7.01939 7.74029 7.48928 7.22862 7.81987C6.71695 8.15047 6.11538 8.32692 5.5 8.32692C4.675 8.32628 3.88399 8.00909 3.30062 7.445C2.71726 6.88091 2.38924 6.11602 2.38857 5.31828Z" fill="#767676"/>
</svg>
