<svg width="36" height="13" viewBox="0 0 36 13" fill="none" xmlns="http://www.w3.org/2000/svg">
<path d="M8.23529 10.244H3.65142L2.77996 12.9025H0L4.72331 0H7.14597L11.8954 12.9025H9.11547L8.23529 10.244ZM4.3573 8.09066H7.52941L5.93464 3.26108L4.3573 8.09066Z" fill="#D11713"/>
<path d="M13.0458 11.6442C13.0458 11.2365 13.1794 10.9057 13.4466 10.6517C13.7197 10.3976 14.0595 10.2706 14.4662 10.2706C14.8787 10.2706 15.2186 10.3976 15.4858 10.6517C15.7589 10.9057 15.8954 11.2365 15.8954 11.6442C15.8954 12.0459 15.7618 12.3738 15.4946 12.6278C15.2273 12.8759 14.8845 13 14.4662 13C14.0537 13 13.7139 12.8759 13.4466 12.6278C13.1794 12.3738 13.0458 12.0459 13.0458 11.6442Z" fill="#D11713"/>
<path d="M18.2397 11.6442C18.2397 11.2365 18.3733 10.9057 18.6405 10.6517C18.9136 10.3976 19.2534 10.2706 19.6601 10.2706C20.0726 10.2706 20.4125 10.3976 20.6797 10.6517C20.9528 10.9057 21.0893 11.2365 21.0893 11.6442C21.0893 12.0459 20.9557 12.3738 20.6885 12.6278C20.4212 12.8759 20.0784 13 19.6601 13C19.2476 13 18.9078 12.8759 18.6405 12.6278C18.3733 12.3738 18.2397 12.0459 18.2397 11.6442Z" fill="#D11713"/>
<path d="M23.4335 11.6442C23.4335 11.2365 23.5672 10.9057 23.8344 10.6517C24.1075 10.3976 24.4473 10.2706 24.854 10.2706C25.2665 10.2706 25.6064 10.3976 25.8736 10.6517C26.1467 10.9057 26.2832 11.2365 26.2832 11.6442C26.2832 12.0459 26.1496 12.3738 25.8824 12.6278C25.6151 12.8759 25.2723 13 24.854 13C24.4415 13 24.1017 12.8759 23.8344 12.6278C23.5672 12.3738 23.4335 12.0459 23.4335 11.6442Z" fill="#D11713"/>
<path d="M31.39 10.8378H36V12.9025H28.1743V11.3429L32.61 5.38787H28.305V3.31425H35.8606V4.82958L31.39 10.8378Z" fill="#D11713"/>
</svg>
