<svg width="85" height="50" viewBox="0 0 85 50" fill="none" xmlns="http://www.w3.org/2000/svg">
<path d="M47.0996 1.5H53.3996L71.3996 36.8" stroke="#E5332A" stroke-width="3" stroke-miterlimit="10" stroke-linecap="round" stroke-linejoin="round"/>
<path d="M36.6008 27.3008L30.8008 16.2008C30.8008 16.2008 35.5008 10.3008 39.8008 10.3008H54.6008H57.9008L62.4008 19.2008L54.1008 27.4008H36.6008V27.3008Z" stroke="#E5332A" stroke-width="3" stroke-miterlimit="10" stroke-linecap="round" stroke-linejoin="round"/>
<path d="M56.9004 7.60078L62.4004 7.30078L68.0004 13.0008L60.4004 15.2008" stroke="#E5332A" stroke-width="3" stroke-miterlimit="10" stroke-linecap="round" stroke-linejoin="round"/>
<path d="M30.4996 16.1008C30.2996 16.1008 22.2996 16.1008 22.2996 16.1008L18.8996 13.3008H7.89961L7.59961 18.8008L33.1996 21.6008" stroke="#E5332A" stroke-width="3" stroke-miterlimit="10" stroke-linecap="round" stroke-linejoin="round"/>
<path d="M12.3008 36.4008C12.4008 36.4008 51.2008 36.4008 51.2008 36.4008C51.2008 36.4008 54.1008 36.3008 54.2008 33.3008L54.1008 27.3008H35.0008C33.9008 27.3008 32.9008 27.6008 32.0008 28.3008C31.3008 28.9008 30.6008 29.7008 30.7008 31.0008C30.7008 31.7008 30.7008 36.0008 30.7008 36.0008" stroke="#E5332A" stroke-width="3" stroke-miterlimit="10" stroke-linecap="round" stroke-linejoin="round"/>
<path d="M13.2 48.0992C19.6617 48.0992 24.9 42.861 24.9 36.3992C24.9 29.9375 19.6617 24.6992 13.2 24.6992C6.73827 24.6992 1.5 29.9375 1.5 36.3992C1.5 42.861 6.73827 48.0992 13.2 48.0992Z" stroke="#E5332A" stroke-width="3" stroke-miterlimit="10" stroke-linecap="round" stroke-linejoin="round"/>
<path d="M71.3992 48.0992C77.861 48.0992 83.0992 42.861 83.0992 36.3992C83.0992 29.9375 77.861 24.6992 71.3992 24.6992C64.9375 24.6992 59.6992 29.9375 59.6992 36.3992C59.6992 42.861 64.9375 48.0992 71.3992 48.0992Z" stroke="#E5332A" stroke-width="3" stroke-miterlimit="10" stroke-linecap="round" stroke-linejoin="round"/>
</svg>
